<svg xmlns="http://www.w3.org/2000/svg" xmlns:xlink="http://www.w3.org/1999/xlink" xmlns:lucid="lucid" width="9581" height="14114.6"><g transform="translate(-8355 25769.6)" lucid:page-tab-id="6Uy4h8mi5u2_"><path d="M8000-26000h10000v14500H8000z" fill="#fff"/><path d="M8360-25220v-492a8 8 0 0 1 8-8h5612v500zM13980-25720h3932a8 8 0 0 1 8 8v492h-3940zM13980-11660H8368a8 8 0 0 1-8-8v-13552h5620zM17920-25220v13552a8 8 0 0 1-8 8h-3932v-13560z" stroke="#000" stroke-width="10" fill="#fff"/><use xlink:href="#a" transform="matrix(1,0,0,1,8360,-25720) translate(2535.1111111111113 282)"/><use xlink:href="#b" transform="matrix(1,0,0,1,13980,-25720) translate(1681.5555555555557 282)"/><path d="M10616-24340c-64.07 0-116 51.94-116 116v348c0 64.06 51.93 116 116 116h1314.67c64.06 0 116-51.94 116-116v-348c0-64.06-51.94-116-116-116z" stroke="#000" stroke-width="10" fill="#fff"/><use xlink:href="#c" transform="matrix(1,0,0,1,10508,-24332) translate(210.83333333333326 314)"/><use xlink:href="#d" transform="matrix(1,0,0,1,10508,-24332) translate(699.2777777777777 314)"/><use xlink:href="#e" transform="matrix(1,0,0,1,10508,-24332) translate(832.6111111111111 314)"/><path d="M8636-22540c-64.07 0-116 51.94-116 116v348c0 64.06 51.93 116 116 116h1314.67c64.06 0 116-51.94 116-116v-348c0-64.06-51.94-116-116-116z" stroke="#000" stroke-width="10" fill="#fff"/><use xlink:href="#c" transform="matrix(1,0,0,1,8528,-22532) translate(183.94444444444434 314)"/><use xlink:href="#f" transform="matrix(1,0,0,1,8528,-22532) translate(672.3888888888888 314)"/><use xlink:href="#g" transform="matrix(1,0,0,1,8528,-22532) translate(805.7222222222222 314)"/><path d="M10616-23440c-64.07 0-116 51.94-116 116v348c0 64.06 51.93 116 116 116h1314.67c64.06 0 116-51.94 116-116v-348c0-64.06-51.94-116-116-116z" stroke="#000" stroke-width="10" fill="#fff"/><use xlink:href="#c" transform="matrix(1,0,0,1,10508.000000031963,-23432) translate(187.94444444444446 218)"/><use xlink:href="#d" transform="matrix(1,0,0,1,10508.000000031963,-23432) translate(676.3888888888889 218)"/><use xlink:href="#h" transform="matrix(1,0,0,1,10508.000000031963,-23432) translate(809.7222222222223 218)"/><use xlink:href="#i" transform="matrix(1,0,0,1,10508.000000031963,-23432) translate(1165.2777777777778 218)"/><use xlink:href="#j" transform="matrix(1,0,0,1,10508.000000031963,-23432) translate(521.5 410)"/><path d="M11267.68-22474.34a8 8 0 0 1 11.3 0l188.7 188.68a8 8 0 0 1 0 11.32l-188.7 188.68a8 8 0 0 1-11.3 0l-188.7-188.68a8 8 0 0 1 0-11.32zM8636-21420c-64.07 0-116 51.94-116 116v348c0 64.06 51.93 116 116 116h1314.67c64.06 0 116-51.94 116-116v-348c0-64.06-51.94-116-116-116z" stroke="#000" stroke-width="10" fill="#fff"/><use xlink:href="#c" transform="matrix(1,0,0,1,8528,-21412) translate(187.94444444444446 218)"/><use xlink:href="#d" transform="matrix(1,0,0,1,8528,-21412) translate(676.3888888888889 218)"/><use xlink:href="#h" transform="matrix(1,0,0,1,8528,-21412) translate(809.7222222222223 218)"/><use xlink:href="#i" transform="matrix(1,0,0,1,8528,-21412) translate(1165.2777777777778 218)"/><use xlink:href="#k" transform="matrix(1,0,0,1,8528,-21412) translate(596.8333333333333 410)"/><path d="M11066.63-22280h-959.52" stroke="#000" stroke-width="10" fill="none"/><path d="M11072.27-22284.02l-.48 1.98-.17 2.04.16 2.04.47 1.98.4.95h-6.17v-9.94h6.16z" stroke="#000" stroke-width=".05"/><path d="M10087.85-22280l14.26-4.63v9.26z" stroke="#000" stroke-width="10"/><use xlink:href="#l" transform="matrix(1,0,0,1,10566.368625189363,-22476) translate(0.0049999999999954525 128)"/><path d="M11273.33-22850v332.85" stroke="#000" stroke-width="10" fill="none"/><path d="M11278.3-22849.87h-9.94v-5.13h9.95z" stroke="#000" stroke-width=".05"/><path d="M11273.33-22497.88l-4.63-14.27h9.27z" stroke="#000" stroke-width="10"/><path d="M11273.33-23750v269.55" stroke="#000" stroke-width="10" fill="none"/><path d="M11278.3-23749.87h-9.94v-5.13h9.95z" stroke="#000" stroke-width=".05"/><path d="M11273.33-23461.18l-4.63-14.27h9.27z" stroke="#000" stroke-width="10"/><path d="M9293.33-21950v489.55" stroke="#000" stroke-width="10" fill="none"/><path d="M9298.3-21949.87h-9.94v-5.13h9.95z" stroke="#000" stroke-width=".05"/><path d="M9293.33-21441.18l-4.63-14.27h9.27z" stroke="#000" stroke-width="10"/><path d="M10642.7-21420c-64.06 0-116 51.94-116 116v348c0 64.06 51.94 116 116 116h1314.67c64.06 0 116-51.94 116-116v-348c0-64.06-51.94-116-116-116z" stroke="#000" stroke-width="10" fill="#fff"/><use xlink:href="#m" transform="matrix(1,0,0,1,10534.70172250568,-21412) translate(334.8333333333333 314)"/><use xlink:href="#n" transform="matrix(1,0,0,1,10534.70172250568,-21412) translate(751.7222222222222 314)"/><path d="M11380-22472a8 8 0 0 1 8-8h1039.77a8 8 0 0 1 8 8v381.97a8 8 0 0 1-8 8H11388a8 8 0 0 1-8-8z" fill="none"/><use xlink:href="#o" transform="matrix(1,0,0,1,11380,-22480) translate(114.88888888888891 231)"/><use xlink:href="#p" transform="matrix(1,0,0,1,11380,-22480) translate(426 231)"/><use xlink:href="#q" transform="matrix(1,0,0,1,11380,-22480) translate(559.3333333333333 231)"/><path d="M11273.33-22073.3V-21460.45" stroke="#000" stroke-width="10" fill="none"/><path d="M11269.3-22078.94l2 .48 2.03.16 2.04-.16 1.98-.48.96-.4v6.17h-9.94v-6.16z" stroke="#000" stroke-width=".05"/><path d="M11273.33-21441.18l-4.63-14.27h9.27z" stroke="#000" stroke-width="10"/><use xlink:href="#r" transform="matrix(1,0,0,1,11281.333333365295,-21892.731847893527) translate(0.0049999999999954525 128)"/><path d="M10076.67-21104.33h409.6" stroke="#000" stroke-width="10" fill="none"/><path d="M10076.8-21099.35h-5.13v-9.95h5.13z" stroke="#000" stroke-width=".05"/><path d="M10505.52-21104.33l-14.26 4.64v-9.26z" stroke="#000" stroke-width="10"/><path d="M15316-23840c-64.07 0-116 51.94-116 116v348c0 64.06 51.93 116 116 116h1314.67c64.06 0 116-51.94 116-116v-348c0-64.06-51.94-116-116-116z" stroke="#000" stroke-width="10" fill="#fff"/><use xlink:href="#s" transform="matrix(1,0,0,1,15208,-23832) translate(187.94444444444434 314)"/><use xlink:href="#n" transform="matrix(1,0,0,1,15208,-23832) translate(898.6111111111111 314)"/><path d="M15316-22460c-64.07 0-116 51.94-116 116v348c0 64.06 51.93 116 116 116h1314.67c64.06 0 116-51.94 116-116v-348c0-64.06-51.94-116-116-116z" stroke="#000" stroke-width="10" fill="#fff"/><use xlink:href="#t" transform="matrix(1,0,0,1,15208,-22452) translate(135.05555555555554 218)"/><use xlink:href="#u" transform="matrix(1,0,0,1,15208,-22452) translate(579.0555555555555 218)"/><use xlink:href="#v" transform="matrix(1,0,0,1,15208,-22452) translate(880.8333333333334 218)"/><use xlink:href="#w" transform="matrix(1,0,0,1,15208,-22452) translate(1227.0555555555557 218)"/><use xlink:href="#x" transform="matrix(1,0,0,1,15208,-22452) translate(68.3888888888888 410)"/><use xlink:href="#y" transform="matrix(1,0,0,1,15208,-22452) translate(663.5 410)"/><path d="M12083.37-21130H12468a12 12 0 0 0 12-12v-2396a12 12 0 0 1 12-12h2667.55" stroke="#000" stroke-width="10" fill="none"/><path d="M12083.5-21125.03h-5.13v-9.94h5.13z" stroke="#000" stroke-width=".05"/><path d="M15178.82-23550l-14.27 4.63v-9.26z" stroke="#000" stroke-width="10"/><path d="M15973.33-23250v749.55" stroke="#000" stroke-width="10" fill="none"/><path d="M15978.3-23249.87h-9.94v-5.13h9.95z" stroke="#000" stroke-width=".05"/><path d="M15973.33-22481.18l-4.63-14.27h9.27z" stroke="#000" stroke-width="10"/><path d="M10636-20200c-64.07 0-116 51.94-116 116v348c0 64.06 51.93 116 116 116h1314.67c64.06 0 116-51.94 116-116v-348c0-64.06-51.94-116-116-116z" stroke="#000" stroke-width="10" fill="#fff"/><use xlink:href="#z" transform="matrix(1,0,0,1,10528,-20192) translate(72.38888888888891 314)"/><use xlink:href="#A" transform="matrix(1,0,0,1,10528,-20192) translate(685.2777777777778 314)"/><path d="M15190-22170h-2518a12 12 0 0 0-12 12v2041.1a12 12 0 0 1-12 12h-542.68" stroke="#000" stroke-width="10" fill="none"/><path d="M15195-22165.03h-5.13v-9.94h5.13z" stroke="#000" stroke-width=".05"/><path d="M12086.05-20104.9l14.27-4.63v9.27z" stroke="#000" stroke-width="10"/><path d="M10635-16920c-64.07 0-116 51.94-116 116v348c0 64.06 51.93 116 116 116h1314.67c64.06 0 116-51.94 116-116v-348c0-64.06-51.94-116-116-116z" stroke="#000" stroke-width="10" fill="#fff"/><use xlink:href="#B" transform="matrix(1,0,0,1,10526.999999999998,-16912) translate(202.3888888888889 314)"/><use xlink:href="#C" transform="matrix(1,0,0,1,10526.999999999998,-16912) translate(761.0555555555555 314)"/><path d="M15316-21300c-64.07 0-116 51.94-116 116v348c0 64.06 51.93 116 116 116h1314.67c64.06 0 116-51.94 116-116v-348c0-64.06-51.94-116-116-116z" stroke="#000" stroke-width="10" fill="#fff"/><use xlink:href="#s" transform="matrix(1,0,0,1,15208,-21292) translate(77.27777777777783 314)"/><use xlink:href="#d" transform="matrix(1,0,0,1,15208,-21292) translate(787.9444444444446 314)"/><use xlink:href="#D" transform="matrix(1,0,0,1,15208,-21292) translate(921.2777777777778 314)"/><path d="M15316-20100c-64.07 0-116 51.94-116 116v348c0 64.06 51.93 116 116 116h1314.67c64.06 0 116-51.94 116-116v-348c0-64.06-51.94-116-116-116z" stroke="#000" stroke-width="10" fill="#fff"/><use xlink:href="#t" transform="matrix(1,0,0,1,15208,-20092) translate(303.7222222222222 218)"/><use xlink:href="#u" transform="matrix(1,0,0,1,15208,-20092) translate(747.7222222222222 218)"/><use xlink:href="#i" transform="matrix(1,0,0,1,15208,-20092) translate(1049.5 218)"/><use xlink:href="#E" transform="matrix(1,0,0,1,15208,-20092) translate(365.7222222222222 410)"/><path d="M10635.67-19200c-64.07 0-116 51.94-116 116v348c0 64.06 51.93 116 116 116h1314.66c64.07 0 116-51.94 116-116v-348c0-64.06-51.93-116-116-116z" stroke="#000" stroke-width="10" fill="#fff"/><use xlink:href="#F" transform="matrix(1,0,0,1,10527.666666666666,-19192) translate(76.83333333333326 314)"/><use xlink:href="#G" transform="matrix(1,0,0,1,10527.666666666666,-19192) translate(805.2777777777777 314)"/><use xlink:href="#H" transform="matrix(1,0,0,1,10527.666666666666,-19192) translate(1018.6111111111111 314)"/><path d="M10635.33-18060c-64.06 0-116 51.94-116 116v348c0 64.06 51.94 116 116 116H11950c64.07 0 116-51.94 116-116v-348c0-64.06-51.93-116-116-116z" stroke="#000" stroke-width="10" fill="#fff"/><use xlink:href="#z" transform="matrix(1,0,0,1,10527.333333333332,-18052) translate(32.388888888888914 314)"/><use xlink:href="#G" transform="matrix(1,0,0,1,10527.333333333332,-18052) translate(645.2777777777778 314)"/><use xlink:href="#I" transform="matrix(1,0,0,1,10527.333333333332,-18052) translate(858.6111111111111 314)"/><path d="M11293.33-19610v369.55" stroke="#000" stroke-width="10" fill="none"/><path d="M11298.3-19609.87h-9.94v-5.13h9.95z" stroke="#000" stroke-width=".05"/><path d="M11293.33-19221.18l-4.63-14.27h9.27z" stroke="#000" stroke-width="10"/><path d="M11293-18610v509.55" stroke="#000" stroke-width="10" fill="none"/><path d="M11297.98-18609.87h-9.95v-5.13h9.94z" stroke="#000" stroke-width=".05"/><path d="M11293-18081.18l-4.64-14.27h9.27z" stroke="#000" stroke-width="10"/><path d="M11244.52-17470v509.55" stroke="#000" stroke-width="10" fill="none"/><path d="M11249.5-17469.87h-9.95v-5.13h9.95z" stroke="#000" stroke-width=".05"/><path d="M11244.52-16941.18l-4.63-14.27h9.26z" stroke="#000" stroke-width="10"/><path d="M12075.67-16630H12828a12 12 0 0 0 12-12v-4356a12 12 0 0 1 12-12h2307.55" stroke="#000" stroke-width="10" fill="none"/><path d="M12075.8-16625.03h-5.13v-9.94h5.13z" stroke="#000" stroke-width=".05"/><path d="M15178.82-21010l-14.27 4.63v-9.26z" stroke="#000" stroke-width="10"/><path d="M15973.33-20710v569.55" stroke="#000" stroke-width="10" fill="none"/><path d="M15978.3-20709.87h-9.94v-5.13h9.95z" stroke="#000" stroke-width=".05"/><path d="M15973.33-20121.18l-4.63-14.27h9.27z" stroke="#000" stroke-width="10"/><path d="M10665.2-15641.98c-64.05 0-116 51.93-116 116v348c0 64.06 51.95 116 116 116h1314.68c64.06 0 116-51.94 116-116v-348c0-64.07-51.94-116-116-116z" stroke="#000" stroke-width="10" fill="#fff"/><use xlink:href="#z" transform="matrix(1,0,0,1,10557.212105199293,-15633.980323480027) translate(175.05555555555554 218)"/><use xlink:href="#J" transform="matrix(1,0,0,1,10557.212105199293,-15633.980323480027) translate(787.9444444444445 218)"/><use xlink:href="#i" transform="matrix(1,0,0,1,10557.212105199293,-15633.980323480027) translate(1178.1666666666665 218)"/><use xlink:href="#E" transform="matrix(1,0,0,1,10557.212105199293,-15633.980323480027) translate(365.7222222222222 410)"/><path d="M15973.33-19510v293a12 12 0 0 1-12 12H13192a12 12 0 0 0-12 12v3829.02a12 12 0 0 1-12 12h-1031.67" stroke="#000" stroke-width="10" fill="none"/><path d="M15978.3-19509.87h-9.94v-5.13h9.95z" stroke="#000" stroke-width=".05"/><path d="M12117.06-15351.98l14.27-4.64v9.28z" stroke="#000" stroke-width="10"/><path d="M11314.34-14534.34a8 8 0 0 1 11.32 0l188.68 188.68a8 8 0 0 1 0 11.32l-188.68 188.68a8 8 0 0 1-11.32 0l-188.68-188.68a8 8 0 0 1 0-11.32z" stroke="#000" stroke-width="10" fill="#fff"/><path d="M11322.55-15051.98v475.1" stroke="#000" stroke-width="10" fill="none"/><path d="M11327.52-15051.85h-9.95v-5.13h9.95z" stroke="#000" stroke-width=".05"/><path d="M11322.55-14557.6l-4.64-14.26h9.28z" stroke="#000" stroke-width="10"/><path d="M12211.88-14620c-64.07 0-116 51.93-116 116v348c0 64.07 51.93 116 116 116h1314.67c64.06 0 116-51.93 116-116v-348c0-64.07-51.94-116-116-116z" stroke="#000" stroke-width="10" fill="#fff"/><use xlink:href="#K" transform="matrix(1,0,0,1,12103.878771865959,-14612) translate(68.61111111111109 314)"/><use xlink:href="#L" transform="matrix(1,0,0,1,12103.878771865959,-14612) translate(645.0555555555555 314)"/><path d="M15316-18820c-64.07 0-116 51.94-116 116v348c0 64.06 51.93 116 116 116h1314.67c64.06 0 116-51.94 116-116v-348c0-64.06-51.94-116-116-116z" stroke="#000" stroke-width="10" fill="#fff"/><use xlink:href="#s" transform="matrix(1,0,0,1,15207.999999968037,-18812) translate(1.4999999999998863 314)"/><use xlink:href="#L" transform="matrix(1,0,0,1,15207.999999968037,-18812) translate(712.1666666666666 314)"/><path d="M15967.68-17834.34a8 8 0 0 1 11.3 0l188.7 188.68a8 8 0 0 1 0 11.32l-188.7 188.68a8 8 0 0 1-11.3 0l-188.7-188.68a8 8 0 0 1 0-11.32zM14396-17090c-64.07 0-116 51.94-116 116v348c0 64.06 51.93 116 116 116h1314.67c64.06 0 116-51.94 116-116v-348c0-64.06-51.94-116-116-116z" stroke="#000" stroke-width="10" fill="#fff"/><use xlink:href="#M" transform="matrix(1,0,0,1,14288,-17082) translate(428.6111111111111 218)"/><use xlink:href="#i" transform="matrix(1,0,0,1,14288,-17082) translate(924.6111111111111 218)"/><use xlink:href="#N" transform="matrix(1,0,0,1,14288,-17082) translate(330.6111111111111 410)"/><path d="M14396-16090c-64.07 0-116 51.93-116 116v348c0 64.07 51.93 116 116 116h1314.67c64.06 0 116-51.93 116-116v-348c0-64.07-51.94-116-116-116z" stroke="#000" stroke-width="10" fill="#fff"/><use xlink:href="#t" transform="matrix(1,0,0,1,14288,-16082) translate(303.7222222222222 218)"/><use xlink:href="#u" transform="matrix(1,0,0,1,14288,-16082) translate(747.7222222222222 218)"/><use xlink:href="#i" transform="matrix(1,0,0,1,14288,-16082) translate(1049.5 218)"/><use xlink:href="#N" transform="matrix(1,0,0,1,14288,-16082) translate(330.6111111111111 410)"/><path d="M15376-13300c-64.07 0-116 51.93-116 116v348c0 64.07 51.93 116 116 116h1314.67c64.06 0 116-51.93 116-116v-348c0-64.07-51.94-116-116-116z" stroke="#000" stroke-width="10" fill="#fff"/><use xlink:href="#t" transform="matrix(1,0,0,1,15268,-13292) translate(303.7222222222222 218)"/><use xlink:href="#u" transform="matrix(1,0,0,1,15268,-13292) translate(747.7222222222222 218)"/><use xlink:href="#i" transform="matrix(1,0,0,1,15268,-13292) translate(1049.5 218)"/><use xlink:href="#O" transform="matrix(1,0,0,1,15268,-13292) translate(459.05555555555554 410)"/><path d="M15973.33-18230v352.85" stroke="#000" stroke-width="10" fill="none"/><path d="M15978.3-18229.87h-9.94v-5.13h9.95z" stroke="#000" stroke-width=".05"/><path d="M15973.33-17857.88l-4.63-14.27h9.27z" stroke="#000" stroke-width="10"/><path d="M16316-17090c-64.07 0-116 51.94-116 116v348c0 64.06 51.93 116 116 116h1314.67c64.06 0 116-51.94 116-116v-348c0-64.06-51.94-116-116-116z" stroke="#000" stroke-width="10" fill="#fff"/><use xlink:href="#t" transform="matrix(1,0,0,1,16208,-17082) translate(108.38888888888891 314)"/><use xlink:href="#u" transform="matrix(1,0,0,1,16208,-17082) translate(552.3888888888889 314)"/><use xlink:href="#P" transform="matrix(1,0,0,1,16208,-17082) translate(854.1666666666667 314)"/><use xlink:href="#Q" transform="matrix(1,0,0,1,16208,-17082) translate(1076.388888888889 314)"/><path d="M15973.33-17433.3v154.65a12 12 0 0 1-12 12h-896a12 12 0 0 0-12 12v124.2" stroke="#000" stroke-width="10" fill="none"/><path d="M15969.3-17438.94l2 .48 2.03.16 2.04-.16 1.98-.48.96-.4v6.17h-9.94v-6.16z" stroke="#000" stroke-width=".05"/><path d="M15053.33-17111.18l-4.63-14.27h9.27z" stroke="#000" stroke-width="10"/><g><use xlink:href="#l" transform="matrix(1,0,0,1,15438.966821338114,-17462.64913874716) translate(0.0049999999999954525 128)"/></g><path d="M15973.33-17433.3v154.65a12 12 0 0 0 12 12h976a12 12 0 0 1 12 12v124.2" stroke="#000" stroke-width="10" fill="none"/><path d="M15969.3-17438.94l2 .48 2.03.16 2.04-.16 1.98-.48.96-.4v6.17h-9.94v-6.16z" stroke="#000" stroke-width=".05"/><path d="M16973.33-17111.18l-4.63-14.27h9.27z" stroke="#000" stroke-width="10"/><g><use xlink:href="#r" transform="matrix(1,0,0,1,16193.816167564726,-17462.64913874716) translate(0.0049999999999954525 128)"/></g><path d="M15053.33-16500v369.55" stroke="#000" stroke-width="10" fill="none"/><path d="M15058.3-16499.87h-9.94v-5.13h9.95z" stroke="#000" stroke-width=".05"/><path d="M15053.33-16111.18l-4.63-14.27h9.27z" stroke="#000" stroke-width="10"/><path d="M15253.33-14790c0 110.46-89.54 200-200 200-110.45 0-200-89.54-200-200s89.55-200 200-200c110.46 0 200 89.54 200 200z" stroke="#000" stroke-width="10" fill="#fff"/><path d="M15173.33-14790c0 66.27-53.72 120-120 120-66.27 0-120-53.73-120-120 0-66.27 53.73-120 120-120 66.28 0 120 53.73 120 120z" stroke="#000" stroke-width="10"/><path d="M15053.33-15500v469.55" stroke="#000" stroke-width="10" fill="none"/><path d="M15058.3-15499.87h-9.94v-5.13h9.95z" stroke="#000" stroke-width=".05"/><path d="M15053.33-15011.18l-4.63-14.27h9.27z" stroke="#000" stroke-width="10"/><path d="M17173.33-16030c0 110.46-89.54 200-200 200-110.45 0-200-89.54-200-200s89.55-200 200-200c110.46 0 200 89.54 200 200z" stroke="#000" stroke-width="10" fill="#fff"/><path d="M17093.33-16030c0 66.27-53.72 120-120 120-66.27 0-120-53.73-120-120 0-66.27 53.73-120 120-120 66.28 0 120 53.73 120 120z" stroke="#000" stroke-width="10"/><path d="M16973.33-16500v229.55" stroke="#000" stroke-width="10" fill="none"/><path d="M16978.3-16499.87h-9.94v-5.13h9.95z" stroke="#000" stroke-width=".05"/><path d="M16973.33-16251.18l-4.63-14.27h9.27zM11460-24840c0 110.46-89.54 200-200 200s-200-89.54-200-200 89.54-200 200-200 200 89.54 200 200z" stroke="#000" stroke-width="10"/><path d="M11260-24630v249.55" stroke="#000" stroke-width="10" fill="none"/><path d="M11259.97-24635l4.43-.05.58-.02v5.2h-9.95v-5.23z" stroke="#000" stroke-width=".05"/><path d="M11260-24361.18l-4.64-14.27h9.27z" stroke="#000" stroke-width="10"/><path d="M13505.3-14630v-3888a12 12 0 0 1 12-12h1642.25" stroke="#333" stroke-width="10" fill="none"/><path d="M13510.26-14625h-9.95v-5.13h9.96z" stroke="#333" stroke-width=".05" fill="#333"/><path d="M15178.82-18530l-14.27 4.63v-9.26z" stroke="#333" stroke-width="10" fill="#333"/><path d="M11526.7-14340h528.73" stroke="#333" stroke-width="10" fill="none"/><path d="M11526.83-14335.02h-6.16l.4-.96.47-1.98.16-2.04-.16-2.04-.48-1.98-.4-.95h6.17z" stroke="#333" stroke-width=".05" fill="#333"/><path d="M12074.7-14340l-14.27 4.64v-9.27z" stroke="#333" stroke-width="10" fill="#333"/><g><use xlink:href="#l" transform="matrix(1,0,0,1,11668.956913852484,-14536) translate(0.0049999999999954525 128)"/></g><path d="M11320-14133.3v1991.3a12 12 0 0 0 12 12h4689.33a12 12 0 0 0 12-12v-537.55" stroke="#333" stroke-width="10" fill="none"/><path d="M11315.98-14138.93l1.98.47 2.04.16 2.04-.16 1.98-.48.95-.4v6.17h-9.94v-6.16z" stroke="#333" stroke-width=".05" fill="#333"/><path d="M16033.33-12698.82l4.64 14.27h-9.27z" stroke="#333" stroke-width="10" fill="#333"/><g><use xlink:href="#r" transform="matrix(1,0,0,1,11328,-13680.821654077707) translate(0.0049999999999954525 128)"/></g><path d="M12211.88-13300c-64.07 0-116 51.93-116 116v348c0 64.07 51.93 116 116 116h1314.67c64.06 0 116-51.93 116-116v-348c0-64.07-51.94-116-116-116z" stroke="#000" stroke-width="10" fill="#fff"/><g><use xlink:href="#K" transform="matrix(1,0,0,1,12103.878771865959,-13292) translate(86.61111111111109 314)"/><use xlink:href="#f" transform="matrix(1,0,0,1,12103.878771865959,-13292) translate(663.0555555555555 314)"/><use xlink:href="#R" transform="matrix(1,0,0,1,12103.878771865959,-13292) translate(796.3888888888889 314)"/></g><path d="M12869.2-13310v-689.55" stroke="#333" stroke-width="10" fill="none"/><path d="M12874.2-13305h-9.96v-5.13h9.95z" stroke="#333" stroke-width=".05" fill="#333"/><path d="M12869.2-14018.82l4.65 14.27h-9.27z" stroke="#333" stroke-width="10" fill="#333"/><path d="M15250-13010h-1567" stroke="#333" stroke-width="10" fill="none"/><path d="M15255-13005.02h-5.13v-9.95h5.13z" stroke="#333" stroke-width=".05" fill="#333"/><path d="M13663.73-13010l14.26-4.64v9.27z" stroke="#333" stroke-width="10" fill="#333"/><path d="M9820-14692a8 8 0 0 1 8-8h1306.27a8 8 0 0 1 8 8v381.97a8 8 0 0 1-8 8H9828a8 8 0 0 1-8-8z" fill="none"/><g><use xlink:href="#S" transform="matrix(1,0,0,1,9820,-14700) translate(26.611111111111086 231)"/><use xlink:href="#T" transform="matrix(1,0,0,1,9820,-14700) translate(461.2777777777777 231)"/></g><path d="M14240-18072a8 8 0 0 1 8-8h1630.67a8 8 0 0 1 8 8v381.97a8 8 0 0 1-8 8H14248a8 8 0 0 1-8-8z" fill="none"/><g><use xlink:href="#U" transform="matrix(1,0,0,1,14240,-18080) translate(6.166666666666629 231)"/><use xlink:href="#V" transform="matrix(1,0,0,1,14240,-18080) translate(912.3888888888889 231)"/></g><defs><path d="M232-93c-1 65-40 97-104 97C67 4 28-28 28-90v-158h33c8 89-33 224 67 224 102 0 64-133 71-224h33v155" id="W"/><path d="M135-143c-3-34-86-38-87 0 15 53 115 12 119 90S17 21 10-45l28-5c4 36 97 45 98 0-10-56-113-15-118-90-4-57 82-63 122-42 12 7 21 19 24 35" id="X"/><path d="M84 4C-5 8 30-112 23-190h32v120c0 31 7 50 39 49 72-2 45-101 50-169h31l1 190h-30c-1-10 1-25-2-33-11 22-28 36-60 37" id="Y"/><path d="M141-36C126-15 110 5 73 4 37 3 15-17 15-53c-1-64 63-63 125-63 3-35-9-54-41-54-24 1-41 7-42 31l-33-3c5-37 33-52 76-52 45 0 72 20 72 64v82c-1 20 7 32 28 27v20c-31 9-61-2-59-35zM48-53c0 20 12 33 32 33 41-3 63-29 60-74-43 2-92-5-92 41zm25-158c8-23 27-35 38-54h36v5l-58 49H73" id="Z"/><path d="M114-163C36-179 61-72 57 0H25l-1-190h30c1 12-1 29 2 39 6-27 23-49 58-41v29" id="aa"/><path d="M24-231v-30h32v30H24zM24 0v-190h32V0H24" id="ab"/><path d="M100-194c62-1 85 37 85 99 1 63-27 99-86 99S16-35 15-95c0-66 28-99 85-99zM99-20c44 1 53-31 53-75 0-43-8-75-51-75s-53 32-53 75 10 74 51 75" id="ac"/><g id="a"><use transform="matrix(0.4444444444444444,0,0,0.4444444444444444,0,0)" xlink:href="#W"/><use transform="matrix(0.4444444444444444,0,0,0.4444444444444444,115.1111111111111,0)" xlink:href="#X"/><use transform="matrix(0.4444444444444444,0,0,0.4444444444444444,195.1111111111111,0)" xlink:href="#Y"/><use transform="matrix(0.4444444444444444,0,0,0.4444444444444444,284,0)" xlink:href="#Z"/><use transform="matrix(0.4444444444444444,0,0,0.4444444444444444,372.8888888888889,0)" xlink:href="#aa"/><use transform="matrix(0.4444444444444444,0,0,0.4444444444444444,425.7777777777778,0)" xlink:href="#ab"/><use transform="matrix(0.4444444444444444,0,0,0.4444444444444444,460.88888888888897,0)" xlink:href="#ac"/></g><path d="M185-189c-5-48-123-54-124 2 14 75 158 14 163 119 3 78-121 87-175 55-17-10-28-26-33-46l33-7c5 56 141 63 141-1 0-78-155-14-162-118-5-82 145-84 179-34 5 7 8 16 11 25" id="ad"/><path d="M59-47c-2 24 18 29 38 22v24C64 9 27 4 27-40v-127H5v-23h24l9-43h21v43h35v23H59v120" id="ae"/><path d="M100-194c63 0 86 42 84 106H49c0 40 14 67 53 68 26 1 43-12 49-29l28 8c-11 28-37 45-77 45C44 4 14-33 15-96c1-61 26-98 85-98zm52 81c6-60-76-77-97-28-3 7-6 17-6 28h103" id="af"/><path d="M210-169c-67 3-38 105-44 169h-31v-121c0-29-5-50-35-48C34-165 62-65 56 0H25l-1-190h30c1 10-1 24 2 32 10-44 99-50 107 0 11-21 27-35 58-36 85-2 47 119 55 194h-31v-121c0-29-5-49-35-48" id="ag"/><path d="M141-36C126-15 110 5 73 4 37 3 15-17 15-53c-1-64 63-63 125-63 3-35-9-54-41-54-24 1-41 7-42 31l-33-3c5-37 33-52 76-52 45 0 72 20 72 64v82c-1 20 7 32 28 27v20c-31 9-61-2-59-35zM48-53c0 20 12 33 32 33 41-3 63-29 60-74-43 2-92-5-92 41" id="ah"/><g id="b"><use transform="matrix(0.4444444444444444,0,0,0.4444444444444444,0,0)" xlink:href="#ad"/><use transform="matrix(0.4444444444444444,0,0,0.4444444444444444,106.66666666666666,0)" xlink:href="#ab"/><use transform="matrix(0.4444444444444444,0,0,0.4444444444444444,141.77777777777777,0)" xlink:href="#X"/><use transform="matrix(0.4444444444444444,0,0,0.4444444444444444,221.77777777777777,0)" xlink:href="#ae"/><use transform="matrix(0.4444444444444444,0,0,0.4444444444444444,266.22222222222223,0)" xlink:href="#af"/><use transform="matrix(0.4444444444444444,0,0,0.4444444444444444,355.1111111111111,0)" xlink:href="#ag"/><use transform="matrix(0.4444444444444444,0,0,0.4444444444444444,488,0)" xlink:href="#ah"/></g><path d="M33 0v-248h34V0H33" id="ai"/><path d="M117-194c89-4 53 116 60 194h-32v-121c0-31-8-49-39-48C34-167 62-67 57 0H25l-1-190h30c1 10-1 24 2 32 11-22 29-35 61-36" id="aj"/><g id="c"><use transform="matrix(0.4444444444444444,0,0,0.4444444444444444,0,0)" xlink:href="#ai"/><use transform="matrix(0.4444444444444444,0,0,0.4444444444444444,44.44444444444444,0)" xlink:href="#aj"/><use transform="matrix(0.4444444444444444,0,0,0.4444444444444444,133.33333333333331,0)" xlink:href="#X"/><use transform="matrix(0.4444444444444444,0,0,0.4444444444444444,213.33333333333331,0)" xlink:href="#af"/><use transform="matrix(0.4444444444444444,0,0,0.4444444444444444,302.2222222222222,0)" xlink:href="#aa"/><use transform="matrix(0.4444444444444444,0,0,0.4444444444444444,355.1111111111111,0)" xlink:href="#af"/></g><use transform="matrix(0.4444444444444444,0,0,0.4444444444444444,0,0)" xlink:href="#ah" id="d"/><path d="M177-190C167-65 218 103 67 71c-23-6-38-20-44-43l32-5c15 47 100 32 89-28v-30C133-14 115 1 83 1 29 1 15-40 15-95c0-56 16-97 71-98 29-1 48 16 59 35 1-10 0-23 2-32h30zM94-22c36 0 50-32 50-73 0-42-14-75-50-75-39 0-46 34-46 75s6 73 46 73" id="ak"/><g id="e"><use transform="matrix(0.4444444444444444,0,0,0.4444444444444444,0,0)" xlink:href="#ac"/><use transform="matrix(0.4444444444444444,0,0,0.4444444444444444,88.88888888888889,0)" xlink:href="#aa"/><use transform="matrix(0.4444444444444444,0,0,0.4444444444444444,141.77777777777777,0)" xlink:href="#ab"/><use transform="matrix(0.4444444444444444,0,0,0.4444444444444444,176.88888888888889,0)" xlink:href="#ak"/><use transform="matrix(0.4444444444444444,0,0,0.4444444444444444,265.77777777777777,0)" xlink:href="#af"/><use transform="matrix(0.4444444444444444,0,0,0.4444444444444444,354.66666666666663,0)" xlink:href="#ag"/></g><use transform="matrix(0.4444444444444444,0,0,0.4444444444444444,0,0)" xlink:href="#ac" id="f"/><path d="M30-248c118-7 216 8 213 122C240-48 200 0 122 0H30v-248zM63-27c89 8 146-16 146-99s-60-101-146-95v194" id="al"/><g id="g"><use transform="matrix(0.4444444444444444,0,0,0.4444444444444444,0,0)" xlink:href="#al"/><use transform="matrix(0.4444444444444444,0,0,0.4444444444444444,115.1111111111111,0)" xlink:href="#af"/><use transform="matrix(0.4444444444444444,0,0,0.4444444444444444,204,0)" xlink:href="#X"/><use transform="matrix(0.4444444444444444,0,0,0.4444444444444444,284,0)" xlink:href="#ae"/><use transform="matrix(0.4444444444444444,0,0,0.4444444444444444,328.44444444444446,0)" xlink:href="#ab"/><use transform="matrix(0.4444444444444444,0,0,0.4444444444444444,363.55555555555554,0)" xlink:href="#aj"/><use transform="matrix(0.4444444444444444,0,0,0.4444444444444444,452.44444444444446,0)" xlink:href="#ac"/></g><path d="M85-194c31 0 48 13 60 33l-1-100h32l1 261h-30c-2-10 0-23-3-31C134-8 116 4 85 4 32 4 16-35 15-94c0-66 23-100 70-100zm9 24c-40 0-46 34-46 75 0 40 6 74 45 74 42 0 51-32 51-76 0-42-9-74-50-73" id="am"/><g id="h"><use transform="matrix(0.4444444444444444,0,0,0.4444444444444444,0,0)" xlink:href="#am"/><use transform="matrix(0.4444444444444444,0,0,0.4444444444444444,88.88888888888889,0)" xlink:href="#ah"/><use transform="matrix(0.4444444444444444,0,0,0.4444444444444444,177.77777777777777,0)" xlink:href="#ae"/><use transform="matrix(0.4444444444444444,0,0,0.4444444444444444,222.22222222222223,0)" xlink:href="#ah"/></g><g id="i"><use transform="matrix(0.4444444444444444,0,0,0.4444444444444444,0,0)" xlink:href="#am"/><use transform="matrix(0.4444444444444444,0,0,0.4444444444444444,88.88888888888889,0)" xlink:href="#af"/></g><path d="M115-194c55 1 70 41 70 98S169 2 115 4C84 4 66-9 55-30l1 105H24l-1-265h31l2 30c10-21 28-34 59-34zm-8 174c40 0 45-34 45-75s-6-73-45-74c-42 0-51 32-51 76 0 43 10 73 51 73" id="an"/><g id="j"><use transform="matrix(0.4444444444444444,0,0,0.4444444444444444,0,0)" xlink:href="#an"/><use transform="matrix(0.4444444444444444,0,0,0.4444444444444444,88.88888888888889,0)" xlink:href="#ah"/><use transform="matrix(0.4444444444444444,0,0,0.4444444444444444,177.77777777777777,0)" xlink:href="#aa"/><use transform="matrix(0.4444444444444444,0,0,0.4444444444444444,230.66666666666666,0)" xlink:href="#ae"/><use transform="matrix(0.4444444444444444,0,0,0.4444444444444444,275.1111111111111,0)" xlink:href="#ab"/><use transform="matrix(0.4444444444444444,0,0,0.4444444444444444,310.2222222222222,0)" xlink:href="#am"/><use transform="matrix(0.4444444444444444,0,0,0.4444444444444444,399.1111111111111,0)" xlink:href="#ah"/></g><path d="M108 0H70L1-190h34L89-25l56-165h34" id="ao"/><path d="M24 0v-261h32V0H24" id="ap"/><g id="k"><use transform="matrix(0.4444444444444444,0,0,0.4444444444444444,0,0)" xlink:href="#ao"/><use transform="matrix(0.4444444444444444,0,0,0.4444444444444444,80,0)" xlink:href="#ac"/><use transform="matrix(0.4444444444444444,0,0,0.4444444444444444,168.88888888888889,0)" xlink:href="#ap"/><use transform="matrix(0.4444444444444444,0,0,0.4444444444444444,204,0)" xlink:href="#ae"/><use transform="matrix(0.4444444444444444,0,0,0.4444444444444444,248.44444444444449,0)" xlink:href="#ah"/></g><g id="l"><use transform="matrix(0.4444444444444444,0,0,0.4444444444444444,0,0)" xlink:href="#ad"/><use transform="matrix(0.4444444444444444,0,0,0.4444444444444444,106.66666666666666,0)" xlink:href="#ab"/><use transform="matrix(0.4444444444444444,0,0,0.4444444444444444,141.77777777777777,0)" xlink:href="#ag"/></g><path d="M96-169c-40 0-48 33-48 73s9 75 48 75c24 0 41-14 43-38l32 2c-6 37-31 61-74 61-59 0-76-41-82-99-10-93 101-131 147-64 4 7 5 14 7 22l-32 3c-4-21-16-35-41-35" id="aq"/><g id="m"><use transform="matrix(0.4444444444444444,0,0,0.4444444444444444,0,0)" xlink:href="#ai"/><use transform="matrix(0.4444444444444444,0,0,0.4444444444444444,44.44444444444444,0)" xlink:href="#aj"/><use transform="matrix(0.4444444444444444,0,0,0.4444444444444444,133.33333333333331,0)" xlink:href="#ab"/><use transform="matrix(0.4444444444444444,0,0,0.4444444444444444,168.44444444444443,0)" xlink:href="#aq"/><use transform="matrix(0.4444444444444444,0,0,0.4444444444444444,248.44444444444443,0)" xlink:href="#ab"/><use transform="matrix(0.4444444444444444,0,0,0.4444444444444444,283.55555555555554,0)" xlink:href="#ah"/></g><path d="M160-131c35 5 61 23 61 61C221 17 115-2 30 0v-248c76 3 177-17 177 60 0 33-19 50-47 57zm-97-11c50-1 110 9 110-42 0-47-63-36-110-37v79zm0 115c55-2 124 14 124-45 0-56-70-42-124-44v89" id="ar"/><g id="n"><use transform="matrix(0.4444444444444444,0,0,0.4444444444444444,0,0)" xlink:href="#ar"/><use transform="matrix(0.4444444444444444,0,0,0.4444444444444444,106.66666666666666,0)" xlink:href="#Y"/><use transform="matrix(0.4444444444444444,0,0,0.4444444444444444,195.55555555555554,0)" xlink:href="#X"/><use transform="matrix(0.4444444444444444,0,0,0.4444444444444444,275.55555555555554,0)" xlink:href="#aq"/><use transform="matrix(0.4444444444444444,0,0,0.4444444444444444,355.55555555555554,0)" xlink:href="#ah"/></g><path d="M26 75v-336h71v23H56V52h41v23H26" id="as"/><g id="o"><use transform="matrix(0.4444444444444444,0,0,0.4444444444444444,0,0)" xlink:href="#as"/><use transform="matrix(0.4444444444444444,0,0,0.4444444444444444,44.44444444444444,0)" xlink:href="#ai"/><use transform="matrix(0.4444444444444444,0,0,0.4444444444444444,88.88888888888889,0)" xlink:href="#am"/><use transform="matrix(0.4444444444444444,0,0,0.4444444444444444,177.77777777777777,0)" xlink:href="#ah"/></g><use transform="matrix(0.4444444444444444,0,0,0.4444444444444444,0,0)" xlink:href="#af" id="p"/><path d="M3 75V52h41v-290H3v-23h71V75H3" id="at"/><g id="q"><use transform="matrix(0.4444444444444444,0,0,0.4444444444444444,0,0)" xlink:href="#ao"/><use transform="matrix(0.4444444444444444,0,0,0.4444444444444444,80,0)" xlink:href="#ac"/><use transform="matrix(0.4444444444444444,0,0,0.4444444444444444,168.88888888888889,0)" xlink:href="#ap"/><use transform="matrix(0.4444444444444444,0,0,0.4444444444444444,204,0)" xlink:href="#ae"/><use transform="matrix(0.4444444444444444,0,0,0.4444444444444444,248.44444444444449,0)" xlink:href="#ah"/><use transform="matrix(0.4444444444444444,0,0,0.4444444444444444,337.33333333333337,0)" xlink:href="#at"/></g><path d="M190 0L58-211 59 0H30v-248h39L202-35l-2-213h31V0h-41" id="au"/><path d="M141-36C126-15 110 5 73 4 37 3 15-17 15-53c-1-64 63-63 125-63 3-35-9-54-41-54-24 1-41 7-42 31l-33-3c5-37 33-52 76-52 45 0 72 20 72 64v82c-1 20 7 32 28 27v20c-31 9-61-2-59-35zM48-53c0 20 12 33 32 33 41-3 63-29 60-74-43 2-92-5-92 41zm117-205c-3 23-9 48-36 47-26-1-65-44-74 0H39c4-23 8-48 36-47s64 44 74 0h16" id="av"/><g id="r"><use transform="matrix(0.4444444444444444,0,0,0.4444444444444444,0,0)" xlink:href="#au"/><use transform="matrix(0.4444444444444444,0,0,0.4444444444444444,115.1111111111111,0)" xlink:href="#av"/><use transform="matrix(0.4444444444444444,0,0,0.4444444444444444,204,0)" xlink:href="#ac"/></g><path d="M30-248c87 1 191-15 191 75 0 78-77 80-158 76V0H30v-248zm33 125c57 0 124 11 124-50 0-59-68-47-124-48v98" id="aw"/><g id="s"><use transform="matrix(0.4444444444444444,0,0,0.4444444444444444,0,0)" xlink:href="#aw"/><use transform="matrix(0.4444444444444444,0,0,0.4444444444444444,106.66666666666666,0)" xlink:href="#aa"/><use transform="matrix(0.4444444444444444,0,0,0.4444444444444444,159.55555555555554,0)" xlink:href="#ac"/><use transform="matrix(0.4444444444444444,0,0,0.4444444444444444,248.44444444444443,0)" xlink:href="#aq"/><use transform="matrix(0.4444444444444444,0,0,0.4444444444444444,328.44444444444446,0)" xlink:href="#af"/><use transform="matrix(0.4444444444444444,0,0,0.4444444444444444,417.33333333333337,0)" xlink:href="#X"/><use transform="matrix(0.4444444444444444,0,0,0.4444444444444444,497.3333333333334,0)" xlink:href="#X"/><use transform="matrix(0.4444444444444444,0,0,0.4444444444444444,577.3333333333334,0)" xlink:href="#ah"/></g><path d="M30 0v-248h187v28H63v79h144v27H63v87h162V0H30" id="ax"/><path d="M141 0L90-78 38 0H4l68-98-65-92h35l48 74 47-74h35l-64 92 68 98h-35" id="ay"/><path d="M115-194c53 0 69 39 70 98 0 66-23 100-70 100C84 3 66-7 56-30L54 0H23l1-261h32v101c10-23 28-34 59-34zm-8 174c40 0 45-34 45-75 0-40-5-75-45-74-42 0-51 32-51 76 0 43 10 73 51 73" id="az"/><g id="t"><use transform="matrix(0.4444444444444444,0,0,0.4444444444444444,0,0)" xlink:href="#ax"/><use transform="matrix(0.4444444444444444,0,0,0.4444444444444444,106.66666666666666,0)" xlink:href="#ay"/><use transform="matrix(0.4444444444444444,0,0,0.4444444444444444,186.66666666666666,0)" xlink:href="#ab"/><use transform="matrix(0.4444444444444444,0,0,0.4444444444444444,221.77777777777777,0)" xlink:href="#az"/><use transform="matrix(0.4444444444444444,0,0,0.4444444444444444,310.66666666666663,0)" xlink:href="#af"/></g><g id="u"><use transform="matrix(0.4444444444444444,0,0,0.4444444444444444,0,0)" xlink:href="#ae"/><use transform="matrix(0.4444444444444444,0,0,0.4444444444444444,44.44444444444444,0)" xlink:href="#af"/><use transform="matrix(0.4444444444444444,0,0,0.4444444444444444,133.33333333333331,0)" xlink:href="#ap"/><use transform="matrix(0.4444444444444444,0,0,0.4444444444444444,168.44444444444443,0)" xlink:href="#ah"/></g><g id="v"><use transform="matrix(0.4444444444444444,0,0,0.4444444444444444,0,0)" xlink:href="#aq"/><use transform="matrix(0.4444444444444444,0,0,0.4444444444444444,80,0)" xlink:href="#ac"/><use transform="matrix(0.4444444444444444,0,0,0.4444444444444444,168.88888888888889,0)" xlink:href="#ag"/></g><g id="w"><use transform="matrix(0.4444444444444444,0,0,0.4444444444444444,0,0)" xlink:href="#ah"/><use transform="matrix(0.4444444444444444,0,0,0.4444444444444444,88.88888888888889,0)" xlink:href="#X"/></g><g id="x"><use transform="matrix(0.4444444444444444,0,0,0.4444444444444444,0,0)" xlink:href="#ao"/><use transform="matrix(0.4444444444444444,0,0,0.4444444444444444,80,0)" xlink:href="#ab"/><use transform="matrix(0.4444444444444444,0,0,0.4444444444444444,115.1111111111111,0)" xlink:href="#ah"/><use transform="matrix(0.4444444444444444,0,0,0.4444444444444444,204,0)" xlink:href="#ak"/><use transform="matrix(0.4444444444444444,0,0,0.4444444444444444,292.8888888888889,0)" xlink:href="#af"/><use transform="matrix(0.4444444444444444,0,0,0.4444444444444444,381.7777777777778,0)" xlink:href="#aj"/><use transform="matrix(0.4444444444444444,0,0,0.4444444444444444,470.66666666666674,0)" xlink:href="#X"/></g><path d="M34 0v-190h32V0H34zM24-211c8-23 27-35 38-54h36v5l-58 49H24" id="aA"/><g id="y"><use transform="matrix(0.4444444444444444,0,0,0.4444444444444444,0,0)" xlink:href="#am"/><use transform="matrix(0.4444444444444444,0,0,0.4444444444444444,88.88888888888889,0)" xlink:href="#ab"/><use transform="matrix(0.4444444444444444,0,0,0.4444444444444444,124,0)" xlink:href="#X"/><use transform="matrix(0.4444444444444444,0,0,0.4444444444444444,204,0)" xlink:href="#an"/><use transform="matrix(0.4444444444444444,0,0,0.4444444444444444,292.8888888888889,0)" xlink:href="#ac"/><use transform="matrix(0.4444444444444444,0,0,0.4444444444444444,381.7777777777778,0)" xlink:href="#aj"/><use transform="matrix(0.4444444444444444,0,0,0.4444444444444444,470.66666666666674,0)" xlink:href="#aA"/><use transform="matrix(0.4444444444444444,0,0,0.4444444444444444,515.1111111111112,0)" xlink:href="#ao"/><use transform="matrix(0.4444444444444444,0,0,0.4444444444444444,595.1111111111112,0)" xlink:href="#af"/><use transform="matrix(0.4444444444444444,0,0,0.4444444444444444,684.0000000000001,0)" xlink:href="#ab"/><use transform="matrix(0.4444444444444444,0,0,0.4444444444444444,719.1111111111112,0)" xlink:href="#X"/></g><path d="M106-169C34-169 62-67 57 0H25v-261h32l-1 103c12-21 28-36 61-36 89 0 53 116 60 194h-32v-121c2-32-8-49-39-48" id="aB"/><g id="z"><use transform="matrix(0.4444444444444444,0,0,0.4444444444444444,0,0)" xlink:href="#ax"/><use transform="matrix(0.4444444444444444,0,0,0.4444444444444444,106.66666666666666,0)" xlink:href="#X"/><use transform="matrix(0.4444444444444444,0,0,0.4444444444444444,186.66666666666666,0)" xlink:href="#aq"/><use transform="matrix(0.4444444444444444,0,0,0.4444444444444444,266.66666666666663,0)" xlink:href="#ac"/><use transform="matrix(0.4444444444444444,0,0,0.4444444444444444,355.55555555555554,0)" xlink:href="#ap"/><use transform="matrix(0.4444444444444444,0,0,0.4444444444444444,390.66666666666663,0)" xlink:href="#aB"/><use transform="matrix(0.4444444444444444,0,0,0.4444444444444444,479.55555555555554,0)" xlink:href="#af"/></g><g id="A"><use transform="matrix(0.4444444444444444,0,0,0.4444444444444444,0,0)" xlink:href="#an"/><use transform="matrix(0.4444444444444444,0,0,0.4444444444444444,88.88888888888889,0)" xlink:href="#ah"/><use transform="matrix(0.4444444444444444,0,0,0.4444444444444444,177.77777777777777,0)" xlink:href="#X"/><use transform="matrix(0.4444444444444444,0,0,0.4444444444444444,257.77777777777777,0)" xlink:href="#X"/><use transform="matrix(0.4444444444444444,0,0,0.4444444444444444,337.77777777777777,0)" xlink:href="#ah"/><use transform="matrix(0.4444444444444444,0,0,0.4444444444444444,426.66666666666663,0)" xlink:href="#ak"/><use transform="matrix(0.4444444444444444,0,0,0.4444444444444444,515.5555555555555,0)" xlink:href="#af"/><use transform="matrix(0.4444444444444444,0,0,0.4444444444444444,604.4444444444445,0)" xlink:href="#aj"/><use transform="matrix(0.4444444444444444,0,0,0.4444444444444444,693.3333333333334,0)" xlink:href="#X"/></g><g id="B"><use transform="matrix(0.4444444444444444,0,0,0.4444444444444444,0,0)" xlink:href="#ad"/><use transform="matrix(0.4444444444444444,0,0,0.4444444444444444,106.66666666666666,0)" xlink:href="#ac"/><use transform="matrix(0.4444444444444444,0,0,0.4444444444444444,195.55555555555554,0)" xlink:href="#ap"/><use transform="matrix(0.4444444444444444,0,0,0.4444444444444444,230.66666666666666,0)" xlink:href="#ab"/><use transform="matrix(0.4444444444444444,0,0,0.4444444444444444,265.77777777777777,0)" xlink:href="#aq"/><use transform="matrix(0.4444444444444444,0,0,0.4444444444444444,345.77777777777777,0)" xlink:href="#ab"/><use transform="matrix(0.4444444444444444,0,0,0.4444444444444444,380.88888888888886,0)" xlink:href="#ae"/><use transform="matrix(0.4444444444444444,0,0,0.4444444444444444,425.3333333333333,0)" xlink:href="#ah"/></g><path d="M212-179c-10-28-35-45-73-45-59 0-87 40-87 99 0 60 29 101 89 101 43 0 62-24 78-52l27 14C228-24 195 4 139 4 59 4 22-46 18-125c-6-104 99-153 187-111 19 9 31 26 39 46" id="aC"/><g id="C"><use transform="matrix(0.4444444444444444,0,0,0.4444444444444444,0,0)" xlink:href="#aC"/><use transform="matrix(0.4444444444444444,0,0,0.4444444444444444,115.1111111111111,0)" xlink:href="#ac"/><use transform="matrix(0.4444444444444444,0,0,0.4444444444444444,204,0)" xlink:href="#ag"/><use transform="matrix(0.4444444444444444,0,0,0.4444444444444444,336.8888888888889,0)" xlink:href="#an"/><use transform="matrix(0.4444444444444444,0,0,0.4444444444444444,425.7777777777778,0)" xlink:href="#aa"/><use transform="matrix(0.4444444444444444,0,0,0.4444444444444444,478.66666666666674,0)" xlink:href="#ah"/></g><g id="D"><use transform="matrix(0.4444444444444444,0,0,0.4444444444444444,0,0)" xlink:href="#aq"/><use transform="matrix(0.4444444444444444,0,0,0.4444444444444444,80,0)" xlink:href="#ac"/><use transform="matrix(0.4444444444444444,0,0,0.4444444444444444,168.88888888888889,0)" xlink:href="#ag"/><use transform="matrix(0.4444444444444444,0,0,0.4444444444444444,301.77777777777777,0)" xlink:href="#an"/><use transform="matrix(0.4444444444444444,0,0,0.4444444444444444,390.66666666666663,0)" xlink:href="#aa"/><use transform="matrix(0.4444444444444444,0,0,0.4444444444444444,443.55555555555554,0)" xlink:href="#ah"/></g><g id="E"><use transform="matrix(0.4444444444444444,0,0,0.4444444444444444,0,0)" xlink:href="#an"/><use transform="matrix(0.4444444444444444,0,0,0.4444444444444444,88.88888888888889,0)" xlink:href="#ah"/><use transform="matrix(0.4444444444444444,0,0,0.4444444444444444,177.77777777777777,0)" xlink:href="#ak"/><use transform="matrix(0.4444444444444444,0,0,0.4444444444444444,266.66666666666663,0)" xlink:href="#ah"/><use transform="matrix(0.4444444444444444,0,0,0.4444444444444444,355.55555555555554,0)" xlink:href="#ag"/><use transform="matrix(0.4444444444444444,0,0,0.4444444444444444,488.4444444444444,0)" xlink:href="#af"/><use transform="matrix(0.4444444444444444,0,0,0.4444444444444444,577.3333333333334,0)" xlink:href="#aj"/><use transform="matrix(0.4444444444444444,0,0,0.4444444444444444,666.2222222222223,0)" xlink:href="#ae"/><use transform="matrix(0.4444444444444444,0,0,0.4444444444444444,710.6666666666667,0)" xlink:href="#ac"/></g><g id="F"><use transform="matrix(0.4444444444444444,0,0,0.4444444444444444,0,0)" xlink:href="#aw"/><use transform="matrix(0.4444444444444444,0,0,0.4444444444444444,106.66666666666666,0)" xlink:href="#aa"/><use transform="matrix(0.4444444444444444,0,0,0.4444444444444444,159.55555555555554,0)" xlink:href="#af"/><use transform="matrix(0.4444444444444444,0,0,0.4444444444444444,248.44444444444443,0)" xlink:href="#af"/><use transform="matrix(0.4444444444444444,0,0,0.4444444444444444,337.3333333333333,0)" xlink:href="#aj"/><use transform="matrix(0.4444444444444444,0,0,0.4444444444444444,426.2222222222222,0)" xlink:href="#aq"/><use transform="matrix(0.4444444444444444,0,0,0.4444444444444444,506.2222222222222,0)" xlink:href="#aB"/><use transform="matrix(0.4444444444444444,0,0,0.4444444444444444,595.1111111111111,0)" xlink:href="#af"/></g><g id="G"><use transform="matrix(0.4444444444444444,0,0,0.4444444444444444,0,0)" xlink:href="#ac"/><use transform="matrix(0.4444444444444444,0,0,0.4444444444444444,88.88888888888889,0)" xlink:href="#X"/></g><g id="H"><use transform="matrix(0.4444444444444444,0,0,0.4444444444444444,0,0)" xlink:href="#am"/><use transform="matrix(0.4444444444444444,0,0,0.4444444444444444,88.88888888888889,0)" xlink:href="#ah"/><use transform="matrix(0.4444444444444444,0,0,0.4444444444444444,177.77777777777777,0)" xlink:href="#am"/><use transform="matrix(0.4444444444444444,0,0,0.4444444444444444,266.66666666666663,0)" xlink:href="#ac"/><use transform="matrix(0.4444444444444444,0,0,0.4444444444444444,355.55555555555554,0)" xlink:href="#X"/></g><g id="I"><use transform="matrix(0.4444444444444444,0,0,0.4444444444444444,0,0)" xlink:href="#ah"/><use transform="matrix(0.4444444444444444,0,0,0.4444444444444444,88.88888888888889,0)" xlink:href="#X"/><use transform="matrix(0.4444444444444444,0,0,0.4444444444444444,168.88888888888889,0)" xlink:href="#X"/><use transform="matrix(0.4444444444444444,0,0,0.4444444444444444,248.88888888888889,0)" xlink:href="#af"/><use transform="matrix(0.4444444444444444,0,0,0.4444444444444444,337.77777777777777,0)" xlink:href="#aj"/><use transform="matrix(0.4444444444444444,0,0,0.4444444444444444,426.66666666666663,0)" xlink:href="#ae"/><use transform="matrix(0.4444444444444444,0,0,0.4444444444444444,471.1111111111111,0)" xlink:href="#ac"/><use transform="matrix(0.4444444444444444,0,0,0.4444444444444444,560,0)" xlink:href="#X"/></g><g id="J"><use transform="matrix(0.4444444444444444,0,0,0.4444444444444444,0,0)" xlink:href="#ag"/><use transform="matrix(0.4444444444444444,0,0,0.4444444444444444,132.88888888888889,0)" xlink:href="#af"/><use transform="matrix(0.4444444444444444,0,0,0.4444444444444444,221.77777777777777,0)" xlink:href="#ab"/><use transform="matrix(0.4444444444444444,0,0,0.4444444444444444,256.88888888888886,0)" xlink:href="#ac"/></g><path d="M233-177c-1 41-23 64-60 70L243 0h-38l-65-103H63V0H30v-248c88 3 205-21 203 71zM63-129c60-2 137 13 137-47 0-61-80-42-137-45v92" id="aD"/><path d="M9 0v-24l116-142H16v-24h144v24L44-24h123V0H9" id="aE"/><g id="K"><use transform="matrix(0.4444444444444444,0,0,0.4444444444444444,0,0)" xlink:href="#aD"/><use transform="matrix(0.4444444444444444,0,0,0.4444444444444444,115.1111111111111,0)" xlink:href="#af"/><use transform="matrix(0.4444444444444444,0,0,0.4444444444444444,204,0)" xlink:href="#ah"/><use transform="matrix(0.4444444444444444,0,0,0.4444444444444444,292.8888888888889,0)" xlink:href="#ap"/><use transform="matrix(0.4444444444444444,0,0,0.4444444444444444,328,0)" xlink:href="#ab"/><use transform="matrix(0.4444444444444444,0,0,0.4444444444444444,363.1111111111111,0)" xlink:href="#aE"/><use transform="matrix(0.4444444444444444,0,0,0.4444444444444444,443.1111111111111,0)" xlink:href="#ah"/></g><g id="L"><use transform="matrix(0.4444444444444444,0,0,0.4444444444444444,0,0)" xlink:href="#aw"/><use transform="matrix(0.4444444444444444,0,0,0.4444444444444444,106.66666666666666,0)" xlink:href="#ah"/><use transform="matrix(0.4444444444444444,0,0,0.4444444444444444,195.55555555555554,0)" xlink:href="#ak"/><use transform="matrix(0.4444444444444444,0,0,0.4444444444444444,284.44444444444446,0)" xlink:href="#ah"/><use transform="matrix(0.4444444444444444,0,0,0.4444444444444444,373.33333333333337,0)" xlink:href="#ag"/><use transform="matrix(0.4444444444444444,0,0,0.4444444444444444,506.2222222222223,0)" xlink:href="#af"/><use transform="matrix(0.4444444444444444,0,0,0.4444444444444444,595.1111111111112,0)" xlink:href="#aj"/><use transform="matrix(0.4444444444444444,0,0,0.4444444444444444,684.0000000000001,0)" xlink:href="#ae"/><use transform="matrix(0.4444444444444444,0,0,0.4444444444444444,728.4444444444446,0)" xlink:href="#ac"/></g><path d="M16-82v-28h88v28H16" id="aF"/><g id="M"><use transform="matrix(0.4444444444444444,0,0,0.4444444444444444,0,0)" xlink:href="#ax"/><use transform="matrix(0.4444444444444444,0,0,0.4444444444444444,106.66666666666666,0)" xlink:href="#aF"/><use transform="matrix(0.4444444444444444,0,0,0.4444444444444444,159.55555555555554,0)" xlink:href="#ag"/><use transform="matrix(0.4444444444444444,0,0,0.4444444444444444,292.44444444444446,0)" xlink:href="#ah"/><use transform="matrix(0.4444444444444444,0,0,0.4444444444444444,381.33333333333337,0)" xlink:href="#ab"/><use transform="matrix(0.4444444444444444,0,0,0.4444444444444444,416.44444444444446,0)" xlink:href="#ap"/></g><path d="M101-234c-31-9-42 10-38 44h38v23H63V0H32v-167H5v-23h27c-7-52 17-82 69-68v24" id="aG"/><path d="M96-169c-40 0-48 33-48 73s9 75 48 75c24 0 41-14 43-38l32 2c-6 37-31 61-74 61-59 0-76-41-82-99-10-93 101-131 147-64 4 7 5 14 7 22l-32 3c-4-21-16-35-41-35zm3 187c19-1 33 8 33 26 0 31-30 33-64 32V58c18 2 39 4 41-13 1-15-18-13-34-13L87 0h19" id="aH"/><g id="N"><use transform="matrix(0.4444444444444444,0,0,0.4444444444444444,0,0)" xlink:href="#aq"/><use transform="matrix(0.4444444444444444,0,0,0.4444444444444444,80,0)" xlink:href="#ac"/><use transform="matrix(0.4444444444444444,0,0,0.4444444444444444,168.88888888888889,0)" xlink:href="#aj"/><use transform="matrix(0.4444444444444444,0,0,0.4444444444444444,257.77777777777777,0)" xlink:href="#aG"/><use transform="matrix(0.4444444444444444,0,0,0.4444444444444444,302.22222222222223,0)" xlink:href="#ab"/><use transform="matrix(0.4444444444444444,0,0,0.4444444444444444,337.3333333333333,0)" xlink:href="#aa"/><use transform="matrix(0.4444444444444444,0,0,0.4444444444444444,390.2222222222222,0)" xlink:href="#ag"/><use transform="matrix(0.4444444444444444,0,0,0.4444444444444444,523.1111111111111,0)" xlink:href="#ah"/><use transform="matrix(0.4444444444444444,0,0,0.4444444444444444,612,0)" xlink:href="#aH"/><use transform="matrix(0.4444444444444444,0,0,0.4444444444444444,692,0)" xlink:href="#av"/><use transform="matrix(0.4444444444444444,0,0,0.4444444444444444,780.8888888888889,0)" xlink:href="#ac"/></g><g id="O"><use transform="matrix(0.4444444444444444,0,0,0.4444444444444444,0,0)" xlink:href="#aq"/><use transform="matrix(0.4444444444444444,0,0,0.4444444444444444,80,0)" xlink:href="#ah"/><use transform="matrix(0.4444444444444444,0,0,0.4444444444444444,168.88888888888889,0)" xlink:href="#am"/><use transform="matrix(0.4444444444444444,0,0,0.4444444444444444,257.77777777777777,0)" xlink:href="#ah"/><use transform="matrix(0.4444444444444444,0,0,0.4444444444444444,346.66666666666663,0)" xlink:href="#X"/><use transform="matrix(0.4444444444444444,0,0,0.4444444444444444,426.66666666666663,0)" xlink:href="#ae"/><use transform="matrix(0.4444444444444444,0,0,0.4444444444444444,471.1111111111111,0)" xlink:href="#aa"/><use transform="matrix(0.4444444444444444,0,0,0.4444444444444444,524,0)" xlink:href="#ac"/></g><g id="P"><use transform="matrix(0.4444444444444444,0,0,0.4444444444444444,0,0)" xlink:href="#am"/><use transform="matrix(0.4444444444444444,0,0,0.4444444444444444,88.88888888888889,0)" xlink:href="#af"/></g><g id="Q"><use transform="matrix(0.4444444444444444,0,0,0.4444444444444444,0,0)" xlink:href="#aG"/><use transform="matrix(0.4444444444444444,0,0,0.4444444444444444,44.44444444444444,0)" xlink:href="#ah"/><use transform="matrix(0.4444444444444444,0,0,0.4444444444444444,133.33333333333331,0)" xlink:href="#ap"/><use transform="matrix(0.4444444444444444,0,0,0.4444444444444444,168.44444444444443,0)" xlink:href="#aB"/><use transform="matrix(0.4444444444444444,0,0,0.4444444444444444,257.3333333333333,0)" xlink:href="#ah"/></g><g id="R"><use transform="matrix(0.4444444444444444,0,0,0.4444444444444444,0,0)" xlink:href="#aC"/><use transform="matrix(0.4444444444444444,0,0,0.4444444444444444,115.1111111111111,0)" xlink:href="#ah"/><use transform="matrix(0.4444444444444444,0,0,0.4444444444444444,204,0)" xlink:href="#am"/><use transform="matrix(0.4444444444444444,0,0,0.4444444444444444,292.8888888888889,0)" xlink:href="#ah"/><use transform="matrix(0.4444444444444444,0,0,0.4444444444444444,381.7777777777778,0)" xlink:href="#X"/><use transform="matrix(0.4444444444444444,0,0,0.4444444444444444,461.7777777777778,0)" xlink:href="#ae"/><use transform="matrix(0.4444444444444444,0,0,0.4444444444444444,506.2222222222223,0)" xlink:href="#aa"/><use transform="matrix(0.4444444444444444,0,0,0.4444444444444444,559.1111111111112,0)" xlink:href="#ac"/></g><path d="M240 0l2-218c-23 76-54 145-80 218h-23L58-218 59 0H30v-248h44l77 211c21-75 51-140 76-211h43V0h-30" id="aI"/><g id="S"><use transform="matrix(0.4444444444444444,0,0,0.4444444444444444,0,0)" xlink:href="#as"/><use transform="matrix(0.4444444444444444,0,0,0.4444444444444444,44.44444444444444,0)" xlink:href="#aI"/><use transform="matrix(0.4444444444444444,0,0,0.4444444444444444,177.33333333333331,0)" xlink:href="#af"/><use transform="matrix(0.4444444444444444,0,0,0.4444444444444444,266.2222222222222,0)" xlink:href="#ab"/><use transform="matrix(0.4444444444444444,0,0,0.4444444444444444,301.33333333333326,0)" xlink:href="#ac"/></g><g id="T"><use transform="matrix(0.4444444444444444,0,0,0.4444444444444444,0,0)" xlink:href="#aq"/><use transform="matrix(0.4444444444444444,0,0,0.4444444444444444,80,0)" xlink:href="#ah"/><use transform="matrix(0.4444444444444444,0,0,0.4444444444444444,168.88888888888889,0)" xlink:href="#am"/><use transform="matrix(0.4444444444444444,0,0,0.4444444444444444,257.77777777777777,0)" xlink:href="#ah"/><use transform="matrix(0.4444444444444444,0,0,0.4444444444444444,346.66666666666663,0)" xlink:href="#X"/><use transform="matrix(0.4444444444444444,0,0,0.4444444444444444,426.66666666666663,0)" xlink:href="#ae"/><use transform="matrix(0.4444444444444444,0,0,0.4444444444444444,471.1111111111111,0)" xlink:href="#aa"/><use transform="matrix(0.4444444444444444,0,0,0.4444444444444444,524,0)" xlink:href="#ah"/><use transform="matrix(0.4444444444444444,0,0,0.4444444444444444,612.8888888888889,0)" xlink:href="#am"/><use transform="matrix(0.4444444444444444,0,0,0.4444444444444444,701.7777777777778,0)" xlink:href="#ac"/><use transform="matrix(0.4444444444444444,0,0,0.4444444444444444,790.6666666666667,0)" xlink:href="#at"/></g><g id="U"><use transform="matrix(0.4444444444444444,0,0,0.4444444444444444,0,0)" xlink:href="#as"/><use transform="matrix(0.4444444444444444,0,0,0.4444444444444444,44.44444444444444,0)" xlink:href="#aw"/><use transform="matrix(0.4444444444444444,0,0,0.4444444444444444,151.1111111111111,0)" xlink:href="#ah"/><use transform="matrix(0.4444444444444444,0,0,0.4444444444444444,240,0)" xlink:href="#ak"/><use transform="matrix(0.4444444444444444,0,0,0.4444444444444444,328.88888888888886,0)" xlink:href="#ah"/><use transform="matrix(0.4444444444444444,0,0,0.4444444444444444,417.7777777777777,0)" xlink:href="#ag"/><use transform="matrix(0.4444444444444444,0,0,0.4444444444444444,550.6666666666666,0)" xlink:href="#af"/><use transform="matrix(0.4444444444444444,0,0,0.4444444444444444,639.5555555555555,0)" xlink:href="#aj"/><use transform="matrix(0.4444444444444444,0,0,0.4444444444444444,728.4444444444445,0)" xlink:href="#ae"/><use transform="matrix(0.4444444444444444,0,0,0.4444444444444444,772.8888888888889,0)" xlink:href="#ac"/></g><path d="M205 0l-28-72H64L36 0H1l101-248h38L239 0h-34zm-38-99l-47-123c-12 45-31 82-46 123h93" id="aJ"/><g id="V"><use transform="matrix(0.4444444444444444,0,0,0.4444444444444444,0,0)" xlink:href="#aJ"/><use transform="matrix(0.4444444444444444,0,0,0.4444444444444444,106.66666666666666,0)" xlink:href="#an"/><use transform="matrix(0.4444444444444444,0,0,0.4444444444444444,195.55555555555554,0)" xlink:href="#aa"/><use transform="matrix(0.4444444444444444,0,0,0.4444444444444444,248.44444444444443,0)" xlink:href="#ac"/><use transform="matrix(0.4444444444444444,0,0,0.4444444444444444,337.3333333333333,0)" xlink:href="#ao"/><use transform="matrix(0.4444444444444444,0,0,0.4444444444444444,417.3333333333333,0)" xlink:href="#ah"/><use transform="matrix(0.4444444444444444,0,0,0.4444444444444444,506.2222222222222,0)" xlink:href="#am"/><use transform="matrix(0.4444444444444444,0,0,0.4444444444444444,595.1111111111111,0)" xlink:href="#ac"/><use transform="matrix(0.4444444444444444,0,0,0.4444444444444444,684,0)" xlink:href="#at"/></g></defs></g></svg>