<svg xmlns="http://www.w3.org/2000/svg" xmlns:xlink="http://www.w3.org/1999/xlink" xmlns:lucid="lucid" width="9610" height="6070"><g transform="translate(-8335 25745)" lucid:page-tab-id="gVy4YR89Tzdw"><path d="M8000-26000h10000v6500H8000z" fill="#fff"/><path d="M8360-25220v-492a8 8 0 0 1 8-8h5612v500zM13980-25720h3932a8 8 0 0 1 8 8v492h-3940zM13980-19700H8368a8 8 0 0 1-8-8v-5512h5620zM17920-25220v5512a8 8 0 0 1-8 8h-3932v-5520z" stroke="#000" stroke-width="10" fill="#fff"/><use xlink:href="#a" transform="matrix(1,0,0,1,8360,-25720) translate(2535.1111111111113 282)"/><use xlink:href="#b" transform="matrix(1,0,0,1,13980,-25720) translate(1681.5555555555557 282)"/><path d="M11370-24680c0 110.46-89.54 200-200 200s-200-89.54-200-200 89.54-200 200-200 200 89.54 200 200z" stroke="#000" stroke-width="10"/><path d="M10512.67-23130c-64.07 0-116 51.94-116 116v348c0 64.06 51.93 116 116 116h1314.66c64.07 0 116-51.94 116-116v-348c0-64.06-51.93-116-116-116z" stroke="#000" stroke-width="10" fill="#fff"/><use xlink:href="#c" transform="matrix(1,0,0,1,10404.666666666668,-23122) translate(192.3888888888889 218)"/><use xlink:href="#d" transform="matrix(1,0,0,1,10404.666666666668,-23122) translate(680.8333333333334 218)"/><use xlink:href="#e" transform="matrix(1,0,0,1,10404.666666666668,-23122) translate(1160.8333333333335 218)"/><use xlink:href="#f" transform="matrix(1,0,0,1,10404.666666666668,-23122) translate(423.5 410)"/><path d="M15292.67-23960c-64.07 0-116 51.94-116 116v348c0 64.06 51.93 116 116 116h1314.66c64.07 0 116-51.94 116-116v-348c0-64.06-51.93-116-116-116z" stroke="#000" stroke-width="10" fill="#fff"/><use xlink:href="#g" transform="matrix(1,0,0,1,15184.666666666668,-23952) translate(85.72222222222217 314)"/><use xlink:href="#h" transform="matrix(1,0,0,1,15184.666666666668,-23952) translate(796.3888888888889 314)"/><use xlink:href="#i" transform="matrix(1,0,0,1,15184.666666666668,-23952) translate(1009.7222222222222 314)"/><path d="M10512.67-22110c-64.07 0-116 51.94-116 116v348c0 64.06 51.93 116 116 116h1314.66c64.07 0 116-51.94 116-116v-348c0-64.06-51.93-116-116-116z" stroke="#000" stroke-width="10" fill="#fff"/><use xlink:href="#j" transform="matrix(1,0,0,1,10404.666666666668,-22102) translate(28.388888888888914 314)"/><use xlink:href="#k" transform="matrix(1,0,0,1,10404.666666666668,-22102) translate(685.2777777777778 314)"/><use xlink:href="#f" transform="matrix(1,0,0,1,10404.666666666668,-22102) translate(818.6111111111111 314)"/><path d="M11170-22540v389.55" stroke="#333" stroke-width="10" fill="none"/><path d="M11174.98-22539.87h-9.95v-5.13h9.94z" stroke="#333" stroke-width=".05" fill="#333"/><path d="M11170-22131.18l-4.64-14.27h9.27z" stroke="#333" stroke-width="10" fill="#333"/><path d="M11953.33-21820H13548a12 12 0 0 0 12-12v-1826a12 12 0 0 1 12-12h1564.22" stroke="#333" stroke-width="10" fill="none"/><path d="M11953.46-21815.03h-5.13v-9.94h5.13z" stroke="#333" stroke-width=".05" fill="#333"/><path d="M15155.5-23670l-14.28 4.63v-9.26z" stroke="#333" stroke-width="10" fill="#333"/><path d="M15292.67-22703.85c-64.07 0-116 51.93-116 116v348c0 64.06 51.93 116 116 116h1314.66c64.07 0 116-51.94 116-116v-348c0-64.07-51.93-116-116-116z" stroke="#000" stroke-width="10" fill="#fff"/><use xlink:href="#l" transform="matrix(1,0,0,1,15184.666666666668,-22695.851781055764) translate(10.611111111111086 314)"/><use xlink:href="#m" transform="matrix(1,0,0,1,15184.666666666668,-22695.851781055764) translate(703.0555555555557 314)"/><use xlink:href="#n" transform="matrix(1,0,0,1,15184.666666666668,-22695.851781055764) translate(836.3888888888889 314)"/><path d="M15950-23370v625.7" stroke="#333" stroke-width="10" fill="none"/><path d="M15954.98-23369.87h-9.95v-5.13h9.94z" stroke="#333" stroke-width=".05" fill="#333"/><path d="M15950-22725.03l-4.64-14.27h9.27z" stroke="#333" stroke-width="10" fill="#333"/><path d="M15316-21780c-64.07 0-116 51.94-116 116v348c0 64.06 51.93 116 116 116h1314.67c64.06 0 116-51.94 116-116v-348c0-64.06-51.94-116-116-116z" stroke="#000" stroke-width="10" fill="#fff"/><use xlink:href="#o" transform="matrix(1,0,0,1,15208,-21772) translate(23.72222222222217 218)"/><use xlink:href="#m" transform="matrix(1,0,0,1,15208,-21772) translate(467.7222222222222 218)"/><use xlink:href="#p" transform="matrix(1,0,0,1,15208,-21772) translate(601.0555555555554 218)"/><use xlink:href="#q" transform="matrix(1,0,0,1,15208,-21772) translate(1329.5 218)"/><use xlink:href="#r" transform="matrix(1,0,0,1,15208,-21772) translate(619.2777777777778 410)"/><path d="M15950-22113.85v293.4" stroke="#333" stroke-width="10" fill="none"/><path d="M15954.98-22113.72h-9.95v-5.13h9.94z" stroke="#333" stroke-width=".05" fill="#333"/><path d="M15950-21801.18l-4.64-14.27h9.27z" stroke="#333" stroke-width="10" fill="#333"/><path d="M16173.33-20600c0 110.46-89.54 200-200 200-110.45 0-200-89.54-200-200s89.55-200 200-200c110.46 0 200 89.54 200 200z" stroke="#000" stroke-width="10" fill="#fff"/><path d="M16093.33-20600c0 66.27-53.72 120-120 120-66.27 0-120-53.73-120-120 0-66.27 53.73-120 120-120 66.28 0 120 53.73 120 120z" stroke="#000" stroke-width="10"/><path d="M15973.33-21190v349.55" stroke="#333" stroke-width="10" fill="none"/><path d="M15978.3-21189.87h-9.94v-5.13h9.95z" stroke="#333" stroke-width=".05" fill="#333"/><path d="M15973.33-20821.18l-4.63-14.27h9.27z" stroke="#333" stroke-width="10" fill="#333"/><path d="M10512.67-24100c-64.07 0-116 51.94-116 116v348c0 64.06 51.93 116 116 116h1314.66c64.07 0 116-51.94 116-116v-348c0-64.06-51.93-116-116-116z" stroke="#000" stroke-width="10" fill="#fff"/><g><use xlink:href="#s" transform="matrix(1,0,0,1,10404.666666666668,-24092) translate(352.3888888888889 314)"/><use xlink:href="#t" transform="matrix(1,0,0,1,10404.666666666668,-24092) translate(921.2777777777778 314)"/></g><path d="M11170-24470v329.55" stroke="#333" stroke-width="10" fill="none"/><path d="M11169.97-24475l4.43-.05.58-.02v5.2h-9.95v-5.23z" stroke="#333" stroke-width=".05" fill="#333"/><path d="M11170-24121.18l-4.64-14.27h9.27z" stroke="#333" stroke-width="10" fill="#333"/><path d="M11170-23510v339.55" stroke="#333" stroke-width="10" fill="none"/><path d="M11174.98-23509.87h-9.95v-5.13h9.94z" stroke="#333" stroke-width=".05" fill="#333"/><path d="M11170-23151.18l-4.64-14.27h9.27z" stroke="#333" stroke-width="10" fill="#333"/><defs><path d="M232-93c-1 65-40 97-104 97C67 4 28-28 28-90v-158h33c8 89-33 224 67 224 102 0 64-133 71-224h33v155" id="u"/><path d="M135-143c-3-34-86-38-87 0 15 53 115 12 119 90S17 21 10-45l28-5c4 36 97 45 98 0-10-56-113-15-118-90-4-57 82-63 122-42 12 7 21 19 24 35" id="v"/><path d="M84 4C-5 8 30-112 23-190h32v120c0 31 7 50 39 49 72-2 45-101 50-169h31l1 190h-30c-1-10 1-25-2-33-11 22-28 36-60 37" id="w"/><path d="M141-36C126-15 110 5 73 4 37 3 15-17 15-53c-1-64 63-63 125-63 3-35-9-54-41-54-24 1-41 7-42 31l-33-3c5-37 33-52 76-52 45 0 72 20 72 64v82c-1 20 7 32 28 27v20c-31 9-61-2-59-35zM48-53c0 20 12 33 32 33 41-3 63-29 60-74-43 2-92-5-92 41zm25-158c8-23 27-35 38-54h36v5l-58 49H73" id="x"/><path d="M114-163C36-179 61-72 57 0H25l-1-190h30c1 12-1 29 2 39 6-27 23-49 58-41v29" id="y"/><path d="M24-231v-30h32v30H24zM24 0v-190h32V0H24" id="z"/><path d="M100-194c62-1 85 37 85 99 1 63-27 99-86 99S16-35 15-95c0-66 28-99 85-99zM99-20c44 1 53-31 53-75 0-43-8-75-51-75s-53 32-53 75 10 74 51 75" id="A"/><g id="a"><use transform="matrix(0.4444444444444444,0,0,0.4444444444444444,0,0)" xlink:href="#u"/><use transform="matrix(0.4444444444444444,0,0,0.4444444444444444,115.1111111111111,0)" xlink:href="#v"/><use transform="matrix(0.4444444444444444,0,0,0.4444444444444444,195.1111111111111,0)" xlink:href="#w"/><use transform="matrix(0.4444444444444444,0,0,0.4444444444444444,284,0)" xlink:href="#x"/><use transform="matrix(0.4444444444444444,0,0,0.4444444444444444,372.8888888888889,0)" xlink:href="#y"/><use transform="matrix(0.4444444444444444,0,0,0.4444444444444444,425.7777777777778,0)" xlink:href="#z"/><use transform="matrix(0.4444444444444444,0,0,0.4444444444444444,460.88888888888897,0)" xlink:href="#A"/></g><path d="M185-189c-5-48-123-54-124 2 14 75 158 14 163 119 3 78-121 87-175 55-17-10-28-26-33-46l33-7c5 56 141 63 141-1 0-78-155-14-162-118-5-82 145-84 179-34 5 7 8 16 11 25" id="B"/><path d="M59-47c-2 24 18 29 38 22v24C64 9 27 4 27-40v-127H5v-23h24l9-43h21v43h35v23H59v120" id="C"/><path d="M100-194c63 0 86 42 84 106H49c0 40 14 67 53 68 26 1 43-12 49-29l28 8c-11 28-37 45-77 45C44 4 14-33 15-96c1-61 26-98 85-98zm52 81c6-60-76-77-97-28-3 7-6 17-6 28h103" id="D"/><path d="M210-169c-67 3-38 105-44 169h-31v-121c0-29-5-50-35-48C34-165 62-65 56 0H25l-1-190h30c1 10-1 24 2 32 10-44 99-50 107 0 11-21 27-35 58-36 85-2 47 119 55 194h-31v-121c0-29-5-49-35-48" id="E"/><path d="M141-36C126-15 110 5 73 4 37 3 15-17 15-53c-1-64 63-63 125-63 3-35-9-54-41-54-24 1-41 7-42 31l-33-3c5-37 33-52 76-52 45 0 72 20 72 64v82c-1 20 7 32 28 27v20c-31 9-61-2-59-35zM48-53c0 20 12 33 32 33 41-3 63-29 60-74-43 2-92-5-92 41" id="F"/><g id="b"><use transform="matrix(0.4444444444444444,0,0,0.4444444444444444,0,0)" xlink:href="#B"/><use transform="matrix(0.4444444444444444,0,0,0.4444444444444444,106.66666666666666,0)" xlink:href="#z"/><use transform="matrix(0.4444444444444444,0,0,0.4444444444444444,141.77777777777777,0)" xlink:href="#v"/><use transform="matrix(0.4444444444444444,0,0,0.4444444444444444,221.77777777777777,0)" xlink:href="#C"/><use transform="matrix(0.4444444444444444,0,0,0.4444444444444444,266.22222222222223,0)" xlink:href="#D"/><use transform="matrix(0.4444444444444444,0,0,0.4444444444444444,355.1111111111111,0)" xlink:href="#E"/><use transform="matrix(0.4444444444444444,0,0,0.4444444444444444,488,0)" xlink:href="#F"/></g><path d="M33 0v-248h34V0H33" id="G"/><path d="M117-194c89-4 53 116 60 194h-32v-121c0-31-8-49-39-48C34-167 62-67 57 0H25l-1-190h30c1 10-1 24 2 32 11-22 29-35 61-36" id="H"/><g id="c"><use transform="matrix(0.4444444444444444,0,0,0.4444444444444444,0,0)" xlink:href="#G"/><use transform="matrix(0.4444444444444444,0,0,0.4444444444444444,44.44444444444444,0)" xlink:href="#H"/><use transform="matrix(0.4444444444444444,0,0,0.4444444444444444,133.33333333333331,0)" xlink:href="#v"/><use transform="matrix(0.4444444444444444,0,0,0.4444444444444444,213.33333333333331,0)" xlink:href="#D"/><use transform="matrix(0.4444444444444444,0,0,0.4444444444444444,302.2222222222222,0)" xlink:href="#y"/><use transform="matrix(0.4444444444444444,0,0,0.4444444444444444,355.1111111111111,0)" xlink:href="#D"/></g><path d="M85-194c31 0 48 13 60 33l-1-100h32l1 261h-30c-2-10 0-23-3-31C134-8 116 4 85 4 32 4 16-35 15-94c0-66 23-100 70-100zm9 24c-40 0-46 34-46 75 0 40 6 74 45 74 42 0 51-32 51-76 0-42-9-74-50-73" id="I"/><g id="d"><use transform="matrix(0.4444444444444444,0,0,0.4444444444444444,0,0)" xlink:href="#I"/><use transform="matrix(0.4444444444444444,0,0,0.4444444444444444,88.88888888888889,0)" xlink:href="#F"/><use transform="matrix(0.4444444444444444,0,0,0.4444444444444444,177.77777777777777,0)" xlink:href="#I"/><use transform="matrix(0.4444444444444444,0,0,0.4444444444444444,266.66666666666663,0)" xlink:href="#A"/><use transform="matrix(0.4444444444444444,0,0,0.4444444444444444,355.55555555555554,0)" xlink:href="#v"/></g><g id="e"><use transform="matrix(0.4444444444444444,0,0,0.4444444444444444,0,0)" xlink:href="#I"/><use transform="matrix(0.4444444444444444,0,0,0.4444444444444444,88.88888888888889,0)" xlink:href="#F"/></g><path d="M205 0l-28-72H64L36 0H1l101-248h38L239 0h-34zm-38-99l-47-123c-12 45-31 82-46 123h93" id="J"/><path d="M108 0H70L1-190h34L89-25l56-165h34" id="K"/><g id="f"><use transform="matrix(0.4444444444444444,0,0,0.4444444444444444,0,0)" xlink:href="#J"/><use transform="matrix(0.4444444444444444,0,0,0.4444444444444444,106.66666666666666,0)" xlink:href="#D"/><use transform="matrix(0.4444444444444444,0,0,0.4444444444444444,195.55555555555554,0)" xlink:href="#y"/><use transform="matrix(0.4444444444444444,0,0,0.4444444444444444,248.44444444444443,0)" xlink:href="#A"/><use transform="matrix(0.4444444444444444,0,0,0.4444444444444444,337.3333333333333,0)" xlink:href="#H"/><use transform="matrix(0.4444444444444444,0,0,0.4444444444444444,426.2222222222222,0)" xlink:href="#F"/><use transform="matrix(0.4444444444444444,0,0,0.4444444444444444,515.1111111111111,0)" xlink:href="#K"/><use transform="matrix(0.4444444444444444,0,0,0.4444444444444444,595.1111111111111,0)" xlink:href="#D"/></g><path d="M30-248c87 1 191-15 191 75 0 78-77 80-158 76V0H30v-248zm33 125c57 0 124 11 124-50 0-59-68-47-124-48v98" id="L"/><path d="M96-169c-40 0-48 33-48 73s9 75 48 75c24 0 41-14 43-38l32 2c-6 37-31 61-74 61-59 0-76-41-82-99-10-93 101-131 147-64 4 7 5 14 7 22l-32 3c-4-21-16-35-41-35" id="M"/><g id="g"><use transform="matrix(0.4444444444444444,0,0,0.4444444444444444,0,0)" xlink:href="#L"/><use transform="matrix(0.4444444444444444,0,0,0.4444444444444444,106.66666666666666,0)" xlink:href="#y"/><use transform="matrix(0.4444444444444444,0,0,0.4444444444444444,159.55555555555554,0)" xlink:href="#A"/><use transform="matrix(0.4444444444444444,0,0,0.4444444444444444,248.44444444444443,0)" xlink:href="#M"/><use transform="matrix(0.4444444444444444,0,0,0.4444444444444444,328.44444444444446,0)" xlink:href="#D"/><use transform="matrix(0.4444444444444444,0,0,0.4444444444444444,417.33333333333337,0)" xlink:href="#v"/><use transform="matrix(0.4444444444444444,0,0,0.4444444444444444,497.3333333333334,0)" xlink:href="#v"/><use transform="matrix(0.4444444444444444,0,0,0.4444444444444444,577.3333333333334,0)" xlink:href="#F"/></g><g id="h"><use transform="matrix(0.4444444444444444,0,0,0.4444444444444444,0,0)" xlink:href="#A"/><use transform="matrix(0.4444444444444444,0,0,0.4444444444444444,88.88888888888889,0)" xlink:href="#v"/></g><g id="i"><use transform="matrix(0.4444444444444444,0,0,0.4444444444444444,0,0)" xlink:href="#I"/><use transform="matrix(0.4444444444444444,0,0,0.4444444444444444,88.88888888888889,0)" xlink:href="#F"/><use transform="matrix(0.4444444444444444,0,0,0.4444444444444444,177.77777777777777,0)" xlink:href="#I"/><use transform="matrix(0.4444444444444444,0,0,0.4444444444444444,266.66666666666663,0)" xlink:href="#A"/><use transform="matrix(0.4444444444444444,0,0,0.4444444444444444,355.55555555555554,0)" xlink:href="#v"/></g><g id="j"><use transform="matrix(0.4444444444444444,0,0,0.4444444444444444,0,0)" xlink:href="#J"/><use transform="matrix(0.4444444444444444,0,0,0.4444444444444444,106.66666666666666,0)" xlink:href="#I"/><use transform="matrix(0.4444444444444444,0,0,0.4444444444444444,195.55555555555554,0)" xlink:href="#z"/><use transform="matrix(0.4444444444444444,0,0,0.4444444444444444,230.66666666666666,0)" xlink:href="#M"/><use transform="matrix(0.4444444444444444,0,0,0.4444444444444444,310.66666666666663,0)" xlink:href="#z"/><use transform="matrix(0.4444444444444444,0,0,0.4444444444444444,345.7777777777777,0)" xlink:href="#A"/><use transform="matrix(0.4444444444444444,0,0,0.4444444444444444,434.66666666666663,0)" xlink:href="#H"/><use transform="matrix(0.4444444444444444,0,0,0.4444444444444444,523.5555555555555,0)" xlink:href="#F"/></g><use transform="matrix(0.4444444444444444,0,0,0.4444444444444444,0,0)" xlink:href="#F" id="k"/><path d="M212-179c-10-28-35-45-73-45-59 0-87 40-87 99 0 60 29 101 89 101 43 0 62-24 78-52l27 14C228-24 195 4 139 4 59 4 22-46 18-125c-6-104 99-153 187-111 19 9 31 26 39 46" id="N"/><g id="l"><use transform="matrix(0.4444444444444444,0,0,0.4444444444444444,0,0)" xlink:href="#N"/><use transform="matrix(0.4444444444444444,0,0,0.4444444444444444,115.1111111111111,0)" xlink:href="#F"/><use transform="matrix(0.4444444444444444,0,0,0.4444444444444444,204,0)" xlink:href="#I"/><use transform="matrix(0.4444444444444444,0,0,0.4444444444444444,292.8888888888889,0)" xlink:href="#F"/><use transform="matrix(0.4444444444444444,0,0,0.4444444444444444,381.7777777777778,0)" xlink:href="#v"/><use transform="matrix(0.4444444444444444,0,0,0.4444444444444444,461.7777777777778,0)" xlink:href="#C"/><use transform="matrix(0.4444444444444444,0,0,0.4444444444444444,506.2222222222223,0)" xlink:href="#y"/><use transform="matrix(0.4444444444444444,0,0,0.4444444444444444,559.1111111111112,0)" xlink:href="#F"/></g><use transform="matrix(0.4444444444444444,0,0,0.4444444444444444,0,0)" xlink:href="#F" id="m"/><g id="n"><use transform="matrix(0.4444444444444444,0,0,0.4444444444444444,0,0)" xlink:href="#J"/><use transform="matrix(0.4444444444444444,0,0,0.4444444444444444,106.66666666666666,0)" xlink:href="#D"/><use transform="matrix(0.4444444444444444,0,0,0.4444444444444444,195.55555555555554,0)" xlink:href="#y"/><use transform="matrix(0.4444444444444444,0,0,0.4444444444444444,248.44444444444443,0)" xlink:href="#A"/><use transform="matrix(0.4444444444444444,0,0,0.4444444444444444,337.3333333333333,0)" xlink:href="#H"/><use transform="matrix(0.4444444444444444,0,0,0.4444444444444444,426.2222222222222,0)" xlink:href="#F"/><use transform="matrix(0.4444444444444444,0,0,0.4444444444444444,515.1111111111111,0)" xlink:href="#K"/><use transform="matrix(0.4444444444444444,0,0,0.4444444444444444,595.1111111111111,0)" xlink:href="#D"/></g><path d="M30 0v-248h187v28H63v79h144v27H63v87h162V0H30" id="O"/><path d="M141 0L90-78 38 0H4l68-98-65-92h35l48 74 47-74h35l-64 92 68 98h-35" id="P"/><path d="M115-194c53 0 69 39 70 98 0 66-23 100-70 100C84 3 66-7 56-30L54 0H23l1-261h32v101c10-23 28-34 59-34zm-8 174c40 0 45-34 45-75 0-40-5-75-45-74-42 0-51 32-51 76 0 43 10 73 51 73" id="Q"/><g id="o"><use transform="matrix(0.4444444444444444,0,0,0.4444444444444444,0,0)" xlink:href="#O"/><use transform="matrix(0.4444444444444444,0,0,0.4444444444444444,106.66666666666666,0)" xlink:href="#P"/><use transform="matrix(0.4444444444444444,0,0,0.4444444444444444,186.66666666666666,0)" xlink:href="#z"/><use transform="matrix(0.4444444444444444,0,0,0.4444444444444444,221.77777777777777,0)" xlink:href="#Q"/><use transform="matrix(0.4444444444444444,0,0,0.4444444444444444,310.66666666666663,0)" xlink:href="#D"/></g><g id="p"><use transform="matrix(0.4444444444444444,0,0,0.4444444444444444,0,0)" xlink:href="#J"/><use transform="matrix(0.4444444444444444,0,0,0.4444444444444444,106.66666666666666,0)" xlink:href="#D"/><use transform="matrix(0.4444444444444444,0,0,0.4444444444444444,195.55555555555554,0)" xlink:href="#y"/><use transform="matrix(0.4444444444444444,0,0,0.4444444444444444,248.44444444444443,0)" xlink:href="#A"/><use transform="matrix(0.4444444444444444,0,0,0.4444444444444444,337.3333333333333,0)" xlink:href="#H"/><use transform="matrix(0.4444444444444444,0,0,0.4444444444444444,426.2222222222222,0)" xlink:href="#F"/><use transform="matrix(0.4444444444444444,0,0,0.4444444444444444,515.1111111111111,0)" xlink:href="#K"/><use transform="matrix(0.4444444444444444,0,0,0.4444444444444444,595.1111111111111,0)" xlink:href="#D"/></g><g id="q"><use transform="matrix(0.4444444444444444,0,0,0.4444444444444444,0,0)" xlink:href="#H"/><use transform="matrix(0.4444444444444444,0,0,0.4444444444444444,88.88888888888889,0)" xlink:href="#F"/></g><path d="M127-220V0H93v-220H8v-28h204v28h-85" id="R"/><path d="M24 0v-261h32V0H24" id="S"/><g id="r"><use transform="matrix(0.4444444444444444,0,0,0.4444444444444444,0,0)" xlink:href="#R"/><use transform="matrix(0.4444444444444444,0,0,0.4444444444444444,79.55555555555554,0)" xlink:href="#D"/><use transform="matrix(0.4444444444444444,0,0,0.4444444444444444,168.44444444444443,0)" xlink:href="#S"/><use transform="matrix(0.4444444444444444,0,0,0.4444444444444444,203.55555555555554,0)" xlink:href="#F"/></g><g id="s"><use transform="matrix(0.4444444444444444,0,0,0.4444444444444444,0,0)" xlink:href="#J"/><use transform="matrix(0.4444444444444444,0,0,0.4444444444444444,106.66666666666666,0)" xlink:href="#M"/><use transform="matrix(0.4444444444444444,0,0,0.4444444444444444,186.66666666666666,0)" xlink:href="#D"/><use transform="matrix(0.4444444444444444,0,0,0.4444444444444444,275.55555555555554,0)" xlink:href="#v"/><use transform="matrix(0.4444444444444444,0,0,0.4444444444444444,355.55555555555554,0)" xlink:href="#v"/><use transform="matrix(0.4444444444444444,0,0,0.4444444444444444,435.55555555555554,0)" xlink:href="#F"/></g><g id="t"><use transform="matrix(0.4444444444444444,0,0,0.4444444444444444,0,0)" xlink:href="#C"/><use transform="matrix(0.4444444444444444,0,0,0.4444444444444444,44.44444444444444,0)" xlink:href="#D"/><use transform="matrix(0.4444444444444444,0,0,0.4444444444444444,133.33333333333331,0)" xlink:href="#S"/><use transform="matrix(0.4444444444444444,0,0,0.4444444444444444,168.44444444444443,0)" xlink:href="#F"/></g></defs></g></svg>