<svg xmlns="http://www.w3.org/2000/svg" xmlns:xlink="http://www.w3.org/1999/xlink" xmlns:lucid="lucid" width="9610" height="9090"><g transform="translate(5205 20445)" lucid:page-tab-id="UaY5clmgfcME"><path d="M-5500-20500H4500v9500H-5500z" fill="#fff"/><path d="M-5180-19920v-492a8 8 0 0 1 8-8H440v500zM440-20420h3932a8 8 0 0 1 8 8v492H440zM440-11380h-5612a8 8 0 0 1-8-8v-8532H440zM4380-19920v8532a8 8 0 0 1-8 8H440v-8540z" stroke="#000" stroke-width="10" fill="#fff"/><use xlink:href="#a" transform="matrix(1,0,0,1,-5180,-20420) translate(2238 282)"/><use xlink:href="#b" transform="matrix(1,0,0,1,-5180,-20420) translate(2832.222222222222 282)"/><use xlink:href="#c" transform="matrix(1,0,0,1,-5180,-20420) translate(2929.5555555555557 282)"/><use xlink:href="#d" transform="matrix(1,0,0,1,440,-20420) translate(1681.5555555555557 282)"/><path d="M-2170-19380c0 110.46-89.54 200-200 200s-200-89.54-200-200 89.54-200 200-200 200 89.54 200 200z" stroke="#000" stroke-width="10"/><path d="M-3027.33-17830c-64.07 0-116 51.94-116 116v348c0 64.06 51.93 116 116 116h1314.66c64.07 0 116-51.94 116-116v-348c0-64.06-51.93-116-116-116z" stroke="#000" stroke-width="10" fill="#fff"/><use xlink:href="#e" transform="matrix(1,0,0,1,-3135.333333333331,-17822) translate(254.83333333333331 314)"/><use xlink:href="#f" transform="matrix(1,0,0,1,-3135.333333333331,-17822) translate(743.2777777777778 314)"/><use xlink:href="#g" transform="matrix(1,0,0,1,-3135.333333333331,-17822) translate(876.6111111111111 314)"/><path d="M1752.67-18660c-64.07 0-116 51.94-116 116v348c0 64.06 51.93 116 116 116h1314.66c64.07 0 116-51.94 116-116v-348c0-64.06-51.93-116-116-116z" stroke="#000" stroke-width="10" fill="#fff"/><use xlink:href="#h" transform="matrix(1,0,0,1,1644.6666666666679,-18652) translate(85.72222222222217 314)"/><use xlink:href="#i" transform="matrix(1,0,0,1,1644.6666666666679,-18652) translate(796.3888888888889 314)"/><use xlink:href="#j" transform="matrix(1,0,0,1,1644.6666666666679,-18652) translate(1009.7222222222222 314)"/><path d="M-1603.33-16550h1603a12 12 0 0 0 12-12v-1796a12 12 0 0 1 12-12h1572.55" stroke="#333" stroke-width="10" fill="none"/><path d="M-1603.2-16545.03h-5.13v-9.94h5.13z" stroke="#333" stroke-width=".05" fill="#333"/><path d="M1615.5-18370l-14.28 4.63v-9.26z" stroke="#333" stroke-width="10" fill="#333"/><path d="M1752.67-17500c-64.07 0-116 51.94-116 116v348c0 64.06 51.93 116 116 116h1314.66c64.07 0 116-51.94 116-116v-348c0-64.06-51.93-116-116-116z" stroke="#000" stroke-width="10" fill="#fff"/><use xlink:href="#k" transform="matrix(1,0,0,1,1644.6666666666679,-17492) translate(219.27777777777783 218)"/><use xlink:href="#l" transform="matrix(1,0,0,1,1644.6666666666679,-17492) translate(618.8333333333334 218)"/><use xlink:href="#m" transform="matrix(1,0,0,1,1644.6666666666679,-17492) translate(1133.9444444444443 218)"/><use xlink:href="#n" transform="matrix(1,0,0,1,1644.6666666666679,-17492) translate(543.2777777777778 410)"/><path d="M2410-18070v529.55" stroke="#333" stroke-width="10" fill="none"/><path d="M2414.97-18069.87h-9.94v-5.13h9.94z" stroke="#333" stroke-width=".05" fill="#333"/><path d="M2410-17521.18l-4.64-14.27h9.28z" stroke="#333" stroke-width="10" fill="#333"/><path d="M1776-16480c-64.07 0-116 51.94-116 116v348c0 64.07 51.93 116 116 116h1314.67c64.06 0 116-51.93 116-116v-348c0-64.06-51.94-116-116-116z" stroke="#000" stroke-width="10" fill="#fff"/><use xlink:href="#o" transform="matrix(1,0,0,1,1667.999999999999,-16472) translate(6.3888888888888005 314)"/><use xlink:href="#f" transform="matrix(1,0,0,1,1667.999999999999,-16472) translate(317.0555555555555 314)"/><use xlink:href="#p" transform="matrix(1,0,0,1,1667.999999999999,-16472) translate(450.3888888888888 314)"/><path d="M2410-16910v389.55" stroke="#333" stroke-width="10" fill="none"/><path d="M2414.97-16909.87h-9.94v-5.13h9.94z" stroke="#333" stroke-width=".05" fill="#333"/><path d="M2410-16501.18l-4.64-14.27h9.28z" stroke="#333" stroke-width="10" fill="#333"/><path d="M-3027.33-18800c-64.07 0-116 51.94-116 116v348c0 64.06 51.93 116 116 116h1314.66c64.07 0 116-51.94 116-116v-348c0-64.06-51.93-116-116-116z" stroke="#000" stroke-width="10" fill="#fff"/><use xlink:href="#q" transform="matrix(1,0,0,1,-3135.333333333331,-18792) translate(352.3888888888889 314)"/><use xlink:href="#r" transform="matrix(1,0,0,1,-3135.333333333331,-18792) translate(921.2777777777778 314)"/><path d="M-2370-19170v329.55" stroke="#333" stroke-width="10" fill="none"/><path d="M-2370.03-19175l4.43-.05.57-.02v5.2h-9.94v-5.23z" stroke="#333" stroke-width=".05" fill="#333"/><path d="M-2370-18821.18l-4.64-14.27h9.28z" stroke="#333" stroke-width="10" fill="#333"/><path d="M-2370-18210v339.55" stroke="#333" stroke-width="10" fill="none"/><path d="M-2365.03-18209.87h-9.94v-5.13h9.94z" stroke="#333" stroke-width=".05" fill="#333"/><path d="M-2370-17851.18l-4.64-14.27h9.28z" stroke="#333" stroke-width="10" fill="#333"/><path d="M-3044-16840c-64.07 0-116 51.94-116 116v348c0 64.07 51.93 116 116 116h1314.67c64.06 0 116-51.93 116-116v-348c0-64.06-51.94-116-116-116z" stroke="#000" stroke-width="10" fill="#fff"/><use xlink:href="#s" transform="matrix(1,0,0,1,-3151.999999999999,-16832) translate(20.16666666666663 314)"/><use xlink:href="#t" transform="matrix(1,0,0,1,-3151.999999999999,-16832) translate(677.0555555555555 314)"/><path d="M-3027.33-15720c-64.07 0-116 51.93-116 116v348c0 64.07 51.93 116 116 116h1314.66c64.07 0 116-51.93 116-116v-348c0-64.07-51.93-116-116-116z" stroke="#000" stroke-width="10" fill="#fff"/><use xlink:href="#u" transform="matrix(1,0,0,1,-3135.333333333335,-15712) translate(201.94444444444434 314)"/><use xlink:href="#v" transform="matrix(1,0,0,1,-3135.333333333335,-15712) translate(982.3888888888889 314)"/><path d="M-2375.66-14619.34a8 8 0 0 1 11.32 0l188.68 188.68a8 8 0 0 1 0 11.32l-188.68 188.68a8 8 0 0 1-11.32 0l-188.68-188.68a8 8 0 0 1 0-11.32z" stroke="#000" stroke-width="10" fill="#fff"/><path d="M-2370-14218.3v142.48a1.67 1.67 0 0 0 1.67 1.67 1.67 1.67 0 0 1 1.66 1.67v112.03" stroke="#333" stroke-width="10" fill="none"/><path d="M-2374.02-14223.93l1.98.47 2.04.16 2.04-.16 1.98-.48.95-.4v6.17h-9.94v-6.16z" stroke="#333" stroke-width=".05" fill="#333"/><path d="M-2366.67-13941.18l-4.63-14.27h9.27z" stroke="#333" stroke-width="10" fill="#333"/><use xlink:href="#w" transform="matrix(1,0,0,1,-2361.9999999680376,-14169.367843614404) translate(0.0049999999999954525 85.33333333333334)"/><path d="M-4040-14425c0 110.46-89.54 200-200 200s-200-89.54-200-200 89.54-200 200-200 200 89.54 200 200z" stroke="#000" stroke-width="10" fill="#fff"/><path d="M-4120-14425c0 66.27-53.73 120-120 120-66.27 0-120-53.73-120-120 0-66.27 53.73-120 120-120 66.27 0 120 53.73 120 120z" stroke="#000" stroke-width="10"/><path d="M-2576.7-14425h-1422.85" stroke="#333" stroke-width="10" fill="none"/><path d="M-2571.07-14429.02l-.47 1.98-.16 2.04.16 2.04.47 1.98.4.95h-6.16v-9.94h6.16z" stroke="#333" stroke-width=".05" fill="#333"/><path d="M-4018.82-14425l14.27-4.64v9.27z" stroke="#333" stroke-width="10" fill="#333"/><use xlink:href="#x" transform="matrix(1,0,0,1,-3031.8767645786847,-14589) translate(0.0049999999999954525 106.66666666666669)"/><path d="M-2280-14831a8 8 0 0 1 8-8h1630.67a8 8 0 0 1 8 8v382a8 8 0 0 1-8 8H-2272a8 8 0 0 1-8-8z" fill="none"/><use xlink:href="#y" transform="matrix(1,0,0,1,-2280,-14838.985803187805) translate(33.94444444444434 231)"/><use xlink:href="#z" transform="matrix(1,0,0,1,-2280,-14838.985803187805) translate(734.8333333333333 231)"/><path d="M-2370-15130v467.85" stroke="#333" stroke-width="10" fill="none"/><path d="M-2365.03-15129.87h-9.94v-5.13h9.94z" stroke="#333" stroke-width=".05" fill="#333"/><path d="M-2370-14642.88l-4.64-14.27h9.28z" stroke="#333" stroke-width="10" fill="#333"/><path d="M-3024-13920c-64.07 0-116 51.93-116 116v348c0 64.07 51.93 116 116 116h1314.67c64.06 0 116-51.93 116-116v-348c0-64.07-51.94-116-116-116z" stroke="#000" stroke-width="10" fill="#fff"/><use xlink:href="#A" transform="matrix(1,0,0,1,-3132,-13912) translate(108.61111111111109 314)"/><use xlink:href="#f" transform="matrix(1,0,0,1,-3132,-13912) translate(854.3888888888889 314)"/><use xlink:href="#B" transform="matrix(1,0,0,1,-3132,-13912) translate(987.7222222222222 314)"/><path d="M-3044-12700c-64.07 0-116 51.93-116 116v348c0 64.07 51.93 116 116 116h1314.67c64.06 0 116-51.93 116-116v-348c0-64.07-51.94-116-116-116z" stroke="#000" stroke-width="10" fill="#fff"/><use xlink:href="#C" transform="matrix(1,0,0,1,-3151.999999999999,-12692) translate(268.1666666666667 314)"/><use xlink:href="#D" transform="matrix(1,0,0,1,-3151.999999999999,-12692) translate(685.0555555555557 314)"/><use xlink:href="#E" transform="matrix(1,0,0,1,-3151.999999999999,-12692) translate(818.3888888888889 314)"/><path d="M-2366.67-13330v308.33a1.67 1.67 0 0 1-1.66 1.67 1.67 1.67 0 0 0-1.67 1.67v277.88" stroke="#333" stroke-width="10" fill="none"/><path d="M-2361.7-13329.87h-9.94v-5.13h9.95z" stroke="#333" stroke-width=".05" fill="#333"/><path d="M-2370-12721.18l-4.64-14.27h9.28z" stroke="#333" stroke-width="10" fill="#333"/><path d="M1776-14480c-64.07 0-116 51.93-116 116v348c0 64.07 51.93 116 116 116h1314.67c64.06 0 116-51.93 116-116v-348c0-64.07-51.94-116-116-116z" stroke="#000" stroke-width="10" fill="#fff"/><use xlink:href="#h" transform="matrix(1,0,0,1,1667.999999999999,-14472) translate(187.94444444444434 314)"/><use xlink:href="#E" transform="matrix(1,0,0,1,1667.999999999999,-14472) translate(898.6111111111111 314)"/><path d="M1752.67-13560c-64.07 0-116 51.93-116 116v348c0 64.07 51.93 116 116 116h1314.66c64.07 0 116-51.93 116-116v-348c0-64.07-51.93-116-116-116z" stroke="#000" stroke-width="10" fill="#fff"/><use xlink:href="#F" transform="matrix(1,0,0,1,1644.6666666666679,-13552) translate(41.500000000000114 314)"/><use xlink:href="#D" transform="matrix(1,0,0,1,1644.6666666666679,-13552) translate(485.5000000000001 314)"/><use xlink:href="#G" transform="matrix(1,0,0,1,1644.6666666666679,-13552) translate(618.8333333333334 314)"/><use xlink:href="#H" transform="matrix(1,0,0,1,1644.6666666666679,-13552) translate(1009.9444444444445 314)"/><use xlink:href="#r" transform="matrix(1,0,0,1,1644.6666666666679,-13552) translate(1232.1666666666665 314)"/><path d="M-1603.33-12410H11.33a12 12 0 0 0 12-12v-1756a12 12 0 0 1 12-12h1584.22" stroke="#333" stroke-width="10" fill="none"/><path d="M-1603.2-12405.02h-5.13v-9.95h5.13z" stroke="#333" stroke-width=".05" fill="#333"/><path d="M1638.82-14190l-14.27 4.64v-9.27z" stroke="#333" stroke-width="10" fill="#333"/><path d="M2433.33-13890v289.55" stroke="#333" stroke-width="10" fill="none"/><path d="M2438.3-13889.87h-9.94v-5.13h9.95z" stroke="#333" stroke-width=".05" fill="#333"/><path d="M2433.33-13581.18l-4.63-14.27h9.27z" stroke="#333" stroke-width="10" fill="#333"/><path d="M2610-12320c0 110.46-89.54 200-200 200s-200-89.54-200-200 89.54-200 200-200 200 89.54 200 200z" stroke="#000" stroke-width="10" fill="#fff"/><path d="M2530-12320c0 66.27-53.73 120-120 120-66.27 0-120-53.73-120-120 0-66.27 53.73-120 120-120 66.27 0 120 53.73 120 120z" stroke="#000" stroke-width="10"/><path d="M2410-12970v409.55" stroke="#333" stroke-width="10" fill="none"/><path d="M2414.97-12969.87h-9.94v-5.13h9.94z" stroke="#333" stroke-width=".05" fill="#333"/><path d="M2410-12541.18l-4.64-14.27h9.28z" stroke="#333" stroke-width="10" fill="#333"/><path d="M-2370-17240v359.55" stroke="#333" stroke-width="10" fill="none"/><path d="M-2365.03-17239.87h-9.94v-5.13h9.94z" stroke="#333" stroke-width=".05" fill="#333"/><path d="M-2370-16861.18l-4.64-14.27h9.28z" stroke="#333" stroke-width="10" fill="#333"/><path d="M1756-15460c-64.07 0-116 51.93-116 116v348c0 64.07 51.93 116 116 116h1314.67c64.06 0 116-51.93 116-116v-348c0-64.07-51.94-116-116-116z" stroke="#000" stroke-width="10" fill="#fff"/><g><use xlink:href="#F" transform="matrix(1,0,0,1,1648,-15452) translate(459.05555555555554 218)"/><use xlink:href="#I" transform="matrix(1,0,0,1,1648,-15452) translate(903.0555555555555 218)"/><use xlink:href="#J" transform="matrix(1,0,0,1,1648,-15452) translate(308.6111111111111 410)"/></g><path d="M1630-15170H33.67a12 12 0 0 1-12-12v-236a12 12 0 0 0-12-12h-1565.9" stroke="#333" stroke-width="10" fill="none"/><path d="M1635-15165.02h-5.13v-9.95h5.13z" stroke="#333" stroke-width=".05" fill="#333"/><path d="M-1575.5-15430l14.28-4.64v9.27z" stroke="#333" stroke-width="10" fill="#333"/><path d="M2433.33-15890v389.55" stroke="#333" stroke-width="10" fill="none"/><path d="M2438.3-15889.87h-9.94v-5.13h9.95z" stroke="#333" stroke-width=".05" fill="#333"/><path d="M2433.33-15481.18l-4.63-14.27h9.27z" stroke="#333" stroke-width="10" fill="#333"/><defs><path d="M232-93c-1 65-40 97-104 97C67 4 28-28 28-90v-158h33c8 89-33 224 67 224 102 0 64-133 71-224h33v155" id="K"/><path d="M135-143c-3-34-86-38-87 0 15 53 115 12 119 90S17 21 10-45l28-5c4 36 97 45 98 0-10-56-113-15-118-90-4-57 82-63 122-42 12 7 21 19 24 35" id="L"/><path d="M84 4C-5 8 30-112 23-190h32v120c0 31 7 50 39 49 72-2 45-101 50-169h31l1 190h-30c-1-10 1-25-2-33-11 22-28 36-60 37" id="M"/><path d="M141-36C126-15 110 5 73 4 37 3 15-17 15-53c-1-64 63-63 125-63 3-35-9-54-41-54-24 1-41 7-42 31l-33-3c5-37 33-52 76-52 45 0 72 20 72 64v82c-1 20 7 32 28 27v20c-31 9-61-2-59-35zM48-53c0 20 12 33 32 33 41-3 63-29 60-74-43 2-92-5-92 41zm25-158c8-23 27-35 38-54h36v5l-58 49H73" id="N"/><path d="M114-163C36-179 61-72 57 0H25l-1-190h30c1 12-1 29 2 39 6-27 23-49 58-41v29" id="O"/><path d="M24-231v-30h32v30H24zM24 0v-190h32V0H24" id="P"/><path d="M100-194c62-1 85 37 85 99 1 63-27 99-86 99S16-35 15-95c0-66 28-99 85-99zM99-20c44 1 53-31 53-75 0-43-8-75-51-75s-53 32-53 75 10 74 51 75" id="Q"/><g id="a"><use transform="matrix(0.4444444444444444,0,0,0.4444444444444444,0,0)" xlink:href="#K"/><use transform="matrix(0.4444444444444444,0,0,0.4444444444444444,115.1111111111111,0)" xlink:href="#L"/><use transform="matrix(0.4444444444444444,0,0,0.4444444444444444,195.1111111111111,0)" xlink:href="#M"/><use transform="matrix(0.4444444444444444,0,0,0.4444444444444444,284,0)" xlink:href="#N"/><use transform="matrix(0.4444444444444444,0,0,0.4444444444444444,372.8888888888889,0)" xlink:href="#O"/><use transform="matrix(0.4444444444444444,0,0,0.4444444444444444,425.7777777777778,0)" xlink:href="#P"/><use transform="matrix(0.4444444444444444,0,0,0.4444444444444444,460.88888888888897,0)" xlink:href="#Q"/></g><path d="M16-82v-28h88v28H16" id="R"/><use transform="matrix(0.4444444444444444,0,0,0.4444444444444444,0,0)" xlink:href="#R" id="b"/><path d="M205 0l-28-72H64L36 0H1l101-248h38L239 0h-34zm-38-99l-47-123c-12 45-31 82-46 123h93" id="S"/><path d="M85-194c31 0 48 13 60 33l-1-100h32l1 261h-30c-2-10 0-23-3-31C134-8 116 4 85 4 32 4 16-35 15-94c0-66 23-100 70-100zm9 24c-40 0-46 34-46 75 0 40 6 74 45 74 42 0 51-32 51-76 0-42-9-74-50-73" id="T"/><path d="M210-169c-67 3-38 105-44 169h-31v-121c0-29-5-50-35-48C34-165 62-65 56 0H25l-1-190h30c1 10-1 24 2 32 10-44 99-50 107 0 11-21 27-35 58-36 85-2 47 119 55 194h-31v-121c0-29-5-49-35-48" id="U"/><path d="M117-194c89-4 53 116 60 194h-32v-121c0-31-8-49-39-48C34-167 62-67 57 0H25l-1-190h30c1 10-1 24 2 32 11-22 29-35 61-36" id="V"/><g id="c"><use transform="matrix(0.4444444444444444,0,0,0.4444444444444444,0,0)" xlink:href="#S"/><use transform="matrix(0.4444444444444444,0,0,0.4444444444444444,106.66666666666666,0)" xlink:href="#T"/><use transform="matrix(0.4444444444444444,0,0,0.4444444444444444,195.55555555555554,0)" xlink:href="#U"/><use transform="matrix(0.4444444444444444,0,0,0.4444444444444444,328.44444444444446,0)" xlink:href="#P"/><use transform="matrix(0.4444444444444444,0,0,0.4444444444444444,363.55555555555554,0)" xlink:href="#V"/></g><path d="M185-189c-5-48-123-54-124 2 14 75 158 14 163 119 3 78-121 87-175 55-17-10-28-26-33-46l33-7c5 56 141 63 141-1 0-78-155-14-162-118-5-82 145-84 179-34 5 7 8 16 11 25" id="W"/><path d="M59-47c-2 24 18 29 38 22v24C64 9 27 4 27-40v-127H5v-23h24l9-43h21v43h35v23H59v120" id="X"/><path d="M100-194c63 0 86 42 84 106H49c0 40 14 67 53 68 26 1 43-12 49-29l28 8c-11 28-37 45-77 45C44 4 14-33 15-96c1-61 26-98 85-98zm52 81c6-60-76-77-97-28-3 7-6 17-6 28h103" id="Y"/><path d="M141-36C126-15 110 5 73 4 37 3 15-17 15-53c-1-64 63-63 125-63 3-35-9-54-41-54-24 1-41 7-42 31l-33-3c5-37 33-52 76-52 45 0 72 20 72 64v82c-1 20 7 32 28 27v20c-31 9-61-2-59-35zM48-53c0 20 12 33 32 33 41-3 63-29 60-74-43 2-92-5-92 41" id="Z"/><g id="d"><use transform="matrix(0.4444444444444444,0,0,0.4444444444444444,0,0)" xlink:href="#W"/><use transform="matrix(0.4444444444444444,0,0,0.4444444444444444,106.66666666666666,0)" xlink:href="#P"/><use transform="matrix(0.4444444444444444,0,0,0.4444444444444444,141.77777777777777,0)" xlink:href="#L"/><use transform="matrix(0.4444444444444444,0,0,0.4444444444444444,221.77777777777777,0)" xlink:href="#X"/><use transform="matrix(0.4444444444444444,0,0,0.4444444444444444,266.22222222222223,0)" xlink:href="#Y"/><use transform="matrix(0.4444444444444444,0,0,0.4444444444444444,355.1111111111111,0)" xlink:href="#U"/><use transform="matrix(0.4444444444444444,0,0,0.4444444444444444,488,0)" xlink:href="#Z"/></g><path d="M33 0v-248h34V0H33" id="aa"/><g id="e"><use transform="matrix(0.4444444444444444,0,0,0.4444444444444444,0,0)" xlink:href="#aa"/><use transform="matrix(0.4444444444444444,0,0,0.4444444444444444,44.44444444444444,0)" xlink:href="#V"/><use transform="matrix(0.4444444444444444,0,0,0.4444444444444444,133.33333333333331,0)" xlink:href="#L"/><use transform="matrix(0.4444444444444444,0,0,0.4444444444444444,213.33333333333331,0)" xlink:href="#Y"/><use transform="matrix(0.4444444444444444,0,0,0.4444444444444444,302.2222222222222,0)" xlink:href="#O"/><use transform="matrix(0.4444444444444444,0,0,0.4444444444444444,355.1111111111111,0)" xlink:href="#Y"/></g><use transform="matrix(0.4444444444444444,0,0,0.4444444444444444,0,0)" xlink:href="#Q" id="f"/><path d="M96-169c-40 0-48 33-48 73s9 75 48 75c24 0 41-14 43-38l32 2c-6 37-31 61-74 61-59 0-76-41-82-99-10-93 101-131 147-64 4 7 5 14 7 22l-32 3c-4-21-16-35-41-35" id="ab"/><path d="M177-190C167-65 218 103 67 71c-23-6-38-20-44-43l32-5c15 47 100 32 89-28v-30C133-14 115 1 83 1 29 1 15-40 15-95c0-56 16-97 71-98 29-1 48 16 59 35 1-10 0-23 2-32h30zM94-22c36 0 50-32 50-73 0-42-14-75-50-75-39 0-46 34-46 75s6 73 46 73" id="ac"/><g id="g"><use transform="matrix(0.4444444444444444,0,0,0.4444444444444444,0,0)" xlink:href="#ab"/><use transform="matrix(0.4444444444444444,0,0,0.4444444444444444,80,0)" xlink:href="#Z"/><use transform="matrix(0.4444444444444444,0,0,0.4444444444444444,168.88888888888889,0)" xlink:href="#O"/><use transform="matrix(0.4444444444444444,0,0,0.4444444444444444,221.77777777777777,0)" xlink:href="#ac"/><use transform="matrix(0.4444444444444444,0,0,0.4444444444444444,310.66666666666663,0)" xlink:href="#Q"/></g><path d="M30-248c87 1 191-15 191 75 0 78-77 80-158 76V0H30v-248zm33 125c57 0 124 11 124-50 0-59-68-47-124-48v98" id="ad"/><g id="h"><use transform="matrix(0.4444444444444444,0,0,0.4444444444444444,0,0)" xlink:href="#ad"/><use transform="matrix(0.4444444444444444,0,0,0.4444444444444444,106.66666666666666,0)" xlink:href="#O"/><use transform="matrix(0.4444444444444444,0,0,0.4444444444444444,159.55555555555554,0)" xlink:href="#Q"/><use transform="matrix(0.4444444444444444,0,0,0.4444444444444444,248.44444444444443,0)" xlink:href="#ab"/><use transform="matrix(0.4444444444444444,0,0,0.4444444444444444,328.44444444444446,0)" xlink:href="#Y"/><use transform="matrix(0.4444444444444444,0,0,0.4444444444444444,417.33333333333337,0)" xlink:href="#L"/><use transform="matrix(0.4444444444444444,0,0,0.4444444444444444,497.3333333333334,0)" xlink:href="#L"/><use transform="matrix(0.4444444444444444,0,0,0.4444444444444444,577.3333333333334,0)" xlink:href="#Z"/></g><g id="i"><use transform="matrix(0.4444444444444444,0,0,0.4444444444444444,0,0)" xlink:href="#Q"/><use transform="matrix(0.4444444444444444,0,0,0.4444444444444444,88.88888888888889,0)" xlink:href="#L"/></g><g id="j"><use transform="matrix(0.4444444444444444,0,0,0.4444444444444444,0,0)" xlink:href="#T"/><use transform="matrix(0.4444444444444444,0,0,0.4444444444444444,88.88888888888889,0)" xlink:href="#Z"/><use transform="matrix(0.4444444444444444,0,0,0.4444444444444444,177.77777777777777,0)" xlink:href="#T"/><use transform="matrix(0.4444444444444444,0,0,0.4444444444444444,266.66666666666663,0)" xlink:href="#Q"/><use transform="matrix(0.4444444444444444,0,0,0.4444444444444444,355.55555555555554,0)" xlink:href="#L"/></g><path d="M143 4C61 4 22-44 18-125c-5-107 100-154 193-111 17 8 29 25 37 43l-32 9c-13-25-37-40-76-40-61 0-88 39-88 99 0 61 29 100 91 101 35 0 62-11 79-27v-45h-74v-28h105v86C228-13 192 4 143 4" id="ae"/><g id="k"><use transform="matrix(0.4444444444444444,0,0,0.4444444444444444,0,0)" xlink:href="#ae"/><use transform="matrix(0.4444444444444444,0,0,0.4444444444444444,124.44444444444444,0)" xlink:href="#Y"/><use transform="matrix(0.4444444444444444,0,0,0.4444444444444444,213.33333333333331,0)" xlink:href="#O"/><use transform="matrix(0.4444444444444444,0,0,0.4444444444444444,266.2222222222222,0)" xlink:href="#Z"/></g><path d="M100-194c62-1 85 37 85 99 1 63-27 99-86 99S16-35 15-95c0-66 28-99 85-99zM99-20c44 1 53-31 53-75 0-43-8-75-51-75s-53 32-53 75 10 74 51 75zM76-211c8-23 27-35 38-54h36v5l-58 49H76" id="af"/><g id="l"><use transform="matrix(0.4444444444444444,0,0,0.4444444444444444,0,0)" xlink:href="#ab"/><use transform="matrix(0.4444444444444444,0,0,0.4444444444444444,80,0)" xlink:href="#af"/><use transform="matrix(0.4444444444444444,0,0,0.4444444444444444,168.88888888888889,0)" xlink:href="#T"/><use transform="matrix(0.4444444444444444,0,0,0.4444444444444444,257.77777777777777,0)" xlink:href="#P"/><use transform="matrix(0.4444444444444444,0,0,0.4444444444444444,292.88888888888886,0)" xlink:href="#ac"/><use transform="matrix(0.4444444444444444,0,0,0.4444444444444444,381.7777777777777,0)" xlink:href="#Q"/></g><g id="m"><use transform="matrix(0.4444444444444444,0,0,0.4444444444444444,0,0)" xlink:href="#T"/><use transform="matrix(0.4444444444444444,0,0,0.4444444444444444,88.88888888888889,0)" xlink:href="#Y"/></g><g id="n"><use transform="matrix(0.4444444444444444,0,0,0.4444444444444444,0,0)" xlink:href="#S"/><use transform="matrix(0.4444444444444444,0,0,0.4444444444444444,106.66666666666666,0)" xlink:href="#ab"/><use transform="matrix(0.4444444444444444,0,0,0.4444444444444444,186.66666666666666,0)" xlink:href="#Y"/><use transform="matrix(0.4444444444444444,0,0,0.4444444444444444,275.55555555555554,0)" xlink:href="#L"/><use transform="matrix(0.4444444444444444,0,0,0.4444444444444444,355.55555555555554,0)" xlink:href="#Q"/></g><path d="M63-220v92h138v28H63V0H30v-248h175v28H63" id="ag"/><path d="M9 0v-24l116-142H16v-24h144v24L44-24h123V0H9" id="ah"/><g id="o"><use transform="matrix(0.4444444444444444,0,0,0.4444444444444444,0,0)" xlink:href="#ag"/><use transform="matrix(0.4444444444444444,0,0,0.4444444444444444,97.33333333333333,0)" xlink:href="#Z"/><use transform="matrix(0.4444444444444444,0,0,0.4444444444444444,186.22222222222223,0)" xlink:href="#ah"/></g><path d="M115-194c55 1 70 41 70 98S169 2 115 4C84 4 66-9 55-30l1 105H24l-1-265h31l2 30c10-21 28-34 59-34zm-8 174c40 0 45-34 45-75s-6-73-45-74c-42 0-51 32-51 76 0 43 10 73 51 73" id="ai"/><path d="M100-194c63 0 86 42 84 106H49c0 40 14 67 53 68 26 1 43-12 49-29l28 8c-11 28-37 45-77 45C44 4 14-33 15-96c1-61 26-98 85-98zm52 81c6-60-76-77-97-28-3 7-6 17-6 28h103zm-74-98c8-23 27-35 38-54h36v5l-58 49H78" id="aj"/><g id="p"><use transform="matrix(0.4444444444444444,0,0,0.4444444444444444,0,0)" xlink:href="#ai"/><use transform="matrix(0.4444444444444444,0,0,0.4444444444444444,88.88888888888889,0)" xlink:href="#O"/><use transform="matrix(0.4444444444444444,0,0,0.4444444444444444,141.77777777777777,0)" xlink:href="#aj"/><use transform="matrix(0.4444444444444444,0,0,0.4444444444444444,230.66666666666666,0)" xlink:href="#R"/><use transform="matrix(0.4444444444444444,0,0,0.4444444444444444,283.55555555555554,0)" xlink:href="#ab"/><use transform="matrix(0.4444444444444444,0,0,0.4444444444444444,363.55555555555554,0)" xlink:href="#Z"/><use transform="matrix(0.4444444444444444,0,0,0.4444444444444444,452.44444444444446,0)" xlink:href="#T"/><use transform="matrix(0.4444444444444444,0,0,0.4444444444444444,541.3333333333334,0)" xlink:href="#Z"/><use transform="matrix(0.4444444444444444,0,0,0.4444444444444444,630.2222222222223,0)" xlink:href="#L"/><use transform="matrix(0.4444444444444444,0,0,0.4444444444444444,710.2222222222223,0)" xlink:href="#X"/><use transform="matrix(0.4444444444444444,0,0,0.4444444444444444,754.6666666666667,0)" xlink:href="#O"/><use transform="matrix(0.4444444444444444,0,0,0.4444444444444444,807.5555555555557,0)" xlink:href="#Z"/><use transform="matrix(0.4444444444444444,0,0,0.4444444444444444,896.4444444444446,0)" xlink:href="#T"/><use transform="matrix(0.4444444444444444,0,0,0.4444444444444444,985.3333333333335,0)" xlink:href="#Q"/></g><g id="q"><use transform="matrix(0.4444444444444444,0,0,0.4444444444444444,0,0)" xlink:href="#S"/><use transform="matrix(0.4444444444444444,0,0,0.4444444444444444,106.66666666666666,0)" xlink:href="#ab"/><use transform="matrix(0.4444444444444444,0,0,0.4444444444444444,186.66666666666666,0)" xlink:href="#Y"/><use transform="matrix(0.4444444444444444,0,0,0.4444444444444444,275.55555555555554,0)" xlink:href="#L"/><use transform="matrix(0.4444444444444444,0,0,0.4444444444444444,355.55555555555554,0)" xlink:href="#L"/><use transform="matrix(0.4444444444444444,0,0,0.4444444444444444,435.55555555555554,0)" xlink:href="#Z"/></g><path d="M24 0v-261h32V0H24" id="ak"/><g id="r"><use transform="matrix(0.4444444444444444,0,0,0.4444444444444444,0,0)" xlink:href="#X"/><use transform="matrix(0.4444444444444444,0,0,0.4444444444444444,44.44444444444444,0)" xlink:href="#Y"/><use transform="matrix(0.4444444444444444,0,0,0.4444444444444444,133.33333333333331,0)" xlink:href="#ak"/><use transform="matrix(0.4444444444444444,0,0,0.4444444444444444,168.44444444444443,0)" xlink:href="#Z"/></g><g id="s"><use transform="matrix(0.4444444444444444,0,0,0.4444444444444444,0,0)" xlink:href="#S"/><use transform="matrix(0.4444444444444444,0,0,0.4444444444444444,106.66666666666666,0)" xlink:href="#T"/><use transform="matrix(0.4444444444444444,0,0,0.4444444444444444,195.55555555555554,0)" xlink:href="#P"/><use transform="matrix(0.4444444444444444,0,0,0.4444444444444444,230.66666666666666,0)" xlink:href="#ab"/><use transform="matrix(0.4444444444444444,0,0,0.4444444444444444,310.66666666666663,0)" xlink:href="#P"/><use transform="matrix(0.4444444444444444,0,0,0.4444444444444444,345.7777777777777,0)" xlink:href="#Q"/><use transform="matrix(0.4444444444444444,0,0,0.4444444444444444,434.66666666666663,0)" xlink:href="#V"/><use transform="matrix(0.4444444444444444,0,0,0.4444444444444444,523.5555555555555,0)" xlink:href="#Z"/></g><g id="t"><use transform="matrix(0.4444444444444444,0,0,0.4444444444444444,0,0)" xlink:href="#ag"/><use transform="matrix(0.4444444444444444,0,0,0.4444444444444444,97.33333333333333,0)" xlink:href="#M"/><use transform="matrix(0.4444444444444444,0,0,0.4444444444444444,186.22222222222223,0)" xlink:href="#V"/><use transform="matrix(0.4444444444444444,0,0,0.4444444444444444,275.1111111111111,0)" xlink:href="#ab"/><use transform="matrix(0.4444444444444444,0,0,0.4444444444444444,355.1111111111111,0)" xlink:href="#P"/><use transform="matrix(0.4444444444444444,0,0,0.4444444444444444,390.2222222222222,0)" xlink:href="#Q"/><use transform="matrix(0.4444444444444444,0,0,0.4444444444444444,479.1111111111111,0)" xlink:href="#V"/><use transform="matrix(0.4444444444444444,0,0,0.4444444444444444,568,0)" xlink:href="#N"/><use transform="matrix(0.4444444444444444,0,0,0.4444444444444444,656.8888888888889,0)" xlink:href="#O"/><use transform="matrix(0.4444444444444444,0,0,0.4444444444444444,709.7777777777778,0)" xlink:href="#P"/><use transform="matrix(0.4444444444444444,0,0,0.4444444444444444,744.8888888888889,0)" xlink:href="#Q"/></g><path d="M30-248c118-7 216 8 213 122C240-48 200 0 122 0H30v-248zM63-27c89 8 146-16 146-99s-60-101-146-95v194" id="al"/><g id="u"><use transform="matrix(0.4444444444444444,0,0,0.4444444444444444,0,0)" xlink:href="#al"/><use transform="matrix(0.4444444444444444,0,0,0.4444444444444444,115.1111111111111,0)" xlink:href="#Y"/><use transform="matrix(0.4444444444444444,0,0,0.4444444444444444,204,0)" xlink:href="#X"/><use transform="matrix(0.4444444444444444,0,0,0.4444444444444444,248.44444444444449,0)" xlink:href="#Y"/><use transform="matrix(0.4444444444444444,0,0,0.4444444444444444,337.33333333333337,0)" xlink:href="#O"/><use transform="matrix(0.4444444444444444,0,0,0.4444444444444444,390.2222222222223,0)" xlink:href="#U"/><use transform="matrix(0.4444444444444444,0,0,0.4444444444444444,523.1111111111112,0)" xlink:href="#P"/><use transform="matrix(0.4444444444444444,0,0,0.4444444444444444,558.2222222222223,0)" xlink:href="#V"/><use transform="matrix(0.4444444444444444,0,0,0.4444444444444444,647.1111111111112,0)" xlink:href="#Z"/></g><path d="M96-169c-40 0-48 33-48 73s9 75 48 75c24 0 41-14 43-38l32 2c-6 37-31 61-74 61-59 0-76-41-82-99-10-93 101-131 147-64 4 7 5 14 7 22l-32 3c-4-21-16-35-41-35zm3 187c19-1 33 8 33 26 0 31-30 33-64 32V58c18 2 39 4 41-13 1-15-18-13-34-13L87 0h19" id="am"/><path d="M141-36C126-15 110 5 73 4 37 3 15-17 15-53c-1-64 63-63 125-63 3-35-9-54-41-54-24 1-41 7-42 31l-33-3c5-37 33-52 76-52 45 0 72 20 72 64v82c-1 20 7 32 28 27v20c-31 9-61-2-59-35zM48-53c0 20 12 33 32 33 41-3 63-29 60-74-43 2-92-5-92 41zm117-205c-3 23-9 48-36 47-26-1-65-44-74 0H39c4-23 8-48 36-47s64 44 74 0h16" id="an"/><g id="v"><use transform="matrix(0.4444444444444444,0,0,0.4444444444444444,0,0)" xlink:href="#Z"/><use transform="matrix(0.4444444444444444,0,0,0.4444444444444444,88.88888888888889,0)" xlink:href="#am"/><use transform="matrix(0.4444444444444444,0,0,0.4444444444444444,168.88888888888889,0)" xlink:href="#an"/><use transform="matrix(0.4444444444444444,0,0,0.4444444444444444,257.77777777777777,0)" xlink:href="#Q"/></g><g id="w"><use transform="matrix(0.29629629629629634,0,0,0.29629629629629634,0,0)" xlink:href="#W"/><use transform="matrix(0.29629629629629634,0,0,0.29629629629629634,71.11111111111111,0)" xlink:href="#P"/><use transform="matrix(0.29629629629629634,0,0,0.29629629629629634,94.51851851851853,0)" xlink:href="#U"/></g><path d="M190 0L58-211 59 0H30v-248h39L202-35l-2-213h31V0h-41" id="ao"/><g id="x"><use transform="matrix(0.3703703703703704,0,0,0.3703703703703704,0,0)" xlink:href="#ao"/><use transform="matrix(0.3703703703703704,0,0,0.3703703703703704,95.92592592592594,0)" xlink:href="#an"/><use transform="matrix(0.3703703703703704,0,0,0.3703703703703704,170,0)" xlink:href="#Q"/></g><path d="M26 75v-336h71v23H56V52h41v23H26" id="ap"/><g id="y"><use transform="matrix(0.4444444444444444,0,0,0.4444444444444444,0,0)" xlink:href="#ap"/><use transform="matrix(0.4444444444444444,0,0,0.4444444444444444,44.44444444444444,0)" xlink:href="#ad"/><use transform="matrix(0.4444444444444444,0,0,0.4444444444444444,151.1111111111111,0)" xlink:href="#O"/><use transform="matrix(0.4444444444444444,0,0,0.4444444444444444,203.99999999999997,0)" xlink:href="#Q"/><use transform="matrix(0.4444444444444444,0,0,0.4444444444444444,292.88888888888886,0)" xlink:href="#ab"/><use transform="matrix(0.4444444444444444,0,0,0.4444444444444444,372.88888888888886,0)" xlink:href="#M"/><use transform="matrix(0.4444444444444444,0,0,0.4444444444444444,461.77777777777777,0)" xlink:href="#O"/><use transform="matrix(0.4444444444444444,0,0,0.4444444444444444,514.6666666666666,0)" xlink:href="#Z"/><use transform="matrix(0.4444444444444444,0,0,0.4444444444444444,603.5555555555555,0)" xlink:href="#O"/></g><path d="M3 75V52h41v-290H3v-23h71V75H3" id="aq"/><g id="z"><use transform="matrix(0.4444444444444444,0,0,0.4444444444444444,0,0)" xlink:href="#ag"/><use transform="matrix(0.4444444444444444,0,0,0.4444444444444444,97.33333333333333,0)" xlink:href="#M"/><use transform="matrix(0.4444444444444444,0,0,0.4444444444444444,186.22222222222223,0)" xlink:href="#V"/><use transform="matrix(0.4444444444444444,0,0,0.4444444444444444,275.1111111111111,0)" xlink:href="#ab"/><use transform="matrix(0.4444444444444444,0,0,0.4444444444444444,355.1111111111111,0)" xlink:href="#P"/><use transform="matrix(0.4444444444444444,0,0,0.4444444444444444,390.2222222222222,0)" xlink:href="#Q"/><use transform="matrix(0.4444444444444444,0,0,0.4444444444444444,479.1111111111111,0)" xlink:href="#V"/><use transform="matrix(0.4444444444444444,0,0,0.4444444444444444,568,0)" xlink:href="#N"/><use transform="matrix(0.4444444444444444,0,0,0.4444444444444444,656.8888888888889,0)" xlink:href="#O"/><use transform="matrix(0.4444444444444444,0,0,0.4444444444444444,709.7777777777778,0)" xlink:href="#P"/><use transform="matrix(0.4444444444444444,0,0,0.4444444444444444,744.8888888888889,0)" xlink:href="#Q"/><use transform="matrix(0.4444444444444444,0,0,0.4444444444444444,833.7777777777778,0)" xlink:href="#aq"/></g><g id="A"><use transform="matrix(0.4444444444444444,0,0,0.4444444444444444,0,0)" xlink:href="#W"/><use transform="matrix(0.4444444444444444,0,0,0.4444444444444444,106.66666666666666,0)" xlink:href="#Y"/><use transform="matrix(0.4444444444444444,0,0,0.4444444444444444,195.55555555555554,0)" xlink:href="#ak"/><use transform="matrix(0.4444444444444444,0,0,0.4444444444444444,230.66666666666666,0)" xlink:href="#Y"/><use transform="matrix(0.4444444444444444,0,0,0.4444444444444444,319.55555555555554,0)" xlink:href="#ab"/><use transform="matrix(0.4444444444444444,0,0,0.4444444444444444,399.55555555555554,0)" xlink:href="#P"/><use transform="matrix(0.4444444444444444,0,0,0.4444444444444444,434.66666666666663,0)" xlink:href="#Q"/><use transform="matrix(0.4444444444444444,0,0,0.4444444444444444,523.5555555555555,0)" xlink:href="#V"/><use transform="matrix(0.4444444444444444,0,0,0.4444444444444444,612.4444444444445,0)" xlink:href="#Z"/></g><path d="M212-179c-10-28-35-45-73-45-59 0-87 40-87 99 0 60 29 101 89 101 43 0 62-24 78-52l27 14C228-24 195 4 139 4 59 4 22-46 18-125c-6-104 99-153 187-111 19 9 31 26 39 46" id="ar"/><g id="B"><use transform="matrix(0.4444444444444444,0,0,0.4444444444444444,0,0)" xlink:href="#ar"/><use transform="matrix(0.4444444444444444,0,0,0.4444444444444444,115.1111111111111,0)" xlink:href="#Z"/><use transform="matrix(0.4444444444444444,0,0,0.4444444444444444,204,0)" xlink:href="#O"/><use transform="matrix(0.4444444444444444,0,0,0.4444444444444444,256.8888888888889,0)" xlink:href="#ac"/><use transform="matrix(0.4444444444444444,0,0,0.4444444444444444,345.7777777777778,0)" xlink:href="#Q"/></g><g id="C"><use transform="matrix(0.4444444444444444,0,0,0.4444444444444444,0,0)" xlink:href="#aa"/><use transform="matrix(0.4444444444444444,0,0,0.4444444444444444,44.44444444444444,0)" xlink:href="#V"/><use transform="matrix(0.4444444444444444,0,0,0.4444444444444444,133.33333333333331,0)" xlink:href="#P"/><use transform="matrix(0.4444444444444444,0,0,0.4444444444444444,168.44444444444443,0)" xlink:href="#ab"/><use transform="matrix(0.4444444444444444,0,0,0.4444444444444444,248.44444444444443,0)" xlink:href="#P"/><use transform="matrix(0.4444444444444444,0,0,0.4444444444444444,283.55555555555554,0)" xlink:href="#Z"/></g><use transform="matrix(0.4444444444444444,0,0,0.4444444444444444,0,0)" xlink:href="#Z" id="D"/><path d="M160-131c35 5 61 23 61 61C221 17 115-2 30 0v-248c76 3 177-17 177 60 0 33-19 50-47 57zm-97-11c50-1 110 9 110-42 0-47-63-36-110-37v79zm0 115c55-2 124 14 124-45 0-56-70-42-124-44v89" id="as"/><g id="E"><use transform="matrix(0.4444444444444444,0,0,0.4444444444444444,0,0)" xlink:href="#as"/><use transform="matrix(0.4444444444444444,0,0,0.4444444444444444,106.66666666666666,0)" xlink:href="#M"/><use transform="matrix(0.4444444444444444,0,0,0.4444444444444444,195.55555555555554,0)" xlink:href="#L"/><use transform="matrix(0.4444444444444444,0,0,0.4444444444444444,275.55555555555554,0)" xlink:href="#ab"/><use transform="matrix(0.4444444444444444,0,0,0.4444444444444444,355.55555555555554,0)" xlink:href="#Z"/></g><path d="M30 0v-248h187v28H63v79h144v27H63v87h162V0H30" id="at"/><path d="M141 0L90-78 38 0H4l68-98-65-92h35l48 74 47-74h35l-64 92 68 98h-35" id="au"/><path d="M115-194c53 0 69 39 70 98 0 66-23 100-70 100C84 3 66-7 56-30L54 0H23l1-261h32v101c10-23 28-34 59-34zm-8 174c40 0 45-34 45-75 0-40-5-75-45-74-42 0-51 32-51 76 0 43 10 73 51 73" id="av"/><g id="F"><use transform="matrix(0.4444444444444444,0,0,0.4444444444444444,0,0)" xlink:href="#at"/><use transform="matrix(0.4444444444444444,0,0,0.4444444444444444,106.66666666666666,0)" xlink:href="#au"/><use transform="matrix(0.4444444444444444,0,0,0.4444444444444444,186.66666666666666,0)" xlink:href="#P"/><use transform="matrix(0.4444444444444444,0,0,0.4444444444444444,221.77777777777777,0)" xlink:href="#av"/><use transform="matrix(0.4444444444444444,0,0,0.4444444444444444,310.66666666666663,0)" xlink:href="#Y"/></g><g id="G"><use transform="matrix(0.4444444444444444,0,0,0.4444444444444444,0,0)" xlink:href="#av"/><use transform="matrix(0.4444444444444444,0,0,0.4444444444444444,88.88888888888889,0)" xlink:href="#M"/><use transform="matrix(0.4444444444444444,0,0,0.4444444444444444,177.77777777777777,0)" xlink:href="#ab"/><use transform="matrix(0.4444444444444444,0,0,0.4444444444444444,257.77777777777777,0)" xlink:href="#Z"/></g><g id="H"><use transform="matrix(0.4444444444444444,0,0,0.4444444444444444,0,0)" xlink:href="#V"/><use transform="matrix(0.4444444444444444,0,0,0.4444444444444444,88.88888888888889,0)" xlink:href="#Z"/></g><g id="I"><use transform="matrix(0.4444444444444444,0,0,0.4444444444444444,0,0)" xlink:href="#Q"/><use transform="matrix(0.4444444444444444,0,0,0.4444444444444444,88.88888888888889,0)" xlink:href="#L"/></g><g id="J"><use transform="matrix(0.4444444444444444,0,0,0.4444444444444444,0,0)" xlink:href="#ag"/><use transform="matrix(0.4444444444444444,0,0,0.4444444444444444,97.33333333333333,0)" xlink:href="#M"/><use transform="matrix(0.4444444444444444,0,0,0.4444444444444444,186.22222222222223,0)" xlink:href="#V"/><use transform="matrix(0.4444444444444444,0,0,0.4444444444444444,275.1111111111111,0)" xlink:href="#ab"/><use transform="matrix(0.4444444444444444,0,0,0.4444444444444444,355.1111111111111,0)" xlink:href="#P"/><use transform="matrix(0.4444444444444444,0,0,0.4444444444444444,390.2222222222222,0)" xlink:href="#Q"/><use transform="matrix(0.4444444444444444,0,0,0.4444444444444444,479.1111111111111,0)" xlink:href="#V"/><use transform="matrix(0.4444444444444444,0,0,0.4444444444444444,568,0)" xlink:href="#N"/><use transform="matrix(0.4444444444444444,0,0,0.4444444444444444,656.8888888888889,0)" xlink:href="#O"/><use transform="matrix(0.4444444444444444,0,0,0.4444444444444444,709.7777777777778,0)" xlink:href="#P"/><use transform="matrix(0.4444444444444444,0,0,0.4444444444444444,744.8888888888889,0)" xlink:href="#Q"/><use transform="matrix(0.4444444444444444,0,0,0.4444444444444444,833.7777777777778,0)" xlink:href="#L"/></g></defs></g></svg>