<svg xmlns="http://www.w3.org/2000/svg" xmlns:xlink="http://www.w3.org/1999/xlink" xmlns:lucid="lucid" width="13521" height="9254.6"><g transform="translate(-8355 25769.6)" lucid:page-tab-id="6Uy4h8mi5u2_"><path d="M8000-26000h14000v9500H8000z" fill="#fff"/><path d="M8360-25220v-492a8 8 0 0 1 8-8h5612v500zM13980-25720h3940v500h-3940zM17920-25720h3932a8 8 0 0 1 8 8v492h-3940zM13980-16520H8368a8 8 0 0 1-8-8v-8692h5620zM13980-25220h3940v8700h-3940zM21860-25220v8692a8 8 0 0 1-8 8h-3932v-8700z" stroke="#000" stroke-width="10" fill="#fff"/><use xlink:href="#a" transform="matrix(1,0,0,1,8360,-25720) translate(2535.1111111111113 282)"/><use xlink:href="#b" transform="matrix(1,0,0,1,13980,-25720) translate(1681.5555555555557 282)"/><use xlink:href="#c" transform="matrix(1,0,0,1,17920,-25720) translate(1314.8888888888887 292.6666666666667)"/><use xlink:href="#d" transform="matrix(1,0,0,1,17920,-25720) translate(2234 292.6666666666667)"/><path d="M10616-24340c-64.07 0-116 51.94-116 116v348c0 64.06 51.93 116 116 116h1314.67c64.06 0 116-51.94 116-116v-348c0-64.06-51.94-116-116-116z" stroke="#000" stroke-width="10" fill="#fff"/><use xlink:href="#e" transform="matrix(1,0,0,1,10508,-24332) translate(268.38888888888886 314)"/><use xlink:href="#f" transform="matrix(1,0,0,1,10508,-24332) translate(756.8333333333333 314)"/><path d="M10616-22520c-64.07 0-116 51.94-116 116v348c0 64.06 51.93 116 116 116h1314.67c64.06 0 116-51.94 116-116v-348c0-64.06-51.94-116-116-116z" stroke="#000" stroke-width="10" fill="#fff"/><use xlink:href="#g" transform="matrix(1,0,0,1,10508,-22512) translate(268.1666666666667 314)"/><use xlink:href="#h" transform="matrix(1,0,0,1,10508,-22512) translate(685.0555555555557 314)"/><use xlink:href="#i" transform="matrix(1,0,0,1,10508,-22512) translate(818.3888888888889 314)"/><path d="M10616-23440c-64.07 0-116 51.94-116 116v348c0 64.06 51.93 116 116 116h1314.67c64.06 0 116-51.94 116-116v-348c0-64.06-51.94-116-116-116z" stroke="#000" stroke-width="10" fill="#fff"/><use xlink:href="#j" transform="matrix(1,0,0,1,10508.000000031963,-23432) translate(149.05555555555554 314)"/><use xlink:href="#k" transform="matrix(1,0,0,1,10508.000000031963,-23432) translate(894.8333333333334 314)"/><use xlink:href="#l" transform="matrix(1,0,0,1,10508.000000031963,-23432) translate(1028.1666666666665 314)"/><path d="M11273.33-23750v269.55" stroke="#000" stroke-width="10" fill="none"/><path d="M11278.3-23749.87h-9.94v-5.13h9.95z" stroke="#000" stroke-width=".05"/><path d="M11273.33-23461.18l-4.63-14.27h9.27z" stroke="#000" stroke-width="10"/><path d="M15292.67-24520c-64.07 0-116 51.94-116 116v348c0 64.06 51.93 116 116 116h1314.66c64.07 0 116-51.94 116-116v-348c0-64.06-51.93-116-116-116z" stroke="#000" stroke-width="10" fill="#fff"/><use xlink:href="#m" transform="matrix(1,0,0,1,15184.666666666668,-24512) translate(187.94444444444434 314)"/><use xlink:href="#i" transform="matrix(1,0,0,1,15184.666666666668,-24512) translate(898.6111111111111 314)"/><path d="M11460-24840c0 110.46-89.54 200-200 200s-200-89.54-200-200 89.54-200 200-200 200 89.54 200 200z" stroke="#000" stroke-width="10"/><path d="M11260-24630v249.55" stroke="#000" stroke-width="10" fill="none"/><path d="M11259.97-24635l4.43-.05.58-.02v5.2h-9.95v-5.23z" stroke="#000" stroke-width=".05"/><path d="M11260-24361.18l-4.64-14.27h9.27z" stroke="#000" stroke-width="10"/><path d="M11273.33-22850v289.55" stroke="#333" stroke-width="10" fill="none"/><path d="M11278.3-22849.87h-9.94v-5.13h9.95z" stroke="#333" stroke-width=".05" fill="#333"/><path d="M11273.33-22541.18l-4.63-14.27h9.27z" stroke="#333" stroke-width="10" fill="#333"/><path d="M12056.67-22230h1543a12 12 0 0 0 12-12v-1976a12 12 0 0 1 12-12h1512.55" stroke="#333" stroke-width="10" fill="none"/><path d="M12056.8-22225.03h-5.13v-9.94h5.13z" stroke="#333" stroke-width=".05" fill="#333"/><path d="M15155.5-24230l-14.28 4.63v-9.26z" stroke="#333" stroke-width="10" fill="#333"/><path d="M15292.67-23340c-64.07 0-116 51.94-116 116v348c0 64.06 51.93 116 116 116h1314.66c64.07 0 116-51.94 116-116v-348c0-64.06-51.93-116-116-116z" stroke="#000" stroke-width="10" fill="#fff"/><use xlink:href="#n" transform="matrix(1,0,0,1,15184.666666666672,-23332) translate(135.27777777777783 314)"/><use xlink:href="#o" transform="matrix(1,0,0,1,15184.666666666672,-23332) translate(668.1666666666667 314)"/><path d="M15950-23930v549.55" stroke="#333" stroke-width="10" fill="none"/><path d="M15954.98-23929.87h-9.95v-5.13h9.94z" stroke="#333" stroke-width=".05" fill="#333"/><path d="M15950-23361.18l-4.64-14.27h9.27z" stroke="#333" stroke-width="10" fill="#333"/><path d="M19276-24620c-64.06 0-116 51.94-116 116v348c0 64.06 51.94 116 116 116h1314.67c64.06 0 116-51.94 116-116v-348c0-64.06-51.94-116-116-116z" stroke="#000" stroke-width="10" fill="#fff"/><use xlink:href="#p" transform="matrix(1,0,0,1,19168,-24612) translate(365.7222222222222 218)"/><use xlink:href="#q" transform="matrix(1,0,0,1,19168,-24612) translate(1076.388888888889 218)"/><use xlink:href="#o" transform="matrix(1,0,0,1,19168,-24612) translate(401.72222222222223 410)"/><path d="M16733.33-23050H18058a12 12 0 0 0 12-12v-1256a12 12 0 0 1 12-12h1037.55" stroke="#333" stroke-width="10" fill="none"/><path d="M16733.46-23045.03h-5.13v-9.94h5.13z" stroke="#333" stroke-width=".05" fill="#333"/><path d="M19138.82-24330l-14.27 4.63v-9.26z" stroke="#333" stroke-width="10" fill="#333"/><path d="M19276-23340c-64.06 0-116 51.94-116 116v348c0 64.06 51.94 116 116 116h1314.67c64.06 0 116-51.94 116-116v-348c0-64.06-51.94-116-116-116z" stroke="#000" stroke-width="10" fill="#fff"/><use xlink:href="#r" transform="matrix(1,0,0,1,19168,-23332) translate(50.611111111111086 314)"/><use xlink:href="#s" transform="matrix(1,0,0,1,19168,-23332) translate(671.9444444444445 314)"/><use xlink:href="#t" transform="matrix(1,0,0,1,19168,-23332) translate(805.2777777777778 314)"/><path d="M19933.33-24030v649.55" stroke="#333" stroke-width="10" fill="none"/><path d="M19938.3-24029.87h-9.94v-5.13h9.95z" stroke="#333" stroke-width=".05" fill="#333"/><path d="M19933.33-23361.18l-4.63-14.27h9.27z" stroke="#333" stroke-width="10" fill="#333"/><path d="M15292.67-22400c-64.07 0-116 51.94-116 116v348c0 64.06 51.93 116 116 116h1314.66c64.07 0 116-51.94 116-116v-348c0-64.06-51.93-116-116-116z" stroke="#000" stroke-width="10" fill="#fff"/><use xlink:href="#p" transform="matrix(1,0,0,1,15184.666666666672,-22392) translate(72.61111111111109 314)"/><use xlink:href="#t" transform="matrix(1,0,0,1,15184.666666666672,-22392) translate(783.2777777777778 314)"/><path d="M19933.33-22750v628a12 12 0 0 1-12 12h-3157.55" stroke="#333" stroke-width="10" fill="none"/><path d="M19938.3-22749.87h-9.94v-5.13h9.95z" stroke="#333" stroke-width=".05" fill="#333"/><path d="M16744.5-22110l14.28-4.63v9.26z" stroke="#333" stroke-width="10" fill="#333"/><path d="M15292.67-21420c-64.07 0-116 51.94-116 116v348c0 64.06 51.93 116 116 116h1314.66c64.07 0 116-51.94 116-116v-348c0-64.06-51.93-116-116-116z" stroke="#000" stroke-width="10" fill="#fff"/><use xlink:href="#u" transform="matrix(1,0,0,1,15184.666666666672,-21412) translate(63.94444444444434 314)"/><use xlink:href="#v" transform="matrix(1,0,0,1,15184.666666666672,-21412) translate(490.16666666666663 314)"/><use xlink:href="#t" transform="matrix(1,0,0,1,15184.666666666672,-21412) translate(791.9444444444443 314)"/><path d="M15950-21810v349.55" stroke="#333" stroke-width="10" fill="none"/><path d="M15954.98-21809.87h-9.95v-5.13h9.94z" stroke="#333" stroke-width=".05" fill="#333"/><path d="M15950-21441.18l-4.64-14.27h9.27z" stroke="#333" stroke-width="10" fill="#333"/><path d="M10602.67-21480c-64.07 0-116 51.94-116 116v348c0 64.06 51.93 116 116 116h1314.66c64.07 0 116-51.94 116-116v-348c0-64.06-51.93-116-116-116z" stroke="#000" stroke-width="10" fill="#fff"/><use xlink:href="#w" transform="matrix(1,0,0,1,10494.666666666668,-21472) translate(276.8333333333333 314)"/><use xlink:href="#x" transform="matrix(1,0,0,1,10494.666666666668,-21472) translate(889.7222222222222 314)"/><path d="M15166.67-21130h-3092.9" stroke="#333" stroke-width="10" fill="none"/><path d="M15171.67-21125.03h-5.13v-9.94h5.13z" stroke="#333" stroke-width=".05" fill="#333"/><path d="M12054.5-21130l14.28-4.63v9.26z" stroke="#333" stroke-width="10" fill="#333"/><path d="M11254.34-20514.34a8 8 0 0 1 11.32 0l188.68 188.68a8 8 0 0 1 0 11.32l-188.68 188.68a8 8 0 0 1-11.32 0l-188.68-188.68a8 8 0 0 1 0-11.32z" stroke="#000" stroke-width="10" fill="#fff"/><path d="M11260-20890v332.85" stroke="#333" stroke-width="10" fill="none"/><path d="M11264.98-20889.87h-9.95v-5.13h9.94z" stroke="#333" stroke-width=".05" fill="#333"/><path d="M11260-20537.88l-4.64-14.27h9.27z" stroke="#333" stroke-width="10" fill="#333"/><path d="M10602.67-19780c-64.07 0-116 51.94-116 116v348c0 64.06 51.93 116 116 116h1314.66c64.07 0 116-51.94 116-116v-348c0-64.06-51.93-116-116-116z" stroke="#000" stroke-width="10" fill="#fff"/><use xlink:href="#y" transform="matrix(1,0,0,1,10494.666666666668,-19772) translate(15.055555555555543 218)"/><use xlink:href="#z" transform="matrix(1,0,0,1,10494.666666666668,-19772) translate(760.8333333333334 218)"/><use xlink:href="#A" transform="matrix(1,0,0,1,10494.666666666668,-19772) translate(894.1666666666666 218)"/><use xlink:href="#B" transform="matrix(1,0,0,1,10494.666666666668,-19772) translate(1338.1666666666665 218)"/><use xlink:href="#C" transform="matrix(1,0,0,1,10494.666666666668,-19772) translate(627.7222222222222 410)"/><path d="M11260-20113.3v292.85" stroke="#333" stroke-width="10" fill="none"/><path d="M11255.98-20118.94l1.98.48 2.04.16 2.04-.16 1.98-.48.95-.4v6.17h-9.94v-6.16z" stroke="#333" stroke-width=".05" fill="#333"/><path d="M11260-19801.18l-4.64-14.27h9.27z" stroke="#333" stroke-width="10" fill="#333"/><use xlink:href="#D" transform="matrix(1,0,0,1,11268.000000000002,-20050.941102873156) translate(0.0049999999999954525 85.33333333333334)"/><path d="M9680-20320c0 110.46-89.54 200-200 200s-200-89.54-200-200 89.54-200 200-200 200 89.54 200 200z" stroke="#000" stroke-width="10" fill="#fff"/><path d="M9600-20320c0 66.27-53.73 120-120 120-66.27 0-120-53.73-120-120 0-66.27 53.73-120 120-120 66.27 0 120 53.73 120 120z" stroke="#000" stroke-width="10"/><path d="M11053.3-20320H9720.45" stroke="#333" stroke-width="10" fill="none"/><path d="M11058.93-20324.02l-.47 1.98-.16 2.04.16 2.04.48 1.98.4.95h-6.17v-9.94h6.16z" stroke="#333" stroke-width=".05" fill="#333"/><path d="M9701.18-20320l14.27-4.63v9.26z" stroke="#333" stroke-width="10" fill="#333"/><use xlink:href="#E" transform="matrix(1,0,0,1,10618.920380181164,-20484) translate(0.0049999999999954525 106.66666666666669)"/><path d="M11360-20712a8 8 0 0 1 8-8h1630.67a8 8 0 0 1 8 8v381.97a8 8 0 0 1-8 8H11368a8 8 0 0 1-8-8z" fill="none"/><use xlink:href="#F" transform="matrix(1,0,0,1,11360,-20720) translate(295.2777777777777 231)"/><use xlink:href="#z" transform="matrix(1,0,0,1,11360,-20720) translate(774.3888888888889 231)"/><use xlink:href="#G" transform="matrix(1,0,0,1,11360,-20720) translate(907.7222222222223 231)"/><path d="M15336-20540c-64.07 0-116 51.94-116 116v348c0 64.06 51.93 116 116 116h1314.67c64.06 0 116-51.94 116-116v-348c0-64.06-51.94-116-116-116z" stroke="#000" stroke-width="10" fill="#fff"/><g><use xlink:href="#p" transform="matrix(1,0,0,1,15228,-20532) translate(143.72222222222217 314)"/><use xlink:href="#z" transform="matrix(1,0,0,1,15228,-20532) translate(854.3888888888889 314)"/><use xlink:href="#H" transform="matrix(1,0,0,1,15228,-20532) translate(987.7222222222222 314)"/></g><path d="M12043.33-19490h1571.34a12 12 0 0 0 12-12v-716a12 12 0 0 1 12-12h1540.88" stroke="#333" stroke-width="10" fill="none"/><path d="M12043.46-19485.03h-5.13v-9.94h5.13z" stroke="#333" stroke-width=".05" fill="#333"/><path d="M15198.82-20230l-14.27 4.63v-9.26z" stroke="#333" stroke-width="10" fill="#333"/><path d="M15336-19520c-64.07 0-116 51.94-116 116v348c0 64.06 51.93 116 116 116h1314.67c64.06 0 116-51.94 116-116v-348c0-64.06-51.94-116-116-116z" stroke="#000" stroke-width="10" fill="#fff"/><g><use xlink:href="#I" transform="matrix(1,0,0,1,15228.000000031963,-19512) translate(321.5 314)"/><use xlink:href="#H" transform="matrix(1,0,0,1,15228.000000031963,-19512) translate(809.9444444444445 314)"/></g><path d="M15336-18540c-64.07 0-116 51.94-116 116v348c0 64.06 51.93 116 116 116h1314.67c64.06 0 116-51.94 116-116v-348c0-64.06-51.94-116-116-116z" stroke="#000" stroke-width="10" fill="#fff"/><g><use xlink:href="#u" transform="matrix(1,0,0,1,15228,-18532) translate(423.7222222222222 314)"/><use xlink:href="#J" transform="matrix(1,0,0,1,15228,-18532) translate(849.9444444444445 314)"/></g><path d="M15993.33-18930v349.55" stroke="#333" stroke-width="10" fill="none"/><path d="M15998.3-18929.87h-9.94v-5.13h9.95z" stroke="#333" stroke-width=".05" fill="#333"/><path d="M15993.33-18561.18l-4.63-14.27h9.27z" stroke="#333" stroke-width="10" fill="#333"/><path d="M15993.33-19950v389.55" stroke="#333" stroke-width="10" fill="none"/><path d="M15998.3-19949.87h-9.94v-5.13h9.95z" stroke="#333" stroke-width=".05" fill="#333"/><path d="M15993.33-19541.18l-4.63-14.27h9.27z" stroke="#333" stroke-width="10" fill="#333"/><path d="M16193.33-17187.5c0 110.46-89.54 200-200 200-110.45 0-200-89.54-200-200s89.55-200 200-200c110.46 0 200 89.54 200 200z" stroke="#000" stroke-width="10" fill="#fff"/><path d="M16113.33-17187.5c0 66.27-53.72 120-120 120-66.27 0-120-53.73-120-120 0-66.27 53.73-120 120-120 66.28 0 120 53.73 120 120z" stroke="#000" stroke-width="10"/><path d="M15993.33-17950v522.05" stroke="#333" stroke-width="10" fill="none"/><path d="M15998.3-17949.87h-9.94v-5.13h9.95z" stroke="#333" stroke-width=".05" fill="#333"/><path d="M15993.33-17408.68l-4.63-14.27h9.27z" stroke="#333" stroke-width="10" fill="#333"/><defs><path d="M232-93c-1 65-40 97-104 97C67 4 28-28 28-90v-158h33c8 89-33 224 67 224 102 0 64-133 71-224h33v155" id="K"/><path d="M135-143c-3-34-86-38-87 0 15 53 115 12 119 90S17 21 10-45l28-5c4 36 97 45 98 0-10-56-113-15-118-90-4-57 82-63 122-42 12 7 21 19 24 35" id="L"/><path d="M84 4C-5 8 30-112 23-190h32v120c0 31 7 50 39 49 72-2 45-101 50-169h31l1 190h-30c-1-10 1-25-2-33-11 22-28 36-60 37" id="M"/><path d="M141-36C126-15 110 5 73 4 37 3 15-17 15-53c-1-64 63-63 125-63 3-35-9-54-41-54-24 1-41 7-42 31l-33-3c5-37 33-52 76-52 45 0 72 20 72 64v82c-1 20 7 32 28 27v20c-31 9-61-2-59-35zM48-53c0 20 12 33 32 33 41-3 63-29 60-74-43 2-92-5-92 41zm25-158c8-23 27-35 38-54h36v5l-58 49H73" id="N"/><path d="M114-163C36-179 61-72 57 0H25l-1-190h30c1 12-1 29 2 39 6-27 23-49 58-41v29" id="O"/><path d="M24-231v-30h32v30H24zM24 0v-190h32V0H24" id="P"/><path d="M100-194c62-1 85 37 85 99 1 63-27 99-86 99S16-35 15-95c0-66 28-99 85-99zM99-20c44 1 53-31 53-75 0-43-8-75-51-75s-53 32-53 75 10 74 51 75" id="Q"/><g id="a"><use transform="matrix(0.4444444444444444,0,0,0.4444444444444444,0,0)" xlink:href="#K"/><use transform="matrix(0.4444444444444444,0,0,0.4444444444444444,115.1111111111111,0)" xlink:href="#L"/><use transform="matrix(0.4444444444444444,0,0,0.4444444444444444,195.1111111111111,0)" xlink:href="#M"/><use transform="matrix(0.4444444444444444,0,0,0.4444444444444444,284,0)" xlink:href="#N"/><use transform="matrix(0.4444444444444444,0,0,0.4444444444444444,372.8888888888889,0)" xlink:href="#O"/><use transform="matrix(0.4444444444444444,0,0,0.4444444444444444,425.7777777777778,0)" xlink:href="#P"/><use transform="matrix(0.4444444444444444,0,0,0.4444444444444444,460.88888888888897,0)" xlink:href="#Q"/></g><path d="M185-189c-5-48-123-54-124 2 14 75 158 14 163 119 3 78-121 87-175 55-17-10-28-26-33-46l33-7c5 56 141 63 141-1 0-78-155-14-162-118-5-82 145-84 179-34 5 7 8 16 11 25" id="R"/><path d="M59-47c-2 24 18 29 38 22v24C64 9 27 4 27-40v-127H5v-23h24l9-43h21v43h35v23H59v120" id="S"/><path d="M100-194c63 0 86 42 84 106H49c0 40 14 67 53 68 26 1 43-12 49-29l28 8c-11 28-37 45-77 45C44 4 14-33 15-96c1-61 26-98 85-98zm52 81c6-60-76-77-97-28-3 7-6 17-6 28h103" id="T"/><path d="M210-169c-67 3-38 105-44 169h-31v-121c0-29-5-50-35-48C34-165 62-65 56 0H25l-1-190h30c1 10-1 24 2 32 10-44 99-50 107 0 11-21 27-35 58-36 85-2 47 119 55 194h-31v-121c0-29-5-49-35-48" id="U"/><path d="M141-36C126-15 110 5 73 4 37 3 15-17 15-53c-1-64 63-63 125-63 3-35-9-54-41-54-24 1-41 7-42 31l-33-3c5-37 33-52 76-52 45 0 72 20 72 64v82c-1 20 7 32 28 27v20c-31 9-61-2-59-35zM48-53c0 20 12 33 32 33 41-3 63-29 60-74-43 2-92-5-92 41" id="V"/><g id="b"><use transform="matrix(0.4444444444444444,0,0,0.4444444444444444,0,0)" xlink:href="#R"/><use transform="matrix(0.4444444444444444,0,0,0.4444444444444444,106.66666666666666,0)" xlink:href="#P"/><use transform="matrix(0.4444444444444444,0,0,0.4444444444444444,141.77777777777777,0)" xlink:href="#L"/><use transform="matrix(0.4444444444444444,0,0,0.4444444444444444,221.77777777777777,0)" xlink:href="#S"/><use transform="matrix(0.4444444444444444,0,0,0.4444444444444444,266.22222222222223,0)" xlink:href="#T"/><use transform="matrix(0.4444444444444444,0,0,0.4444444444444444,355.1111111111111,0)" xlink:href="#U"/><use transform="matrix(0.4444444444444444,0,0,0.4444444444444444,488,0)" xlink:href="#V"/></g><path d="M205 0l-28-72H64L36 0H1l101-248h38L239 0h-34zm-38-99l-47-123c-12 45-31 82-46 123h93" id="W"/><path d="M108 0H70L1-190h34L89-25l56-165h34" id="X"/><path d="M117-194c89-4 53 116 60 194h-32v-121c0-31-8-49-39-48C34-167 62-67 57 0H25l-1-190h30c1 10-1 24 2 32 11-22 29-35 61-36" id="Y"/><g id="c"><use transform="matrix(0.5925925925925927,0,0,0.5925925925925927,0,0)" xlink:href="#W"/><use transform="matrix(0.5925925925925927,0,0,0.5925925925925927,138.07407407407408,0)" xlink:href="#X"/><use transform="matrix(0.5925925925925927,0,0,0.5925925925925927,244.74074074074076,0)" xlink:href="#P"/><use transform="matrix(0.5925925925925927,0,0,0.5925925925925927,291.5555555555556,0)" xlink:href="#V"/><use transform="matrix(0.5925925925925927,0,0,0.5925925925925927,410.07407407407413,0)" xlink:href="#S"/><use transform="matrix(0.5925925925925927,0,0,0.5925925925925927,469.33333333333337,0)" xlink:href="#P"/><use transform="matrix(0.5925925925925927,0,0,0.5925925925925927,516.1481481481482,0)" xlink:href="#Q"/><use transform="matrix(0.5925925925925927,0,0,0.5925925925925927,634.6666666666667,0)" xlink:href="#Y"/><use transform="matrix(0.5925925925925927,0,0,0.5925925925925927,753.1851851851853,0)" xlink:href="#L"/></g><path d="M96-169c-40 0-48 33-48 73s9 75 48 75c24 0 41-14 43-38l32 2c-6 37-31 61-74 61-59 0-76-41-82-99-10-93 101-131 147-64 4 7 5 14 7 22l-32 3c-4-21-16-35-41-35" id="Z"/><path d="M143 0L79-87 56-68V0H24v-261h32v163l83-92h37l-77 82L181 0h-38" id="aa"/><g id="d"><use transform="matrix(0.5925925925925927,0,0,0.5925925925925927,0,0)" xlink:href="#S"/><use transform="matrix(0.5925925925925927,0,0,0.5925925925925927,59.25925925925927,0)" xlink:href="#V"/><use transform="matrix(0.5925925925925927,0,0,0.5925925925925927,177.7777777777778,0)" xlink:href="#Z"/><use transform="matrix(0.5925925925925927,0,0,0.5925925925925927,284.44444444444446,0)" xlink:href="#aa"/></g><path d="M33 0v-248h34V0H33" id="ab"/><g id="e"><use transform="matrix(0.4444444444444444,0,0,0.4444444444444444,0,0)" xlink:href="#ab"/><use transform="matrix(0.4444444444444444,0,0,0.4444444444444444,44.44444444444444,0)" xlink:href="#Y"/><use transform="matrix(0.4444444444444444,0,0,0.4444444444444444,133.33333333333331,0)" xlink:href="#L"/><use transform="matrix(0.4444444444444444,0,0,0.4444444444444444,213.33333333333331,0)" xlink:href="#T"/><use transform="matrix(0.4444444444444444,0,0,0.4444444444444444,302.2222222222222,0)" xlink:href="#O"/><use transform="matrix(0.4444444444444444,0,0,0.4444444444444444,355.1111111111111,0)" xlink:href="#T"/></g><path d="M212-179c-10-28-35-45-73-45-59 0-87 40-87 99 0 60 29 101 89 101 43 0 62-24 78-52l27 14C228-24 195 4 139 4 59 4 22-46 18-125c-6-104 99-153 187-111 19 9 31 26 39 46" id="ac"/><path d="M85-194c31 0 48 13 60 33l-1-100h32l1 261h-30c-2-10 0-23-3-31C134-8 116 4 85 4 32 4 16-35 15-94c0-66 23-100 70-100zm9 24c-40 0-46 34-46 75 0 40 6 74 45 74 42 0 51-32 51-76 0-42-9-74-50-73" id="ad"/><path d="M177-190C167-65 218 103 67 71c-23-6-38-20-44-43l32-5c15 47 100 32 89-28v-30C133-14 115 1 83 1 29 1 15-40 15-95c0-56 16-97 71-98 29-1 48 16 59 35 1-10 0-23 2-32h30zM94-22c36 0 50-32 50-73 0-42-14-75-50-75-39 0-46 34-46 75s6 73 46 73" id="ae"/><g id="f"><use transform="matrix(0.4444444444444444,0,0,0.4444444444444444,0,0)" xlink:href="#ac"/><use transform="matrix(0.4444444444444444,0,0,0.4444444444444444,115.1111111111111,0)" xlink:href="#Q"/><use transform="matrix(0.4444444444444444,0,0,0.4444444444444444,204,0)" xlink:href="#ad"/><use transform="matrix(0.4444444444444444,0,0,0.4444444444444444,292.8888888888889,0)" xlink:href="#P"/><use transform="matrix(0.4444444444444444,0,0,0.4444444444444444,328,0)" xlink:href="#ae"/><use transform="matrix(0.4444444444444444,0,0,0.4444444444444444,416.8888888888889,0)" xlink:href="#Q"/></g><g id="g"><use transform="matrix(0.4444444444444444,0,0,0.4444444444444444,0,0)" xlink:href="#ab"/><use transform="matrix(0.4444444444444444,0,0,0.4444444444444444,44.44444444444444,0)" xlink:href="#Y"/><use transform="matrix(0.4444444444444444,0,0,0.4444444444444444,133.33333333333331,0)" xlink:href="#P"/><use transform="matrix(0.4444444444444444,0,0,0.4444444444444444,168.44444444444443,0)" xlink:href="#Z"/><use transform="matrix(0.4444444444444444,0,0,0.4444444444444444,248.44444444444443,0)" xlink:href="#P"/><use transform="matrix(0.4444444444444444,0,0,0.4444444444444444,283.55555555555554,0)" xlink:href="#V"/></g><use transform="matrix(0.4444444444444444,0,0,0.4444444444444444,0,0)" xlink:href="#V" id="h"/><path d="M160-131c35 5 61 23 61 61C221 17 115-2 30 0v-248c76 3 177-17 177 60 0 33-19 50-47 57zm-97-11c50-1 110 9 110-42 0-47-63-36-110-37v79zm0 115c55-2 124 14 124-45 0-56-70-42-124-44v89" id="af"/><g id="i"><use transform="matrix(0.4444444444444444,0,0,0.4444444444444444,0,0)" xlink:href="#af"/><use transform="matrix(0.4444444444444444,0,0,0.4444444444444444,106.66666666666666,0)" xlink:href="#M"/><use transform="matrix(0.4444444444444444,0,0,0.4444444444444444,195.55555555555554,0)" xlink:href="#L"/><use transform="matrix(0.4444444444444444,0,0,0.4444444444444444,275.55555555555554,0)" xlink:href="#Z"/><use transform="matrix(0.4444444444444444,0,0,0.4444444444444444,355.55555555555554,0)" xlink:href="#V"/></g><path d="M24 0v-261h32V0H24" id="ag"/><g id="j"><use transform="matrix(0.4444444444444444,0,0,0.4444444444444444,0,0)" xlink:href="#R"/><use transform="matrix(0.4444444444444444,0,0,0.4444444444444444,106.66666666666666,0)" xlink:href="#T"/><use transform="matrix(0.4444444444444444,0,0,0.4444444444444444,195.55555555555554,0)" xlink:href="#ag"/><use transform="matrix(0.4444444444444444,0,0,0.4444444444444444,230.66666666666666,0)" xlink:href="#T"/><use transform="matrix(0.4444444444444444,0,0,0.4444444444444444,319.55555555555554,0)" xlink:href="#Z"/><use transform="matrix(0.4444444444444444,0,0,0.4444444444444444,399.55555555555554,0)" xlink:href="#P"/><use transform="matrix(0.4444444444444444,0,0,0.4444444444444444,434.66666666666663,0)" xlink:href="#Q"/><use transform="matrix(0.4444444444444444,0,0,0.4444444444444444,523.5555555555555,0)" xlink:href="#Y"/><use transform="matrix(0.4444444444444444,0,0,0.4444444444444444,612.4444444444445,0)" xlink:href="#V"/></g><use transform="matrix(0.4444444444444444,0,0,0.4444444444444444,0,0)" xlink:href="#Q" id="k"/><path d="M63-220v92h138v28H63V0H30v-248h175v28H63" id="ah"/><g id="l"><use transform="matrix(0.4444444444444444,0,0,0.4444444444444444,0,0)" xlink:href="#ah"/><use transform="matrix(0.4444444444444444,0,0,0.4444444444444444,97.33333333333333,0)" xlink:href="#P"/><use transform="matrix(0.4444444444444444,0,0,0.4444444444444444,132.44444444444443,0)" xlink:href="#ag"/><use transform="matrix(0.4444444444444444,0,0,0.4444444444444444,167.55555555555554,0)" xlink:href="#S"/><use transform="matrix(0.4444444444444444,0,0,0.4444444444444444,212,0)" xlink:href="#O"/><use transform="matrix(0.4444444444444444,0,0,0.4444444444444444,264.8888888888889,0)" xlink:href="#Q"/></g><path d="M30-248c87 1 191-15 191 75 0 78-77 80-158 76V0H30v-248zm33 125c57 0 124 11 124-50 0-59-68-47-124-48v98" id="ai"/><g id="m"><use transform="matrix(0.4444444444444444,0,0,0.4444444444444444,0,0)" xlink:href="#ai"/><use transform="matrix(0.4444444444444444,0,0,0.4444444444444444,106.66666666666666,0)" xlink:href="#O"/><use transform="matrix(0.4444444444444444,0,0,0.4444444444444444,159.55555555555554,0)" xlink:href="#Q"/><use transform="matrix(0.4444444444444444,0,0,0.4444444444444444,248.44444444444443,0)" xlink:href="#Z"/><use transform="matrix(0.4444444444444444,0,0,0.4444444444444444,328.44444444444446,0)" xlink:href="#T"/><use transform="matrix(0.4444444444444444,0,0,0.4444444444444444,417.33333333333337,0)" xlink:href="#L"/><use transform="matrix(0.4444444444444444,0,0,0.4444444444444444,497.3333333333334,0)" xlink:href="#L"/><use transform="matrix(0.4444444444444444,0,0,0.4444444444444444,577.3333333333334,0)" xlink:href="#V"/></g><path d="M240 0l2-218c-23 76-54 145-80 218h-23L58-218 59 0H30v-248h44l77 211c21-75 51-140 76-211h43V0h-30" id="aj"/><g id="n"><use transform="matrix(0.4444444444444444,0,0,0.4444444444444444,0,0)" xlink:href="#aj"/><use transform="matrix(0.4444444444444444,0,0,0.4444444444444444,132.88888888888889,0)" xlink:href="#V"/><use transform="matrix(0.4444444444444444,0,0,0.4444444444444444,221.77777777777777,0)" xlink:href="#Y"/><use transform="matrix(0.4444444444444444,0,0,0.4444444444444444,310.66666666666663,0)" xlink:href="#ad"/><use transform="matrix(0.4444444444444444,0,0,0.4444444444444444,399.55555555555554,0)" xlink:href="#V"/></g><path d="M145-31C134-9 116 4 85 4 32 4 16-35 15-94c0-59 17-99 70-100 32-1 48 14 60 33 0-11-1-24 2-32h30l-1 268h-32zM93-21c41 0 51-33 51-76s-8-73-50-73c-40 0-46 35-46 75s5 74 45 74" id="ak"/><path d="M96-169c-40 0-48 33-48 73s9 75 48 75c24 0 41-14 43-38l32 2c-6 37-31 61-74 61-59 0-76-41-82-99-10-93 101-131 147-64 4 7 5 14 7 22l-32 3c-4-21-16-35-41-35zm3 187c19-1 33 8 33 26 0 31-30 33-64 32V58c18 2 39 4 41-13 1-15-18-13-34-13L87 0h19" id="al"/><path d="M141-36C126-15 110 5 73 4 37 3 15-17 15-53c-1-64 63-63 125-63 3-35-9-54-41-54-24 1-41 7-42 31l-33-3c5-37 33-52 76-52 45 0 72 20 72 64v82c-1 20 7 32 28 27v20c-31 9-61-2-59-35zM48-53c0 20 12 33 32 33 41-3 63-29 60-74-43 2-92-5-92 41zm117-205c-3 23-9 48-36 47-26-1-65-44-74 0H39c4-23 8-48 36-47s64 44 74 0h16" id="am"/><g id="o"><use transform="matrix(0.4444444444444444,0,0,0.4444444444444444,0,0)" xlink:href="#O"/><use transform="matrix(0.4444444444444444,0,0,0.4444444444444444,52.888888888888886,0)" xlink:href="#T"/><use transform="matrix(0.4444444444444444,0,0,0.4444444444444444,141.77777777777777,0)" xlink:href="#ak"/><use transform="matrix(0.4444444444444444,0,0,0.4444444444444444,230.66666666666666,0)" xlink:href="#M"/><use transform="matrix(0.4444444444444444,0,0,0.4444444444444444,319.55555555555554,0)" xlink:href="#P"/><use transform="matrix(0.4444444444444444,0,0,0.4444444444444444,354.66666666666663,0)" xlink:href="#L"/><use transform="matrix(0.4444444444444444,0,0,0.4444444444444444,434.66666666666663,0)" xlink:href="#P"/><use transform="matrix(0.4444444444444444,0,0,0.4444444444444444,469.77777777777777,0)" xlink:href="#al"/><use transform="matrix(0.4444444444444444,0,0,0.4444444444444444,549.7777777777777,0)" xlink:href="#am"/><use transform="matrix(0.4444444444444444,0,0,0.4444444444444444,638.6666666666666,0)" xlink:href="#Q"/></g><g id="p"><use transform="matrix(0.4444444444444444,0,0,0.4444444444444444,0,0)" xlink:href="#ai"/><use transform="matrix(0.4444444444444444,0,0,0.4444444444444444,106.66666666666666,0)" xlink:href="#O"/><use transform="matrix(0.4444444444444444,0,0,0.4444444444444444,159.55555555555554,0)" xlink:href="#Q"/><use transform="matrix(0.4444444444444444,0,0,0.4444444444444444,248.44444444444443,0)" xlink:href="#Z"/><use transform="matrix(0.4444444444444444,0,0,0.4444444444444444,328.44444444444446,0)" xlink:href="#T"/><use transform="matrix(0.4444444444444444,0,0,0.4444444444444444,417.33333333333337,0)" xlink:href="#L"/><use transform="matrix(0.4444444444444444,0,0,0.4444444444444444,497.3333333333334,0)" xlink:href="#L"/><use transform="matrix(0.4444444444444444,0,0,0.4444444444444444,577.3333333333334,0)" xlink:href="#V"/></g><use transform="matrix(0.4444444444444444,0,0,0.4444444444444444,0,0)" xlink:href="#V" id="q"/><path d="M30-248c118-7 216 8 213 122C240-48 200 0 122 0H30v-248zM63-27c89 8 146-16 146-99s-60-101-146-95v194" id="an"/><g id="r"><use transform="matrix(0.4444444444444444,0,0,0.4444444444444444,0,0)" xlink:href="#an"/><use transform="matrix(0.4444444444444444,0,0,0.4444444444444444,115.1111111111111,0)" xlink:href="#T"/><use transform="matrix(0.4444444444444444,0,0,0.4444444444444444,204,0)" xlink:href="#X"/><use transform="matrix(0.4444444444444444,0,0,0.4444444444444444,284,0)" xlink:href="#Q"/><use transform="matrix(0.4444444444444444,0,0,0.4444444444444444,372.8888888888889,0)" xlink:href="#ag"/><use transform="matrix(0.4444444444444444,0,0,0.4444444444444444,408,0)" xlink:href="#X"/><use transform="matrix(0.4444444444444444,0,0,0.4444444444444444,488,0)" xlink:href="#T"/></g><use transform="matrix(0.4444444444444444,0,0,0.4444444444444444,0,0)" xlink:href="#V" id="s"/><path d="M233-177c-1 41-23 64-60 70L243 0h-38l-65-103H63V0H30v-248c88 3 205-21 203 71zM63-129c60-2 137 13 137-47 0-61-80-42-137-45v92" id="ao"/><path d="M115-194c55 1 70 41 70 98S169 2 115 4C84 4 66-9 55-30l1 105H24l-1-265h31l2 30c10-21 28-34 59-34zm-8 174c40 0 45-34 45-75s-6-73-45-74c-42 0-51 32-51 76 0 43 10 73 51 73" id="ap"/><g id="t"><use transform="matrix(0.4444444444444444,0,0,0.4444444444444444,0,0)" xlink:href="#ao"/><use transform="matrix(0.4444444444444444,0,0,0.4444444444444444,115.1111111111111,0)" xlink:href="#T"/><use transform="matrix(0.4444444444444444,0,0,0.4444444444444444,204,0)" xlink:href="#L"/><use transform="matrix(0.4444444444444444,0,0,0.4444444444444444,284,0)" xlink:href="#ap"/><use transform="matrix(0.4444444444444444,0,0,0.4444444444444444,372.8888888888889,0)" xlink:href="#Q"/><use transform="matrix(0.4444444444444444,0,0,0.4444444444444444,461.7777777777778,0)" xlink:href="#L"/><use transform="matrix(0.4444444444444444,0,0,0.4444444444444444,541.7777777777778,0)" xlink:href="#S"/><use transform="matrix(0.4444444444444444,0,0,0.4444444444444444,586.2222222222223,0)" xlink:href="#V"/></g><path d="M141 0L90-78 38 0H4l68-98-65-92h35l48 74 47-74h35l-64 92 68 98h-35" id="aq"/><path d="M115-194c53 0 69 39 70 98 0 66-23 100-70 100C84 3 66-7 56-30L54 0H23l1-261h32v101c10-23 28-34 59-34zm-8 174c40 0 45-34 45-75 0-40-5-75-45-74-42 0-51 32-51 76 0 43 10 73 51 73" id="ar"/><g id="u"><use transform="matrix(0.4444444444444444,0,0,0.4444444444444444,0,0)" xlink:href="#T"/><use transform="matrix(0.4444444444444444,0,0,0.4444444444444444,88.88888888888889,0)" xlink:href="#aq"/><use transform="matrix(0.4444444444444444,0,0,0.4444444444444444,168.88888888888889,0)" xlink:href="#P"/><use transform="matrix(0.4444444444444444,0,0,0.4444444444444444,204,0)" xlink:href="#ar"/><use transform="matrix(0.4444444444444444,0,0,0.4444444444444444,292.8888888888889,0)" xlink:href="#T"/></g><g id="v"><use transform="matrix(0.4444444444444444,0,0,0.4444444444444444,0,0)" xlink:href="#S"/><use transform="matrix(0.4444444444444444,0,0,0.4444444444444444,44.44444444444444,0)" xlink:href="#T"/><use transform="matrix(0.4444444444444444,0,0,0.4444444444444444,133.33333333333331,0)" xlink:href="#ag"/><use transform="matrix(0.4444444444444444,0,0,0.4444444444444444,168.44444444444443,0)" xlink:href="#V"/></g><path d="M30 0v-248h187v28H63v79h144v27H63v87h162V0H30" id="as"/><path d="M106-169C34-169 62-67 57 0H25v-261h32l-1 103c12-21 28-36 61-36 89 0 53 116 60 194h-32v-121c2-32-8-49-39-48" id="at"/><g id="w"><use transform="matrix(0.4444444444444444,0,0,0.4444444444444444,0,0)" xlink:href="#as"/><use transform="matrix(0.4444444444444444,0,0,0.4444444444444444,106.66666666666666,0)" xlink:href="#L"/><use transform="matrix(0.4444444444444444,0,0,0.4444444444444444,186.66666666666666,0)" xlink:href="#Z"/><use transform="matrix(0.4444444444444444,0,0,0.4444444444444444,266.66666666666663,0)" xlink:href="#Q"/><use transform="matrix(0.4444444444444444,0,0,0.4444444444444444,355.55555555555554,0)" xlink:href="#ag"/><use transform="matrix(0.4444444444444444,0,0,0.4444444444444444,390.66666666666663,0)" xlink:href="#at"/><use transform="matrix(0.4444444444444444,0,0,0.4444444444444444,479.55555555555554,0)" xlink:href="#T"/></g><g id="x"><use transform="matrix(0.4444444444444444,0,0,0.4444444444444444,0,0)" xlink:href="#W"/><use transform="matrix(0.4444444444444444,0,0,0.4444444444444444,106.66666666666666,0)" xlink:href="#al"/><use transform="matrix(0.4444444444444444,0,0,0.4444444444444444,186.66666666666666,0)" xlink:href="#am"/><use transform="matrix(0.4444444444444444,0,0,0.4444444444444444,275.55555555555554,0)" xlink:href="#Q"/></g><g id="y"><use transform="matrix(0.4444444444444444,0,0,0.4444444444444444,0,0)" xlink:href="#R"/><use transform="matrix(0.4444444444444444,0,0,0.4444444444444444,106.66666666666666,0)" xlink:href="#T"/><use transform="matrix(0.4444444444444444,0,0,0.4444444444444444,195.55555555555554,0)" xlink:href="#ag"/><use transform="matrix(0.4444444444444444,0,0,0.4444444444444444,230.66666666666666,0)" xlink:href="#T"/><use transform="matrix(0.4444444444444444,0,0,0.4444444444444444,319.55555555555554,0)" xlink:href="#Z"/><use transform="matrix(0.4444444444444444,0,0,0.4444444444444444,399.55555555555554,0)" xlink:href="#P"/><use transform="matrix(0.4444444444444444,0,0,0.4444444444444444,434.66666666666663,0)" xlink:href="#Q"/><use transform="matrix(0.4444444444444444,0,0,0.4444444444444444,523.5555555555555,0)" xlink:href="#Y"/><use transform="matrix(0.4444444444444444,0,0,0.4444444444444444,612.4444444444445,0)" xlink:href="#V"/></g><use transform="matrix(0.4444444444444444,0,0,0.4444444444444444,0,0)" xlink:href="#Q" id="z"/><g id="A"><use transform="matrix(0.4444444444444444,0,0,0.4444444444444444,0,0)" xlink:href="#U"/><use transform="matrix(0.4444444444444444,0,0,0.4444444444444444,132.88888888888889,0)" xlink:href="#V"/><use transform="matrix(0.4444444444444444,0,0,0.4444444444444444,221.77777777777777,0)" xlink:href="#ap"/><use transform="matrix(0.4444444444444444,0,0,0.4444444444444444,310.66666666666663,0)" xlink:href="#V"/></g><g id="B"><use transform="matrix(0.4444444444444444,0,0,0.4444444444444444,0,0)" xlink:href="#ad"/><use transform="matrix(0.4444444444444444,0,0,0.4444444444444444,88.88888888888889,0)" xlink:href="#Q"/></g><path d="M137 0h-34L2-248h35l83 218 83-218h36" id="au"/><g id="C"><use transform="matrix(0.4444444444444444,0,0,0.4444444444444444,0,0)" xlink:href="#au"/><use transform="matrix(0.4444444444444444,0,0,0.4444444444444444,97.77777777777777,0)" xlink:href="#Q"/><use transform="matrix(0.4444444444444444,0,0,0.4444444444444444,186.66666666666666,0)" xlink:href="#Q"/></g><g id="D"><use transform="matrix(0.29629629629629634,0,0,0.29629629629629634,0,0)" xlink:href="#R"/><use transform="matrix(0.29629629629629634,0,0,0.29629629629629634,71.11111111111111,0)" xlink:href="#P"/><use transform="matrix(0.29629629629629634,0,0,0.29629629629629634,94.51851851851853,0)" xlink:href="#U"/></g><path d="M190 0L58-211 59 0H30v-248h39L202-35l-2-213h31V0h-41" id="av"/><g id="E"><use transform="matrix(0.3703703703703704,0,0,0.3703703703703704,0,0)" xlink:href="#av"/><use transform="matrix(0.3703703703703704,0,0,0.3703703703703704,95.92592592592594,0)" xlink:href="#am"/><use transform="matrix(0.3703703703703704,0,0,0.3703703703703704,170,0)" xlink:href="#Q"/></g><path d="M26 75v-336h71v23H56V52h41v23H26" id="aw"/><path d="M140-251c81 0 123 46 123 126C263-46 219 4 140 4 59 4 17-45 17-125s42-126 123-126zm0 227c63 0 89-41 89-101s-29-99-89-99c-61 0-89 39-89 99S79-25 140-24" id="ax"/><g id="F"><use transform="matrix(0.4444444444444444,0,0,0.4444444444444444,0,0)" xlink:href="#aw"/><use transform="matrix(0.4444444444444444,0,0,0.4444444444444444,44.44444444444444,0)" xlink:href="#ax"/><use transform="matrix(0.4444444444444444,0,0,0.4444444444444444,168.88888888888889,0)" xlink:href="#ag"/><use transform="matrix(0.4444444444444444,0,0,0.4444444444444444,204,0)" xlink:href="#at"/><use transform="matrix(0.4444444444444444,0,0,0.4444444444444444,292.8888888888889,0)" xlink:href="#V"/><use transform="matrix(0.4444444444444444,0,0,0.4444444444444444,381.7777777777778,0)" xlink:href="#O"/></g><path d="M3 75V52h41v-290H3v-23h71V75H3" id="ay"/><g id="G"><use transform="matrix(0.4444444444444444,0,0,0.4444444444444444,0,0)" xlink:href="#aj"/><use transform="matrix(0.4444444444444444,0,0,0.4444444444444444,132.88888888888889,0)" xlink:href="#V"/><use transform="matrix(0.4444444444444444,0,0,0.4444444444444444,221.77777777777777,0)" xlink:href="#ap"/><use transform="matrix(0.4444444444444444,0,0,0.4444444444444444,310.66666666666663,0)" xlink:href="#V"/><use transform="matrix(0.4444444444444444,0,0,0.4444444444444444,399.55555555555554,0)" xlink:href="#ay"/></g><g id="H"><use transform="matrix(0.4444444444444444,0,0,0.4444444444444444,0,0)" xlink:href="#aj"/><use transform="matrix(0.4444444444444444,0,0,0.4444444444444444,132.88888888888889,0)" xlink:href="#V"/><use transform="matrix(0.4444444444444444,0,0,0.4444444444444444,221.77777777777777,0)" xlink:href="#ap"/><use transform="matrix(0.4444444444444444,0,0,0.4444444444444444,310.66666666666663,0)" xlink:href="#V"/></g><g id="I"><use transform="matrix(0.4444444444444444,0,0,0.4444444444444444,0,0)" xlink:href="#ab"/><use transform="matrix(0.4444444444444444,0,0,0.4444444444444444,44.44444444444444,0)" xlink:href="#Y"/><use transform="matrix(0.4444444444444444,0,0,0.4444444444444444,133.33333333333331,0)" xlink:href="#L"/><use transform="matrix(0.4444444444444444,0,0,0.4444444444444444,213.33333333333331,0)" xlink:href="#T"/><use transform="matrix(0.4444444444444444,0,0,0.4444444444444444,302.2222222222222,0)" xlink:href="#O"/><use transform="matrix(0.4444444444444444,0,0,0.4444444444444444,355.1111111111111,0)" xlink:href="#T"/></g><g id="J"><use transform="matrix(0.4444444444444444,0,0,0.4444444444444444,0,0)" xlink:href="#S"/><use transform="matrix(0.4444444444444444,0,0,0.4444444444444444,44.44444444444444,0)" xlink:href="#T"/><use transform="matrix(0.4444444444444444,0,0,0.4444444444444444,133.33333333333331,0)" xlink:href="#ag"/><use transform="matrix(0.4444444444444444,0,0,0.4444444444444444,168.44444444444443,0)" xlink:href="#V"/></g></defs></g></svg>