<svg xmlns="http://www.w3.org/2000/svg" xmlns:xlink="http://www.w3.org/1999/xlink" xmlns:lucid="lucid" width="9610" height="6986"><g transform="translate(4370.333333333333 3961)" lucid:page-tab-id="7Y_iXZJ~mZM3"><path d="M-4500-4000H5500v7000H-4500z" fill="#fff"/><path d="M-4345.33-3436v-492a8 8 0 0 1 8-8h5612v500zM1274.67-3936h3932a8 8 0 0 1 8 8v492h-3940zM1274.67 3000h-5612a8 8 0 0 1-8-8v-6428h5620zM5214.67-3436v6428a8 8 0 0 1-8 8h-3932v-6436z" stroke="#000" stroke-width="10" fill="#fff"/><use xlink:href="#a" transform="matrix(1,0,0,1,-4345.333333333333,-3936) translate(2535.1111111111113 282)"/><use xlink:href="#b" transform="matrix(1,0,0,1,1274.666666666667,-3936) translate(1681.5555555555557 282)"/><path d="M-1335.33-2896c0 110.46-89.55 200-200 200-110.46 0-200-89.54-200-200s89.54-200 200-200c110.45 0 200 89.54 200 200z" stroke="#000" stroke-width="10"/><path d="M2587.33-2176c-64.06 0-116 51.93-116 116v348c0 64.07 51.94 116 116 116H3902c64.07 0 116-51.93 116-116v-348c0-64.07-51.93-116-116-116z" stroke="#000" stroke-width="10" fill="#fff"/><use xlink:href="#c" transform="matrix(1,0,0,1,2479.333333333335,-2168) translate(55.5 314)"/><use xlink:href="#d" transform="matrix(1,0,0,1,2479.333333333335,-2168) translate(766.1666666666667 314)"/><use xlink:href="#e" transform="matrix(1,0,0,1,2479.333333333335,-2168) translate(899.5 314)"/><path d="M2587.33-1016c-64.06 0-116 51.93-116 116v348c0 64.06 51.94 116 116 116H3902c64.07 0 116-51.94 116-116v-348c0-64.07-51.93-116-116-116z" stroke="#000" stroke-width="10" fill="#fff"/><use xlink:href="#f" transform="matrix(1,0,0,1,2479.333333333335,-1008) translate(188.83333333333337 314)"/><use xlink:href="#d" transform="matrix(1,0,0,1,2479.333333333335,-1008) translate(632.8333333333334 314)"/><use xlink:href="#e" transform="matrix(1,0,0,1,2479.333333333335,-1008) translate(766.1666666666666 314)"/><path d="M3244.67-1586v529.55" stroke="#333" stroke-width="10" fill="none"/><path d="M3249.64-1585.87h-9.95v-5.13h9.94z" stroke="#333" stroke-width=".05" fill="#333"/><path d="M3244.67-1037.18l-4.64-14.27h9.27z" stroke="#333" stroke-width="10" fill="#333"/><path d="M-2192.67-2316c-64.06 0-116 51.93-116 116v348c0 64.07 51.94 116 116 116H-878c64.07 0 116-51.93 116-116v-348c0-64.07-51.93-116-116-116z" stroke="#000" stroke-width="10" fill="#fff"/><use xlink:href="#g" transform="matrix(1,0,0,1,-2300.6666666666642,-2308) translate(352.3888888888889 314)"/><use xlink:href="#h" transform="matrix(1,0,0,1,-2300.6666666666642,-2308) translate(921.2777777777778 314)"/><path d="M-1535.33-2686v329.55" stroke="#333" stroke-width="10" fill="none"/><path d="M-1535.36-2691l4.42-.05.58-.02v5.2h-9.95v-5.23z" stroke="#333" stroke-width=".05" fill="#333"/><path d="M-1535.33-2337.18l-4.64-14.27h9.27z" stroke="#333" stroke-width="10" fill="#333"/><path d="M-2172.27-1051.17c-64.07 0-116 51.93-116 116v348c0 64.06 51.93 116 116 116H-857.6c64.06 0 116-51.94 116-116v-348c0-64.07-51.94-116-116-116z" stroke="#000" stroke-width="10" fill="#fff"/><use xlink:href="#i" transform="matrix(1,0,0,1,-2280.2714688011874,-1043.1726100277347) translate(201.94444444444434 314)"/><use xlink:href="#j" transform="matrix(1,0,0,1,-2280.2714688011874,-1043.1726100277347) translate(982.3888888888889 314)"/><path d="M-1520.6 49.48a8 8 0 0 1 11.32 0l188.68 188.7a8 8 0 0 1 0 11.3l-188.68 188.7a8 8 0 0 1-11.32 0l-188.68-188.7a8 8 0 0 1 0-11.3z" stroke="#000" stroke-width="10" fill="#fff"/><path d="M-1514.94 450.53V593a1.67 1.67 0 0 0 1.67 1.68 1.67 1.67 0 0 1 1.66 1.67v112.03" stroke="#333" stroke-width="10" fill="none"/><path d="M-1518.96 444.9l2 .47 2.02.16 2.04-.16 1.98-.48.96-.4v6.16h-9.95v-6.16z" stroke="#333" stroke-width=".05" fill="#333"/><path d="M-1511.6 727.65l-4.64-14.27h9.27z" stroke="#333" stroke-width="10" fill="#333"/><use xlink:href="#k" transform="matrix(1,0,0,1,-1506.9381354358902,499.4595463578621) translate(0.0049999999999954525 85.33333333333334)"/><path d="M-3184.94 243.83c0 110.45-89.54 200-200 200-110.45 0-200-89.55-200-200 0-110.46 89.55-200 200-200 110.46 0 200 89.54 200 200z" stroke="#000" stroke-width="10" fill="#fff"/><path d="M-3264.94 243.83c0 66.27-53.72 120-120 120-66.27 0-120-53.73-120-120 0-66.28 53.73-120 120-120 66.28 0 120 53.72 120 120z" stroke="#000" stroke-width="10"/><path d="M-1721.64 243.83H-3144.5" stroke="#333" stroke-width="10" fill="none"/><path d="M-1716 239.8l-.48 2-.16 2.03.16 2.03.48 2 .4.94h-6.17v-9.95h6.16z" stroke="#333" stroke-width=".05" fill="#333"/><path d="M-3163.76 243.83l14.27-4.64v9.26z" stroke="#333" stroke-width="10" fill="#333"/><use xlink:href="#l" transform="matrix(1,0,0,1,-2176.814900046538,79.8273899722653) translate(0.0049999999999954525 106.66666666666669)"/><path d="M-1424.94-162.16a8 8 0 0 1 8-8H213.73a8 8 0 0 1 8 8V219.8a8 8 0 0 1-8 8h-1630.67a8 8 0 0 1-8-8z" fill="none"/><use xlink:href="#m" transform="matrix(1,0,0,1,-1424.9381354678528,-170.15841321553944) translate(117.72222222222217 231)"/><use xlink:href="#n" transform="matrix(1,0,0,1,-1424.9381354678528,-170.15841321553944) translate(818.6111111111111 231)"/><path d="M-1514.94-461.17V6.68" stroke="#333" stroke-width="10" fill="none"/><path d="M-1509.96-461.04h-9.95v-5.13h9.94z" stroke="#333" stroke-width=".05" fill="#333"/><path d="M-1514.94 25.94l-4.63-14.26h9.27z" stroke="#333" stroke-width="10" fill="#333"/><path d="M-2168.94 748.83c-64.06 0-116 51.93-116 116v348c0 64.06 51.94 116 116 116h1314.67c64.06 0 116-51.94 116-116v-348c0-64.07-51.94-116-116-116z" stroke="#000" stroke-width="10" fill="#fff"/><use xlink:href="#o" transform="matrix(1,0,0,1,-2276.9381354678526,756.8273899722655) translate(348.16666666666663 218)"/><use xlink:href="#p" transform="matrix(1,0,0,1,-2276.9381354678526,756.8273899722655) translate(1093.9444444444443 218)"/><use xlink:href="#q" transform="matrix(1,0,0,1,-2276.9381354678526,756.8273899722655) translate(423.5 410)"/><path d="M-2188.94 1968.83c-64.06 0-116 51.93-116 116v348c0 64.06 51.94 116 116 116h1314.67c64.06 0 116-51.94 116-116v-348c0-64.07-51.94-116-116-116z" stroke="#000" stroke-width="10" fill="#fff"/><use xlink:href="#r" transform="matrix(1,0,0,1,-2296.9381354678517,1976.8273899722653) translate(268.1666666666667 314)"/><use xlink:href="#s" transform="matrix(1,0,0,1,-2296.9381354678517,1976.8273899722653) translate(685.0555555555557 314)"/><use xlink:href="#t" transform="matrix(1,0,0,1,-2296.9381354678517,1976.8273899722653) translate(818.3888888888889 314)"/><path d="M-1511.6 1338.83v308.33a1.67 1.67 0 0 1-1.67 1.67 1.67 1.67 0 0 0-1.67 1.66v277.88" stroke="#333" stroke-width="10" fill="none"/><path d="M-1506.63 1338.96h-9.95v-5.13h9.95z" stroke="#333" stroke-width=".05" fill="#333"/><path d="M-1514.94 1947.65l-4.63-14.27h9.27z" stroke="#333" stroke-width="10" fill="#333"/><path d="M2610.67 43.83c-64.07 0-116 51.93-116 116v348c0 64.06 51.93 116 116 116h1314.66c64.07 0 116-51.94 116-116v-348c0-64.07-51.93-116-116-116z" stroke="#000" stroke-width="10" fill="#fff"/><use xlink:href="#c" transform="matrix(1,0,0,1,2502.666666666666,51.82738997226545) translate(187.94444444444434 314)"/><use xlink:href="#t" transform="matrix(1,0,0,1,2502.666666666666,51.82738997226545) translate(898.6111111111111 314)"/><path d="M2587.33 963.83c-64.06 0-116 51.93-116 116v348c0 64.06 51.94 116 116 116H3902c64.07 0 116-51.94 116-116v-348c0-64.07-51.93-116-116-116z" stroke="#000" stroke-width="10" fill="#fff"/><use xlink:href="#f" transform="matrix(1,0,0,1,2479.3333333333353,971.8273899722655) translate(41.500000000000114 314)"/><use xlink:href="#s" transform="matrix(1,0,0,1,2479.3333333333353,971.8273899722655) translate(485.5000000000001 314)"/><use xlink:href="#u" transform="matrix(1,0,0,1,2479.3333333333353,971.8273899722655) translate(618.8333333333334 314)"/><use xlink:href="#v" transform="matrix(1,0,0,1,2479.3333333333353,971.8273899722655) translate(1009.9444444444445 314)"/><use xlink:href="#h" transform="matrix(1,0,0,1,2479.3333333333353,971.8273899722655) translate(1232.1666666666665 314)"/><path d="M-748.27 2258.83H856.2a12 12 0 0 0 12-12v-1901a12 12 0 0 1 12-12h1574.02" stroke="#333" stroke-width="10" fill="none"/><path d="M-748.14 2263.8h-5.13v-9.95h5.13z" stroke="#333" stroke-width=".05" fill="#333"/><path d="M2473.5 333.83l-14.28 4.63v-9.27z" stroke="#333" stroke-width="10" fill="#333"/><path d="M3268 633.83v289.55" stroke="#333" stroke-width="10" fill="none"/><path d="M3272.97 633.96h-9.94v-5.13h9.94z" stroke="#333" stroke-width=".05" fill="#333"/><path d="M3268 942.65l-4.64-14.27h9.28z" stroke="#333" stroke-width="10" fill="#333"/><path d="M3444.67 2203.83c0 110.45-89.55 200-200 200-110.46 0-200-89.55-200-200 0-110.46 89.54-200 200-200 110.45 0 200 89.54 200 200z" stroke="#000" stroke-width="10" fill="#fff"/><path d="M3364.67 2203.83c0 66.27-53.73 120-120 120-66.28 0-120-53.73-120-120 0-66.28 53.72-120 120-120 66.27 0 120 53.72 120 120z" stroke="#000" stroke-width="10"/><path d="M3244.67 1553.83v409.55" stroke="#333" stroke-width="10" fill="none"/><path d="M3249.64 1553.96h-9.95v-5.13h9.94z" stroke="#333" stroke-width=".05" fill="#333"/><path d="M3244.67 1982.65l-4.64-14.27h9.27z" stroke="#333" stroke-width="10" fill="#333"/><path d="M-752-2026h3182.9" stroke="#333" stroke-width="10" fill="none"/><path d="M-751.87-2021.03H-757v-9.94h5.13z" stroke="#333" stroke-width=".05" fill="#333"/><path d="M2450.15-2026l-14.26 4.63v-9.27z" stroke="#333" stroke-width="10" fill="#333"/><path d="M2461.33-726H-701.16" stroke="#333" stroke-width="10" fill="none"/><path d="M2466.33-721.02h-5.13V-731h5.13z" stroke="#333" stroke-width=".05" fill="#333"/><path d="M-720.42-726l14.26-4.63v9.26z" stroke="#333" stroke-width="10" fill="#333"/><defs><path d="M232-93c-1 65-40 97-104 97C67 4 28-28 28-90v-158h33c8 89-33 224 67 224 102 0 64-133 71-224h33v155" id="w"/><path d="M135-143c-3-34-86-38-87 0 15 53 115 12 119 90S17 21 10-45l28-5c4 36 97 45 98 0-10-56-113-15-118-90-4-57 82-63 122-42 12 7 21 19 24 35" id="x"/><path d="M84 4C-5 8 30-112 23-190h32v120c0 31 7 50 39 49 72-2 45-101 50-169h31l1 190h-30c-1-10 1-25-2-33-11 22-28 36-60 37" id="y"/><path d="M141-36C126-15 110 5 73 4 37 3 15-17 15-53c-1-64 63-63 125-63 3-35-9-54-41-54-24 1-41 7-42 31l-33-3c5-37 33-52 76-52 45 0 72 20 72 64v82c-1 20 7 32 28 27v20c-31 9-61-2-59-35zM48-53c0 20 12 33 32 33 41-3 63-29 60-74-43 2-92-5-92 41zm25-158c8-23 27-35 38-54h36v5l-58 49H73" id="z"/><path d="M114-163C36-179 61-72 57 0H25l-1-190h30c1 12-1 29 2 39 6-27 23-49 58-41v29" id="A"/><path d="M24-231v-30h32v30H24zM24 0v-190h32V0H24" id="B"/><path d="M100-194c62-1 85 37 85 99 1 63-27 99-86 99S16-35 15-95c0-66 28-99 85-99zM99-20c44 1 53-31 53-75 0-43-8-75-51-75s-53 32-53 75 10 74 51 75" id="C"/><g id="a"><use transform="matrix(0.4444444444444444,0,0,0.4444444444444444,0,0)" xlink:href="#w"/><use transform="matrix(0.4444444444444444,0,0,0.4444444444444444,115.1111111111111,0)" xlink:href="#x"/><use transform="matrix(0.4444444444444444,0,0,0.4444444444444444,195.1111111111111,0)" xlink:href="#y"/><use transform="matrix(0.4444444444444444,0,0,0.4444444444444444,284,0)" xlink:href="#z"/><use transform="matrix(0.4444444444444444,0,0,0.4444444444444444,372.8888888888889,0)" xlink:href="#A"/><use transform="matrix(0.4444444444444444,0,0,0.4444444444444444,425.7777777777778,0)" xlink:href="#B"/><use transform="matrix(0.4444444444444444,0,0,0.4444444444444444,460.88888888888897,0)" xlink:href="#C"/></g><path d="M185-189c-5-48-123-54-124 2 14 75 158 14 163 119 3 78-121 87-175 55-17-10-28-26-33-46l33-7c5 56 141 63 141-1 0-78-155-14-162-118-5-82 145-84 179-34 5 7 8 16 11 25" id="D"/><path d="M59-47c-2 24 18 29 38 22v24C64 9 27 4 27-40v-127H5v-23h24l9-43h21v43h35v23H59v120" id="E"/><path d="M100-194c63 0 86 42 84 106H49c0 40 14 67 53 68 26 1 43-12 49-29l28 8c-11 28-37 45-77 45C44 4 14-33 15-96c1-61 26-98 85-98zm52 81c6-60-76-77-97-28-3 7-6 17-6 28h103" id="F"/><path d="M210-169c-67 3-38 105-44 169h-31v-121c0-29-5-50-35-48C34-165 62-65 56 0H25l-1-190h30c1 10-1 24 2 32 10-44 99-50 107 0 11-21 27-35 58-36 85-2 47 119 55 194h-31v-121c0-29-5-49-35-48" id="G"/><path d="M141-36C126-15 110 5 73 4 37 3 15-17 15-53c-1-64 63-63 125-63 3-35-9-54-41-54-24 1-41 7-42 31l-33-3c5-37 33-52 76-52 45 0 72 20 72 64v82c-1 20 7 32 28 27v20c-31 9-61-2-59-35zM48-53c0 20 12 33 32 33 41-3 63-29 60-74-43 2-92-5-92 41" id="H"/><g id="b"><use transform="matrix(0.4444444444444444,0,0,0.4444444444444444,0,0)" xlink:href="#D"/><use transform="matrix(0.4444444444444444,0,0,0.4444444444444444,106.66666666666666,0)" xlink:href="#B"/><use transform="matrix(0.4444444444444444,0,0,0.4444444444444444,141.77777777777777,0)" xlink:href="#x"/><use transform="matrix(0.4444444444444444,0,0,0.4444444444444444,221.77777777777777,0)" xlink:href="#E"/><use transform="matrix(0.4444444444444444,0,0,0.4444444444444444,266.22222222222223,0)" xlink:href="#F"/><use transform="matrix(0.4444444444444444,0,0,0.4444444444444444,355.1111111111111,0)" xlink:href="#G"/><use transform="matrix(0.4444444444444444,0,0,0.4444444444444444,488,0)" xlink:href="#H"/></g><path d="M30-248c87 1 191-15 191 75 0 78-77 80-158 76V0H30v-248zm33 125c57 0 124 11 124-50 0-59-68-47-124-48v98" id="I"/><path d="M96-169c-40 0-48 33-48 73s9 75 48 75c24 0 41-14 43-38l32 2c-6 37-31 61-74 61-59 0-76-41-82-99-10-93 101-131 147-64 4 7 5 14 7 22l-32 3c-4-21-16-35-41-35" id="J"/><g id="c"><use transform="matrix(0.4444444444444444,0,0,0.4444444444444444,0,0)" xlink:href="#I"/><use transform="matrix(0.4444444444444444,0,0,0.4444444444444444,106.66666666666666,0)" xlink:href="#A"/><use transform="matrix(0.4444444444444444,0,0,0.4444444444444444,159.55555555555554,0)" xlink:href="#C"/><use transform="matrix(0.4444444444444444,0,0,0.4444444444444444,248.44444444444443,0)" xlink:href="#J"/><use transform="matrix(0.4444444444444444,0,0,0.4444444444444444,328.44444444444446,0)" xlink:href="#F"/><use transform="matrix(0.4444444444444444,0,0,0.4444444444444444,417.33333333333337,0)" xlink:href="#x"/><use transform="matrix(0.4444444444444444,0,0,0.4444444444444444,497.3333333333334,0)" xlink:href="#x"/><use transform="matrix(0.4444444444444444,0,0,0.4444444444444444,577.3333333333334,0)" xlink:href="#H"/></g><use transform="matrix(0.4444444444444444,0,0,0.4444444444444444,0,0)" xlink:href="#C" id="d"/><path d="M24 0v-261h32V0H24" id="K"/><path d="M100-194c62-1 85 37 85 99 1 63-27 99-86 99S16-35 15-95c0-66 28-99 85-99zM99-20c44 1 53-31 53-75 0-43-8-75-51-75s-53 32-53 75 10 74 51 75zM76-211c8-23 27-35 38-54h36v5l-58 49H76" id="L"/><g id="e"><use transform="matrix(0.4444444444444444,0,0,0.4444444444444444,0,0)" xlink:href="#A"/><use transform="matrix(0.4444444444444444,0,0,0.4444444444444444,52.888888888888886,0)" xlink:href="#F"/><use transform="matrix(0.4444444444444444,0,0,0.4444444444444444,141.77777777777777,0)" xlink:href="#K"/><use transform="matrix(0.4444444444444444,0,0,0.4444444444444444,176.88888888888889,0)" xlink:href="#H"/><use transform="matrix(0.4444444444444444,0,0,0.4444444444444444,265.77777777777777,0)" xlink:href="#E"/><use transform="matrix(0.4444444444444444,0,0,0.4444444444444444,310.22222222222223,0)" xlink:href="#L"/><use transform="matrix(0.4444444444444444,0,0,0.4444444444444444,399.1111111111111,0)" xlink:href="#A"/><use transform="matrix(0.4444444444444444,0,0,0.4444444444444444,452,0)" xlink:href="#B"/><use transform="matrix(0.4444444444444444,0,0,0.4444444444444444,487.1111111111111,0)" xlink:href="#C"/></g><path d="M30 0v-248h187v28H63v79h144v27H63v87h162V0H30" id="M"/><path d="M141 0L90-78 38 0H4l68-98-65-92h35l48 74 47-74h35l-64 92 68 98h-35" id="N"/><path d="M115-194c53 0 69 39 70 98 0 66-23 100-70 100C84 3 66-7 56-30L54 0H23l1-261h32v101c10-23 28-34 59-34zm-8 174c40 0 45-34 45-75 0-40-5-75-45-74-42 0-51 32-51 76 0 43 10 73 51 73" id="O"/><g id="f"><use transform="matrix(0.4444444444444444,0,0,0.4444444444444444,0,0)" xlink:href="#M"/><use transform="matrix(0.4444444444444444,0,0,0.4444444444444444,106.66666666666666,0)" xlink:href="#N"/><use transform="matrix(0.4444444444444444,0,0,0.4444444444444444,186.66666666666666,0)" xlink:href="#B"/><use transform="matrix(0.4444444444444444,0,0,0.4444444444444444,221.77777777777777,0)" xlink:href="#O"/><use transform="matrix(0.4444444444444444,0,0,0.4444444444444444,310.66666666666663,0)" xlink:href="#F"/></g><path d="M205 0l-28-72H64L36 0H1l101-248h38L239 0h-34zm-38-99l-47-123c-12 45-31 82-46 123h93" id="P"/><g id="g"><use transform="matrix(0.4444444444444444,0,0,0.4444444444444444,0,0)" xlink:href="#P"/><use transform="matrix(0.4444444444444444,0,0,0.4444444444444444,106.66666666666666,0)" xlink:href="#J"/><use transform="matrix(0.4444444444444444,0,0,0.4444444444444444,186.66666666666666,0)" xlink:href="#F"/><use transform="matrix(0.4444444444444444,0,0,0.4444444444444444,275.55555555555554,0)" xlink:href="#x"/><use transform="matrix(0.4444444444444444,0,0,0.4444444444444444,355.55555555555554,0)" xlink:href="#x"/><use transform="matrix(0.4444444444444444,0,0,0.4444444444444444,435.55555555555554,0)" xlink:href="#H"/></g><g id="h"><use transform="matrix(0.4444444444444444,0,0,0.4444444444444444,0,0)" xlink:href="#E"/><use transform="matrix(0.4444444444444444,0,0,0.4444444444444444,44.44444444444444,0)" xlink:href="#F"/><use transform="matrix(0.4444444444444444,0,0,0.4444444444444444,133.33333333333331,0)" xlink:href="#K"/><use transform="matrix(0.4444444444444444,0,0,0.4444444444444444,168.44444444444443,0)" xlink:href="#H"/></g><path d="M30-248c118-7 216 8 213 122C240-48 200 0 122 0H30v-248zM63-27c89 8 146-16 146-99s-60-101-146-95v194" id="Q"/><path d="M117-194c89-4 53 116 60 194h-32v-121c0-31-8-49-39-48C34-167 62-67 57 0H25l-1-190h30c1 10-1 24 2 32 11-22 29-35 61-36" id="R"/><g id="i"><use transform="matrix(0.4444444444444444,0,0,0.4444444444444444,0,0)" xlink:href="#Q"/><use transform="matrix(0.4444444444444444,0,0,0.4444444444444444,115.1111111111111,0)" xlink:href="#F"/><use transform="matrix(0.4444444444444444,0,0,0.4444444444444444,204,0)" xlink:href="#E"/><use transform="matrix(0.4444444444444444,0,0,0.4444444444444444,248.44444444444449,0)" xlink:href="#F"/><use transform="matrix(0.4444444444444444,0,0,0.4444444444444444,337.33333333333337,0)" xlink:href="#A"/><use transform="matrix(0.4444444444444444,0,0,0.4444444444444444,390.2222222222223,0)" xlink:href="#G"/><use transform="matrix(0.4444444444444444,0,0,0.4444444444444444,523.1111111111112,0)" xlink:href="#B"/><use transform="matrix(0.4444444444444444,0,0,0.4444444444444444,558.2222222222223,0)" xlink:href="#R"/><use transform="matrix(0.4444444444444444,0,0,0.4444444444444444,647.1111111111112,0)" xlink:href="#H"/></g><path d="M96-169c-40 0-48 33-48 73s9 75 48 75c24 0 41-14 43-38l32 2c-6 37-31 61-74 61-59 0-76-41-82-99-10-93 101-131 147-64 4 7 5 14 7 22l-32 3c-4-21-16-35-41-35zm3 187c19-1 33 8 33 26 0 31-30 33-64 32V58c18 2 39 4 41-13 1-15-18-13-34-13L87 0h19" id="S"/><path d="M141-36C126-15 110 5 73 4 37 3 15-17 15-53c-1-64 63-63 125-63 3-35-9-54-41-54-24 1-41 7-42 31l-33-3c5-37 33-52 76-52 45 0 72 20 72 64v82c-1 20 7 32 28 27v20c-31 9-61-2-59-35zM48-53c0 20 12 33 32 33 41-3 63-29 60-74-43 2-92-5-92 41zm117-205c-3 23-9 48-36 47-26-1-65-44-74 0H39c4-23 8-48 36-47s64 44 74 0h16" id="T"/><g id="j"><use transform="matrix(0.4444444444444444,0,0,0.4444444444444444,0,0)" xlink:href="#H"/><use transform="matrix(0.4444444444444444,0,0,0.4444444444444444,88.88888888888889,0)" xlink:href="#S"/><use transform="matrix(0.4444444444444444,0,0,0.4444444444444444,168.88888888888889,0)" xlink:href="#T"/><use transform="matrix(0.4444444444444444,0,0,0.4444444444444444,257.77777777777777,0)" xlink:href="#C"/></g><g id="k"><use transform="matrix(0.29629629629629634,0,0,0.29629629629629634,0,0)" xlink:href="#D"/><use transform="matrix(0.29629629629629634,0,0,0.29629629629629634,71.11111111111111,0)" xlink:href="#B"/><use transform="matrix(0.29629629629629634,0,0,0.29629629629629634,94.51851851851853,0)" xlink:href="#G"/></g><path d="M190 0L58-211 59 0H30v-248h39L202-35l-2-213h31V0h-41" id="U"/><g id="l"><use transform="matrix(0.3703703703703704,0,0,0.3703703703703704,0,0)" xlink:href="#U"/><use transform="matrix(0.3703703703703704,0,0,0.3703703703703704,95.92592592592594,0)" xlink:href="#T"/><use transform="matrix(0.3703703703703704,0,0,0.3703703703703704,170,0)" xlink:href="#C"/></g><path d="M26 75v-336h71v23H56V52h41v23H26" id="V"/><g id="m"><use transform="matrix(0.4444444444444444,0,0,0.4444444444444444,0,0)" xlink:href="#V"/><use transform="matrix(0.4444444444444444,0,0,0.4444444444444444,44.44444444444444,0)" xlink:href="#I"/><use transform="matrix(0.4444444444444444,0,0,0.4444444444444444,151.1111111111111,0)" xlink:href="#A"/><use transform="matrix(0.4444444444444444,0,0,0.4444444444444444,203.99999999999997,0)" xlink:href="#C"/><use transform="matrix(0.4444444444444444,0,0,0.4444444444444444,292.88888888888886,0)" xlink:href="#J"/><use transform="matrix(0.4444444444444444,0,0,0.4444444444444444,372.88888888888886,0)" xlink:href="#y"/><use transform="matrix(0.4444444444444444,0,0,0.4444444444444444,461.77777777777777,0)" xlink:href="#A"/><use transform="matrix(0.4444444444444444,0,0,0.4444444444444444,514.6666666666666,0)" xlink:href="#H"/><use transform="matrix(0.4444444444444444,0,0,0.4444444444444444,603.5555555555555,0)" xlink:href="#A"/></g><path d="M108 0H70L1-190h34L89-25l56-165h34" id="W"/><path d="M3 75V52h41v-290H3v-23h71V75H3" id="X"/><g id="n"><use transform="matrix(0.4444444444444444,0,0,0.4444444444444444,0,0)" xlink:href="#H"/><use transform="matrix(0.4444444444444444,0,0,0.4444444444444444,88.88888888888889,0)" xlink:href="#F"/><use transform="matrix(0.4444444444444444,0,0,0.4444444444444444,177.77777777777777,0)" xlink:href="#A"/><use transform="matrix(0.4444444444444444,0,0,0.4444444444444444,230.66666666666666,0)" xlink:href="#C"/><use transform="matrix(0.4444444444444444,0,0,0.4444444444444444,319.55555555555554,0)" xlink:href="#R"/><use transform="matrix(0.4444444444444444,0,0,0.4444444444444444,408.44444444444446,0)" xlink:href="#H"/><use transform="matrix(0.4444444444444444,0,0,0.4444444444444444,497.3333333333334,0)" xlink:href="#W"/><use transform="matrix(0.4444444444444444,0,0,0.4444444444444444,577.3333333333334,0)" xlink:href="#F"/><use transform="matrix(0.4444444444444444,0,0,0.4444444444444444,666.2222222222223,0)" xlink:href="#X"/></g><g id="o"><use transform="matrix(0.4444444444444444,0,0,0.4444444444444444,0,0)" xlink:href="#D"/><use transform="matrix(0.4444444444444444,0,0,0.4444444444444444,106.66666666666666,0)" xlink:href="#F"/><use transform="matrix(0.4444444444444444,0,0,0.4444444444444444,195.55555555555554,0)" xlink:href="#K"/><use transform="matrix(0.4444444444444444,0,0,0.4444444444444444,230.66666666666666,0)" xlink:href="#F"/><use transform="matrix(0.4444444444444444,0,0,0.4444444444444444,319.55555555555554,0)" xlink:href="#J"/><use transform="matrix(0.4444444444444444,0,0,0.4444444444444444,399.55555555555554,0)" xlink:href="#B"/><use transform="matrix(0.4444444444444444,0,0,0.4444444444444444,434.66666666666663,0)" xlink:href="#C"/><use transform="matrix(0.4444444444444444,0,0,0.4444444444444444,523.5555555555555,0)" xlink:href="#R"/><use transform="matrix(0.4444444444444444,0,0,0.4444444444444444,612.4444444444445,0)" xlink:href="#H"/></g><use transform="matrix(0.4444444444444444,0,0,0.4444444444444444,0,0)" xlink:href="#H" id="p"/><g id="q"><use transform="matrix(0.4444444444444444,0,0,0.4444444444444444,0,0)" xlink:href="#P"/><use transform="matrix(0.4444444444444444,0,0,0.4444444444444444,106.66666666666666,0)" xlink:href="#F"/><use transform="matrix(0.4444444444444444,0,0,0.4444444444444444,195.55555555555554,0)" xlink:href="#A"/><use transform="matrix(0.4444444444444444,0,0,0.4444444444444444,248.44444444444443,0)" xlink:href="#C"/><use transform="matrix(0.4444444444444444,0,0,0.4444444444444444,337.3333333333333,0)" xlink:href="#R"/><use transform="matrix(0.4444444444444444,0,0,0.4444444444444444,426.2222222222222,0)" xlink:href="#H"/><use transform="matrix(0.4444444444444444,0,0,0.4444444444444444,515.1111111111111,0)" xlink:href="#W"/><use transform="matrix(0.4444444444444444,0,0,0.4444444444444444,595.1111111111111,0)" xlink:href="#F"/></g><path d="M33 0v-248h34V0H33" id="Y"/><g id="r"><use transform="matrix(0.4444444444444444,0,0,0.4444444444444444,0,0)" xlink:href="#Y"/><use transform="matrix(0.4444444444444444,0,0,0.4444444444444444,44.44444444444444,0)" xlink:href="#R"/><use transform="matrix(0.4444444444444444,0,0,0.4444444444444444,133.33333333333331,0)" xlink:href="#B"/><use transform="matrix(0.4444444444444444,0,0,0.4444444444444444,168.44444444444443,0)" xlink:href="#J"/><use transform="matrix(0.4444444444444444,0,0,0.4444444444444444,248.44444444444443,0)" xlink:href="#B"/><use transform="matrix(0.4444444444444444,0,0,0.4444444444444444,283.55555555555554,0)" xlink:href="#H"/></g><use transform="matrix(0.4444444444444444,0,0,0.4444444444444444,0,0)" xlink:href="#H" id="s"/><path d="M160-131c35 5 61 23 61 61C221 17 115-2 30 0v-248c76 3 177-17 177 60 0 33-19 50-47 57zm-97-11c50-1 110 9 110-42 0-47-63-36-110-37v79zm0 115c55-2 124 14 124-45 0-56-70-42-124-44v89" id="Z"/><g id="t"><use transform="matrix(0.4444444444444444,0,0,0.4444444444444444,0,0)" xlink:href="#Z"/><use transform="matrix(0.4444444444444444,0,0,0.4444444444444444,106.66666666666666,0)" xlink:href="#y"/><use transform="matrix(0.4444444444444444,0,0,0.4444444444444444,195.55555555555554,0)" xlink:href="#x"/><use transform="matrix(0.4444444444444444,0,0,0.4444444444444444,275.55555555555554,0)" xlink:href="#J"/><use transform="matrix(0.4444444444444444,0,0,0.4444444444444444,355.55555555555554,0)" xlink:href="#H"/></g><g id="u"><use transform="matrix(0.4444444444444444,0,0,0.4444444444444444,0,0)" xlink:href="#O"/><use transform="matrix(0.4444444444444444,0,0,0.4444444444444444,88.88888888888889,0)" xlink:href="#y"/><use transform="matrix(0.4444444444444444,0,0,0.4444444444444444,177.77777777777777,0)" xlink:href="#J"/><use transform="matrix(0.4444444444444444,0,0,0.4444444444444444,257.77777777777777,0)" xlink:href="#H"/></g><g id="v"><use transform="matrix(0.4444444444444444,0,0,0.4444444444444444,0,0)" xlink:href="#R"/><use transform="matrix(0.4444444444444444,0,0,0.4444444444444444,88.88888888888889,0)" xlink:href="#H"/></g></defs></g></svg>