<svg xmlns="http://www.w3.org/2000/svg" xmlns:xlink="http://www.w3.org/1999/xlink" xmlns:lucid="lucid" width="9581" height="14114.6"><g transform="translate(-8355 25769.6)" lucid:page-tab-id="gVy4YR89Tzdw"><path d="M8000-26000h10000v14500H8000z" fill="#fff"/><path d="M8360-25220v-492a8 8 0 0 1 8-8h5612v500zM13980-25720h3932a8 8 0 0 1 8 8v492h-3940zM13980-11660H8368a8 8 0 0 1-8-8v-13552h5620zM17920-25220v13552a8 8 0 0 1-8 8h-3932v-13560z" stroke="#000" stroke-width="10" fill="#fff"/><use xlink:href="#a" transform="matrix(1,0,0,1,8360,-25720) translate(2535.1111111111113 282)"/><use xlink:href="#b" transform="matrix(1,0,0,1,13980,-25720) translate(1681.5555555555557 282)"/><path d="M11370-24680c0 110.46-89.54 200-200 200s-200-89.54-200-200 89.54-200 200-200 200 89.54 200 200z" stroke="#000" stroke-width="10"/><path d="M10512.67-23960c-64.07 0-116 51.94-116 116v348c0 64.06 51.93 116 116 116h1314.66c64.07 0 116-51.94 116-116v-348c0-64.06-51.93-116-116-116z" stroke="#000" stroke-width="10" fill="#fff"/><use xlink:href="#c" transform="matrix(1,0,0,1,10404.666666666668,-23952) translate(166.16666666666663 314)"/><use xlink:href="#d" transform="matrix(1,0,0,1,10404.666666666668,-23952) translate(735.0555555555555 314)"/><path d="M11170-24470v469.55" stroke="#333" stroke-width="10" fill="none"/><path d="M11169.97-24475l4.43-.05.58-.02v5.2h-9.95v-5.23z" stroke="#333" stroke-width=".05" fill="#333"/><path d="M11170-23981.18l-4.64-14.27h9.27z" stroke="#333" stroke-width="10" fill="#333"/><path d="M15292.67-23960c-64.07 0-116 51.94-116 116v348c0 64.06 51.93 116 116 116h1314.66c64.07 0 116-51.94 116-116v-348c0-64.06-51.93-116-116-116z" stroke="#000" stroke-width="10" fill="#fff"/><use xlink:href="#e" transform="matrix(1,0,0,1,15184.666666666668,-23952) translate(77.27777777777783 314)"/><use xlink:href="#f" transform="matrix(1,0,0,1,15184.666666666668,-23952) translate(787.9444444444446 314)"/><use xlink:href="#g" transform="matrix(1,0,0,1,15184.666666666668,-23952) translate(921.2777777777778 314)"/><path d="M15292.67-21774.38c-64.07 0-116 51.94-116 116v348c0 64.07 51.93 116 116 116h1314.66c64.07 0 116-51.93 116-116v-348c0-64.06-51.93-116-116-116z" stroke="#000" stroke-width="10" fill="#fff"/><use xlink:href="#h" transform="matrix(1,0,0,1,15184.666666666672,-21766.375) translate(63.5 314)"/><use xlink:href="#i" transform="matrix(1,0,0,1,15184.666666666672,-21766.375) translate(507.5 314)"/><use xlink:href="#j" transform="matrix(1,0,0,1,15184.666666666672,-21766.375) translate(987.5 314)"/><use xlink:href="#k" transform="matrix(1,0,0,1,15184.666666666672,-21766.375) translate(1209.7222222222222 314)"/><path d="M15944.34-22814.34a8 8 0 0 1 11.32 0l188.68 188.68a8 8 0 0 1 0 11.32l-188.68 188.68a8 8 0 0 1-11.32 0l-188.68-188.68a8 8 0 0 1 0-11.32z" stroke="#000" stroke-width="10" fill="#fff"/><path d="M15950-23370v512.85" stroke="#333" stroke-width="10" fill="none"/><path d="M15954.98-23369.87h-9.95v-5.13h9.94z" stroke="#333" stroke-width=".05" fill="#333"/><path d="M15950-22837.88l-4.64-14.27h9.27z" stroke="#333" stroke-width="10" fill="#333"/><path d="M15950-22413.3v598.48" stroke="#333" stroke-width="10" fill="none"/><path d="M15945.98-22418.94l1.98.48 2.04.16 2.04-.16 1.98-.48.95-.4v6.17h-9.94v-6.16z" stroke="#333" stroke-width=".05" fill="#333"/><path d="M15950-21795.56l-4.64-14.26h9.27z" stroke="#333" stroke-width="10" fill="#333"/><use xlink:href="#l" transform="matrix(1,0,0,1,15958,-22324.25683845105) translate(0.0049999999999954525 128)"/><path d="M16060-22972a8 8 0 0 1 8-8h1427.07a8 8 0 0 1 8 8v381.97a8 8 0 0 1-8 8H16068a8 8 0 0 1-8-8z" fill="none"/><use xlink:href="#m" transform="matrix(1,0,0,1,16060,-22980) translate(29.77777777777783 231)"/><use xlink:href="#n" transform="matrix(1,0,0,1,16060,-22980) translate(748.4444444444445 231)"/><path d="M10512.67-22940c-64.07 0-116 51.94-116 116v348c0 64.06 51.93 116 116 116h1314.66c64.07 0 116-51.94 116-116v-348c0-64.06-51.93-116-116-116z" stroke="#000" stroke-width="10" fill="#fff"/><use xlink:href="#o" transform="matrix(1,0,0,1,10404.666666666668,-22932) translate(174.83333333333337 218)"/><use xlink:href="#p" transform="matrix(1,0,0,1,10404.666666666668,-22932) translate(663.2777777777778 218)"/><use xlink:href="#q" transform="matrix(1,0,0,1,10404.666666666668,-22932) translate(1178.388888888889 218)"/><use xlink:href="#g" transform="matrix(1,0,0,1,10404.666666666668,-22932) translate(499.27777777777777 410)"/><path d="M10512.67-21774.38c-64.07 0-116 51.94-116 116v348c0 64.07 51.93 116 116 116h1314.66c64.07 0 116-51.93 116-116v-348c0-64.06-51.93-116-116-116z" stroke="#000" stroke-width="10" fill="#fff"/><use xlink:href="#o" transform="matrix(1,0,0,1,10404.666666666668,-21766.375) translate(28.388888888888914 218)"/><use xlink:href="#r" transform="matrix(1,0,0,1,10404.666666666668,-21766.375) translate(516.8333333333334 218)"/><use xlink:href="#s" transform="matrix(1,0,0,1,10404.666666666668,-21766.375) translate(889.2777777777778 218)"/><use xlink:href="#t" transform="matrix(1,0,0,1,10404.666666666668,-21766.375) translate(1111.5 218)"/><use xlink:href="#j" transform="matrix(1,0,0,1,10404.666666666668,-21766.375) translate(525.5 410)"/><use xlink:href="#k" transform="matrix(1,0,0,1,10404.666666666668,-21766.375) translate(747.7222222222222 410)"/><path d="M11170-23370v389.55" stroke="#333" stroke-width="10" fill="none"/><path d="M11174.98-23369.87h-9.95v-5.13h9.94z" stroke="#333" stroke-width=".05" fill="#333"/><path d="M11170-22961.18l-4.64-14.27h9.27z" stroke="#333" stroke-width="10" fill="#333"/><path d="M11170-22350v535.18" stroke="#333" stroke-width="10" fill="none"/><path d="M11174.98-22349.87h-9.95v-5.13h9.94z" stroke="#333" stroke-width=".05" fill="#333"/><path d="M11170-21795.56l-4.64-14.26h9.27z" stroke="#333" stroke-width="10" fill="#333"/><path d="M11953.33-21484.38H13548a12 12 0 0 0 12-12V-23658a12 12 0 0 1 12-12h1564.22" stroke="#333" stroke-width="10" fill="none"/><path d="M11953.46-21479.4h-5.13v-9.95h5.13z" stroke="#333" stroke-width=".05" fill="#333"/><path d="M15155.5-23670l-14.28 4.63v-9.26z" stroke="#333" stroke-width="10" fill="#333"/><path d="M15743.3-22620h-3759.52" stroke="#333" stroke-width="10" fill="none"/><path d="M15748.93-22624.02l-.47 1.98-.16 2.04.16 2.04.48 1.98.4.95h-6.17v-9.94h6.16z" stroke="#333" stroke-width=".05" fill="#333"/><path d="M11964.5-22620l14.28-4.63v9.26z" stroke="#333" stroke-width="10" fill="#333"/><use xlink:href="#u" transform="matrix(1,0,0,1,15207.646007769728,-22816) translate(0.0049999999999954525 128)"/><path d="M10532.22-20655.87c-64.06 0-116 51.94-116 116v348c0 64.07 51.94 116 116 116h1314.67c64.05 0 116-51.93 116-116v-348c0-64.06-51.95-116-116-116z" stroke="#000" stroke-width="10" fill="#fff"/><use xlink:href="#v" transform="matrix(1,0,0,1,10424.220981258315,-20647.867043529244) translate(183.5 218)"/><use xlink:href="#w" transform="matrix(1,0,0,1,10424.220981258315,-20647.867043529244) translate(911.9444444444445 218)"/><use xlink:href="#x" transform="matrix(1,0,0,1,10424.220981258315,-20647.867043529244) translate(392.16666666666663 410)"/><path d="M10532.22-19620c-64.06 0-116 51.94-116 116v348c0 64.06 51.94 116 116 116h1314.67c64.05 0 116-51.94 116-116v-348c0-64.06-51.95-116-116-116z" stroke="#000" stroke-width="10" fill="#fff"/><use xlink:href="#y" transform="matrix(1,0,0,1,10424.220981258317,-19612) translate(135.5 218)"/><use xlink:href="#z" transform="matrix(1,0,0,1,10424.220981258317,-19612) translate(445.5 410)"/><path d="M15950-21184.38v806.5a12 12 0 0 1-12 12h-3934.67" stroke="#333" stroke-width="10" fill="none"/><path d="M15954.98-21184.25h-9.95v-5.13h9.94z" stroke="#333" stroke-width=".05" fill="#333"/><path d="M11984.07-20365.87l14.26-4.63v9.27z" stroke="#333" stroke-width="10" fill="#333"/><path d="M11189.55-20065.87v405.42" stroke="#333" stroke-width="10" fill="none"/><path d="M11194.53-20065.74h-9.95v-5.13h9.95z" stroke="#333" stroke-width=".05" fill="#333"/><path d="M11189.55-19641.18l-4.63-14.27h9.27z" stroke="#333" stroke-width="10" fill="#333"/><path d="M15296-14200c-64.07 0-116 51.93-116 116v348c0 64.07 51.93 116 116 116h1314.67c64.06 0 116-51.93 116-116v-348c0-64.07-51.94-116-116-116z" stroke="#000" stroke-width="10" fill="#fff"/><use xlink:href="#e" transform="matrix(1,0,0,1,15188.000000031963,-14192) translate(46.16666666666674 314)"/><use xlink:href="#A" transform="matrix(1,0,0,1,15188.000000031963,-14192) translate(756.8333333333335 314)"/><use xlink:href="#B" transform="matrix(1,0,0,1,15188.000000031963,-14192) translate(890.1666666666667 314)"/><path d="M15292.67-13200c-64.07 0-116 51.93-116 116v348c0 64.07 51.93 116 116 116h1314.66c64.07 0 116-51.93 116-116v-348c0-64.07-51.93-116-116-116z" stroke="#000" stroke-width="10" fill="#fff"/><use xlink:href="#C" transform="matrix(1,0,0,1,15184.666666666672,-13192) translate(188.3888888888889 218)"/><use xlink:href="#D" transform="matrix(1,0,0,1,15184.666666666672,-13192) translate(676.3888888888889 218)"/><use xlink:href="#q" transform="matrix(1,0,0,1,15184.666666666672,-13192) translate(1164.8333333333335 218)"/><use xlink:href="#E" transform="matrix(1,0,0,1,15184.666666666672,-13192) translate(405.9444444444444 410)"/><path d="M15953.33-13610v198.33a1.67 1.67 0 0 1-1.66 1.67 1.67 1.67 0 0 0-1.67 1.67v167.88" stroke="#333" stroke-width="10" fill="none"/><path d="M15958.3-13609.87h-9.94v-5.13h9.95z" stroke="#333" stroke-width=".05" fill="#333"/><path d="M15950-13221.18l-4.64-14.27h9.27z" stroke="#333" stroke-width="10" fill="#333"/><path d="M10532.22-14210c-64.06 0-116 51.93-116 116v348c0 64.07 51.94 116 116 116h1314.67c64.05 0 116-51.93 116-116v-348c0-64.07-51.95-116-116-116z" stroke="#000" stroke-width="10" fill="#fff"/><use xlink:href="#F" transform="matrix(1,0,0,1,10424.220981258317,-14202) translate(41.72222222222217 218)"/><use xlink:href="#A" transform="matrix(1,0,0,1,10424.220981258317,-14202) translate(485.7222222222222 218)"/><use xlink:href="#G" transform="matrix(1,0,0,1,10424.220981258317,-14202) translate(619.0555555555554 218)"/><use xlink:href="#H" transform="matrix(1,0,0,1,10424.220981258317,-14202) translate(411.0555555555556 410)"/><use xlink:href="#I" transform="matrix(1,0,0,1,10424.220981258317,-14202) translate(686.1666666666667 410)"/><path d="M15166.67-12910h-1584.9a12 12 0 0 1-12-12v-946a12 12 0 0 0-12-12h-1554.44" stroke="#333" stroke-width="10" fill="none"/><path d="M15171.67-12905.02h-5.13v-9.95h5.13z" stroke="#333" stroke-width=".05" fill="#333"/><path d="M11984.07-13880l14.26-4.64v9.27z" stroke="#333" stroke-width="10" fill="#333"/><path d="M15292.67-19620c-64.07 0-116 51.94-116 116v348c0 64.06 51.93 116 116 116h1314.66c64.07 0 116-51.94 116-116v-348c0-64.06-51.93-116-116-116z" stroke="#000" stroke-width="10" fill="#fff"/><use xlink:href="#h" transform="matrix(1,0,0,1,15184.666666666668,-19612) translate(303.7222222222222 218)"/><use xlink:href="#J" transform="matrix(1,0,0,1,15184.666666666668,-19612) translate(747.7222222222222 218)"/><use xlink:href="#q" transform="matrix(1,0,0,1,15184.666666666668,-19612) translate(1049.5 218)"/><use xlink:href="#K" transform="matrix(1,0,0,1,15184.666666666668,-19612) translate(365.7222222222222 410)"/><path d="M11972.9-19330h3163.32" stroke="#333" stroke-width="10" fill="none"/><path d="M11973.02-19325.03h-5.13v-9.94h5.12z" stroke="#333" stroke-width=".05" fill="#333"/><path d="M15155.5-19330l-14.28 4.63v-9.26z" stroke="#333" stroke-width="10" fill="#333"/><path d="M10512.67-18580c-64.07 0-116 51.94-116 116v348c0 64.06 51.93 116 116 116h1314.66c64.07 0 116-51.94 116-116v-348c0-64.06-51.93-116-116-116z" stroke="#000" stroke-width="10" fill="#fff"/><use xlink:href="#L" transform="matrix(1,0,0,1,10404.666666666668,-18572) translate(175.05555555555554 218)"/><use xlink:href="#M" transform="matrix(1,0,0,1,10404.666666666668,-18572) translate(787.9444444444445 218)"/><use xlink:href="#q" transform="matrix(1,0,0,1,10404.666666666668,-18572) translate(1178.1666666666665 218)"/><use xlink:href="#K" transform="matrix(1,0,0,1,10404.666666666668,-18572) translate(365.7222222222222 410)"/><path d="M11164.34-17554.34a8 8 0 0 1 11.32 0l188.68 188.68a8 8 0 0 1 0 11.32l-188.68 188.68a8 8 0 0 1-11.32 0l-188.68-188.68a8 8 0 0 1 0-11.32zM10532.22-16120c-64.06 0-116 51.93-116 116v348c0 64.07 51.94 116 116 116h1314.67c64.05 0 116-51.93 116-116v-348c0-64.07-51.95-116-116-116z" stroke="#000" stroke-width="10" fill="#fff"/><use xlink:href="#N" transform="matrix(1,0,0,1,10424.220981258317,-16112) translate(68.61111111111109 314)"/><use xlink:href="#O" transform="matrix(1,0,0,1,10424.220981258317,-16112) translate(645.0555555555555 314)"/><path d="M12196-17080c-64.07 0-116 51.94-116 116v348c0 64.06 51.93 116 116 116h1314.67c64.06 0 116-51.94 116-116v-348c0-64.06-51.94-116-116-116z" stroke="#000" stroke-width="10" fill="#fff"/><use xlink:href="#N" transform="matrix(1,0,0,1,12088,-17072) translate(86.61111111111109 314)"/><use xlink:href="#A" transform="matrix(1,0,0,1,12088,-17072) translate(663.0555555555555 314)"/><use xlink:href="#P" transform="matrix(1,0,0,1,12088,-17072) translate(796.3888888888889 314)"/><path d="M9680-17752a8 8 0 0 1 8-8h1306.27a8 8 0 0 1 8 8v381.97a8 8 0 0 1-8 8H9688a8 8 0 0 1-8-8z" fill="none"/><use xlink:href="#Q" transform="matrix(1,0,0,1,9680,-17760) translate(26.611111111111086 231)"/><use xlink:href="#R" transform="matrix(1,0,0,1,9680,-17760) translate(461.2777777777777 231)"/><path d="M11170-17990v392.85" stroke="#333" stroke-width="10" fill="none"/><path d="M11174.98-17989.87h-9.95v-5.13h9.94z" stroke="#333" stroke-width=".05" fill="#333"/><path d="M11170-17577.88l-4.64-14.27h9.27z" stroke="#333" stroke-width="10" fill="#333"/><path d="M15950-19030v728a12 12 0 0 1-12 12h-3954.22" stroke="#333" stroke-width="10" fill="none"/><path d="M15954.98-19029.87h-9.95v-5.13h9.94z" stroke="#333" stroke-width=".05" fill="#333"/><path d="M11964.5-18290l14.28-4.63v9.26z" stroke="#333" stroke-width="10" fill="#333"/><path d="M15296-16500c-64.07 0-116 51.94-116 116v348c0 64.07 51.93 116 116 116h1314.67c64.06 0 116-51.93 116-116v-348c0-64.06-51.94-116-116-116z" stroke="#000" stroke-width="10" fill="#fff"/><use xlink:href="#e" transform="matrix(1,0,0,1,15188,-16492) translate(1.4999999999998863 314)"/><use xlink:href="#O" transform="matrix(1,0,0,1,15188,-16492) translate(712.1666666666666 314)"/><path d="M15947.68-15394.34a8 8 0 0 1 11.3 0l188.7 188.68a8 8 0 0 1 0 11.32l-188.7 188.68a8 8 0 0 1-11.3 0l-188.7-188.68a8 8 0 0 1 0-11.32z" stroke="#000" stroke-width="10" fill="#fff"/><path d="M15953.33-15910v472.85" stroke="#000" stroke-width="10" fill="none"/><path d="M15958.3-15909.87h-9.94v-5.13h9.95z" stroke="#000" stroke-width=".05"/><path d="M15953.33-15417.88l-4.63-14.27h9.27z" stroke="#000" stroke-width="10"/><path d="M15953.33-14993.3v752.85" stroke="#000" stroke-width="10" fill="none"/><path d="M15949.3-14998.93l2 .47 2.03.16 2.04-.16 1.98-.48.96-.4v6.17h-9.94v-6.16z" stroke="#000" stroke-width=".05"/><path d="M15953.33-14221.18l-4.63-14.27h9.27z" stroke="#000" stroke-width="10"/><g><use xlink:href="#l" transform="matrix(1,0,0,1,15670.66666669863,-14881.840857124751) translate(0.0049999999999954525 128)"/></g><path d="M14140-15732a8 8 0 0 1 8-8h1630.67a8 8 0 0 1 8 8v381.97a8 8 0 0 1-8 8H14148a8 8 0 0 1-8-8z" fill="none"/><g><use xlink:href="#S" transform="matrix(1,0,0,1,14140,-15739.999999999998) translate(6.166666666666629 231)"/><use xlink:href="#T" transform="matrix(1,0,0,1,14140,-15739.999999999998) translate(912.3888888888889 231)"/></g><path d="M15292.67-17700c-64.07 0-116 51.94-116 116v348c0 64.06 51.93 116 116 116h1314.66c64.07 0 116-51.94 116-116v-348c0-64.06-51.93-116-116-116z" stroke="#000" stroke-width="10" fill="#fff"/><g><use xlink:href="#h" transform="matrix(1,0,0,1,15184.666666666668,-17692) translate(303.7222222222222 218)"/><use xlink:href="#J" transform="matrix(1,0,0,1,15184.666666666668,-17692) translate(747.7222222222222 218)"/><use xlink:href="#q" transform="matrix(1,0,0,1,15184.666666666668,-17692) translate(1049.5 218)"/><use xlink:href="#U" transform="matrix(1,0,0,1,15184.666666666668,-17692) translate(459.05555555555554 410)"/></g><path d="M11170-17153.3v992.85" stroke="#333" stroke-width="10" fill="none"/><path d="M11165.98-17158.94l1.98.48 2.04.16 2.04-.16 1.98-.48.95-.4v6.17h-9.94v-6.16z" stroke="#333" stroke-width=".05" fill="#333"/><path d="M11170-16141.18l-4.64-14.27h9.27z" stroke="#333" stroke-width="10" fill="#333"/><g><use xlink:href="#l" transform="matrix(1,0,0,1,11178,-17105.93429196887) translate(0.0049999999999954525 128)"/></g><path d="M11376.7-17360h3759.52" stroke="#333" stroke-width="10" fill="none"/><path d="M11376.83-17355.03h-6.16l.4-.95.47-1.98.16-2.04-.16-2.04-.48-1.98-.4-.95h6.17z" stroke="#333" stroke-width=".05" fill="#333"/><path d="M15155.5-17360l-14.28 4.63v-9.26z" stroke="#333" stroke-width="10" fill="#333"/><g><use xlink:href="#u" transform="matrix(1,0,0,1,11525.722952578853,-17556) translate(0.0049999999999954525 128)"/></g><path d="M15950-17110v308a12 12 0 0 1-12 12h-2270.9" stroke="#333" stroke-width="10" fill="none"/><path d="M15954.98-17109.87h-9.95v-5.13h9.94z" stroke="#333" stroke-width=".05" fill="#333"/><path d="M13647.85-16790l14.26-4.63v9.26z" stroke="#333" stroke-width="10" fill="#333"/><path d="M12853.33-16490v648a12 12 0 0 1-12 12h-838" stroke="#333" stroke-width="10" fill="none"/><path d="M12858.3-16489.87h-9.94v-5.13h9.95z" stroke="#333" stroke-width=".05" fill="#333"/><path d="M11984.07-15830l14.26-4.64v9.27z" stroke="#333" stroke-width="10" fill="#333"/><path d="M11189.55-15530v398a12 12 0 0 0 12 12h2418.12a12 12 0 0 0 12-12v-1010.72a12 12 0 0 1 12-12h1495.88" stroke="#333" stroke-width="10" fill="none"/><path d="M11194.53-15529.87h-9.95v-5.13h9.95z" stroke="#333" stroke-width=".05" fill="#333"/><path d="M15158.82-16154.72l-14.27 4.63v-9.26z" stroke="#333" stroke-width="10" fill="#333"/><path d="M11370-12960c0 110.46-89.54 200-200 200s-200-89.54-200-200 89.54-200 200-200 200 89.54 200 200z" stroke="#000" stroke-width="10" fill="#fff"/><path d="M11290-12960c0 66.27-53.73 120-120 120-66.27 0-120-53.73-120-120 0-66.27 53.73-120 120-120 66.27 0 120 53.73 120 120z" stroke="#000" stroke-width="10"/><path d="M11189.55-13620v420.5" stroke="#333" stroke-width="10" fill="none"/><path d="M11194.53-13619.87h-9.95v-5.13h9.95z" stroke="#333" stroke-width=".05" fill="#333"/><path d="M11189.55-13180.23l-4.63-14.26h9.27z" stroke="#333" stroke-width="10" fill="#333"/><path d="M17240-15200c0 110.46-89.54 200-200 200s-200-89.54-200-200 89.54-200 200-200 200 89.54 200 200z" stroke="#000" stroke-width="10" fill="#fff"/><path d="M17160-15200c0 66.27-53.73 120-120 120-66.27 0-120-53.73-120-120 0-66.27 53.73-120 120-120 66.27 0 120 53.73 120 120z" stroke="#000" stroke-width="10"/><path d="M16160.03-15200h639.52" stroke="#333" stroke-width="10" fill="none"/><path d="M16160.16-15195.02h-6.16l.4-.96.48-1.98.16-2.04-.17-2.04-.47-1.98-.4-.95h6.16z" stroke="#333" stroke-width=".05" fill="#333"/><path d="M16818.82-15200l-14.27 4.64v-9.27z" stroke="#333" stroke-width="10" fill="#333"/><g><use xlink:href="#u" transform="matrix(1,0,0,1,16200.950973943525,-15396) translate(0.0049999999999954525 128)"/></g><defs><path d="M232-93c-1 65-40 97-104 97C67 4 28-28 28-90v-158h33c8 89-33 224 67 224 102 0 64-133 71-224h33v155" id="V"/><path d="M135-143c-3-34-86-38-87 0 15 53 115 12 119 90S17 21 10-45l28-5c4 36 97 45 98 0-10-56-113-15-118-90-4-57 82-63 122-42 12 7 21 19 24 35" id="W"/><path d="M84 4C-5 8 30-112 23-190h32v120c0 31 7 50 39 49 72-2 45-101 50-169h31l1 190h-30c-1-10 1-25-2-33-11 22-28 36-60 37" id="X"/><path d="M141-36C126-15 110 5 73 4 37 3 15-17 15-53c-1-64 63-63 125-63 3-35-9-54-41-54-24 1-41 7-42 31l-33-3c5-37 33-52 76-52 45 0 72 20 72 64v82c-1 20 7 32 28 27v20c-31 9-61-2-59-35zM48-53c0 20 12 33 32 33 41-3 63-29 60-74-43 2-92-5-92 41zm25-158c8-23 27-35 38-54h36v5l-58 49H73" id="Y"/><path d="M114-163C36-179 61-72 57 0H25l-1-190h30c1 12-1 29 2 39 6-27 23-49 58-41v29" id="Z"/><path d="M24-231v-30h32v30H24zM24 0v-190h32V0H24" id="aa"/><path d="M100-194c62-1 85 37 85 99 1 63-27 99-86 99S16-35 15-95c0-66 28-99 85-99zM99-20c44 1 53-31 53-75 0-43-8-75-51-75s-53 32-53 75 10 74 51 75" id="ab"/><g id="a"><use transform="matrix(0.4444444444444444,0,0,0.4444444444444444,0,0)" xlink:href="#V"/><use transform="matrix(0.4444444444444444,0,0,0.4444444444444444,115.1111111111111,0)" xlink:href="#W"/><use transform="matrix(0.4444444444444444,0,0,0.4444444444444444,195.1111111111111,0)" xlink:href="#X"/><use transform="matrix(0.4444444444444444,0,0,0.4444444444444444,284,0)" xlink:href="#Y"/><use transform="matrix(0.4444444444444444,0,0,0.4444444444444444,372.8888888888889,0)" xlink:href="#Z"/><use transform="matrix(0.4444444444444444,0,0,0.4444444444444444,425.7777777777778,0)" xlink:href="#aa"/><use transform="matrix(0.4444444444444444,0,0,0.4444444444444444,460.88888888888897,0)" xlink:href="#ab"/></g><path d="M185-189c-5-48-123-54-124 2 14 75 158 14 163 119 3 78-121 87-175 55-17-10-28-26-33-46l33-7c5 56 141 63 141-1 0-78-155-14-162-118-5-82 145-84 179-34 5 7 8 16 11 25" id="ac"/><path d="M59-47c-2 24 18 29 38 22v24C64 9 27 4 27-40v-127H5v-23h24l9-43h21v43h35v23H59v120" id="ad"/><path d="M100-194c63 0 86 42 84 106H49c0 40 14 67 53 68 26 1 43-12 49-29l28 8c-11 28-37 45-77 45C44 4 14-33 15-96c1-61 26-98 85-98zm52 81c6-60-76-77-97-28-3 7-6 17-6 28h103" id="ae"/><path d="M210-169c-67 3-38 105-44 169h-31v-121c0-29-5-50-35-48C34-165 62-65 56 0H25l-1-190h30c1 10-1 24 2 32 10-44 99-50 107 0 11-21 27-35 58-36 85-2 47 119 55 194h-31v-121c0-29-5-49-35-48" id="af"/><path d="M141-36C126-15 110 5 73 4 37 3 15-17 15-53c-1-64 63-63 125-63 3-35-9-54-41-54-24 1-41 7-42 31l-33-3c5-37 33-52 76-52 45 0 72 20 72 64v82c-1 20 7 32 28 27v20c-31 9-61-2-59-35zM48-53c0 20 12 33 32 33 41-3 63-29 60-74-43 2-92-5-92 41" id="ag"/><g id="b"><use transform="matrix(0.4444444444444444,0,0,0.4444444444444444,0,0)" xlink:href="#ac"/><use transform="matrix(0.4444444444444444,0,0,0.4444444444444444,106.66666666666666,0)" xlink:href="#aa"/><use transform="matrix(0.4444444444444444,0,0,0.4444444444444444,141.77777777777777,0)" xlink:href="#W"/><use transform="matrix(0.4444444444444444,0,0,0.4444444444444444,221.77777777777777,0)" xlink:href="#ad"/><use transform="matrix(0.4444444444444444,0,0,0.4444444444444444,266.22222222222223,0)" xlink:href="#ae"/><use transform="matrix(0.4444444444444444,0,0,0.4444444444444444,355.1111111111111,0)" xlink:href="#af"/><use transform="matrix(0.4444444444444444,0,0,0.4444444444444444,488,0)" xlink:href="#ag"/></g><path d="M205 0l-28-72H64L36 0H1l101-248h38L239 0h-34zm-38-99l-47-123c-12 45-31 82-46 123h93" id="ah"/><path d="M96-169c-40 0-48 33-48 73s9 75 48 75c24 0 41-14 43-38l32 2c-6 37-31 61-74 61-59 0-76-41-82-99-10-93 101-131 147-64 4 7 5 14 7 22l-32 3c-4-21-16-35-41-35" id="ai"/><g id="c"><use transform="matrix(0.4444444444444444,0,0,0.4444444444444444,0,0)" xlink:href="#ah"/><use transform="matrix(0.4444444444444444,0,0,0.4444444444444444,106.66666666666666,0)" xlink:href="#ai"/><use transform="matrix(0.4444444444444444,0,0,0.4444444444444444,186.66666666666666,0)" xlink:href="#ae"/><use transform="matrix(0.4444444444444444,0,0,0.4444444444444444,275.55555555555554,0)" xlink:href="#W"/><use transform="matrix(0.4444444444444444,0,0,0.4444444444444444,355.55555555555554,0)" xlink:href="#W"/><use transform="matrix(0.4444444444444444,0,0,0.4444444444444444,435.55555555555554,0)" xlink:href="#ag"/></g><path d="M212-179c-10-28-35-45-73-45-59 0-87 40-87 99 0 60 29 101 89 101 43 0 62-24 78-52l27 14C228-24 195 4 139 4 59 4 22-46 18-125c-6-104 99-153 187-111 19 9 31 26 39 46" id="aj"/><path d="M106-169C34-169 62-67 57 0H25v-261h32l-1 103c12-21 28-36 61-36 89 0 53 116 60 194h-32v-121c2-32-8-49-39-48" id="ak"/><path d="M143 0L79-87 56-68V0H24v-261h32v163l83-92h37l-77 82L181 0h-38" id="al"/><path d="M16-82v-28h88v28H16" id="am"/><path d="M117-194c89-4 53 116 60 194h-32v-121c0-31-8-49-39-48C34-167 62-67 57 0H25l-1-190h30c1 10-1 24 2 32 11-22 29-35 61-36" id="an"/><g id="d"><use transform="matrix(0.4444444444444444,0,0,0.4444444444444444,0,0)" xlink:href="#aj"/><use transform="matrix(0.4444444444444444,0,0,0.4444444444444444,115.1111111111111,0)" xlink:href="#ak"/><use transform="matrix(0.4444444444444444,0,0,0.4444444444444444,204,0)" xlink:href="#ae"/><use transform="matrix(0.4444444444444444,0,0,0.4444444444444444,292.8888888888889,0)" xlink:href="#ai"/><use transform="matrix(0.4444444444444444,0,0,0.4444444444444444,372.8888888888889,0)" xlink:href="#al"/><use transform="matrix(0.4444444444444444,0,0,0.4444444444444444,452.8888888888889,0)" xlink:href="#am"/><use transform="matrix(0.4444444444444444,0,0,0.4444444444444444,505.7777777777778,0)" xlink:href="#aa"/><use transform="matrix(0.4444444444444444,0,0,0.4444444444444444,540.8888888888889,0)" xlink:href="#an"/></g><path d="M30-248c87 1 191-15 191 75 0 78-77 80-158 76V0H30v-248zm33 125c57 0 124 11 124-50 0-59-68-47-124-48v98" id="ao"/><g id="e"><use transform="matrix(0.4444444444444444,0,0,0.4444444444444444,0,0)" xlink:href="#ao"/><use transform="matrix(0.4444444444444444,0,0,0.4444444444444444,106.66666666666666,0)" xlink:href="#Z"/><use transform="matrix(0.4444444444444444,0,0,0.4444444444444444,159.55555555555554,0)" xlink:href="#ab"/><use transform="matrix(0.4444444444444444,0,0,0.4444444444444444,248.44444444444443,0)" xlink:href="#ai"/><use transform="matrix(0.4444444444444444,0,0,0.4444444444444444,328.44444444444446,0)" xlink:href="#ae"/><use transform="matrix(0.4444444444444444,0,0,0.4444444444444444,417.33333333333337,0)" xlink:href="#W"/><use transform="matrix(0.4444444444444444,0,0,0.4444444444444444,497.3333333333334,0)" xlink:href="#W"/><use transform="matrix(0.4444444444444444,0,0,0.4444444444444444,577.3333333333334,0)" xlink:href="#ag"/></g><use transform="matrix(0.4444444444444444,0,0,0.4444444444444444,0,0)" xlink:href="#ag" id="f"/><path d="M108 0H70L1-190h34L89-25l56-165h34" id="ap"/><g id="g"><use transform="matrix(0.4444444444444444,0,0,0.4444444444444444,0,0)" xlink:href="#Z"/><use transform="matrix(0.4444444444444444,0,0,0.4444444444444444,52.888888888888886,0)" xlink:href="#ae"/><use transform="matrix(0.4444444444444444,0,0,0.4444444444444444,141.77777777777777,0)" xlink:href="#W"/><use transform="matrix(0.4444444444444444,0,0,0.4444444444444444,221.77777777777777,0)" xlink:href="#ae"/><use transform="matrix(0.4444444444444444,0,0,0.4444444444444444,310.66666666666663,0)" xlink:href="#Z"/><use transform="matrix(0.4444444444444444,0,0,0.4444444444444444,363.55555555555554,0)" xlink:href="#ap"/><use transform="matrix(0.4444444444444444,0,0,0.4444444444444444,443.55555555555554,0)" xlink:href="#ag"/></g><path d="M30 0v-248h187v28H63v79h144v27H63v87h162V0H30" id="aq"/><path d="M141 0L90-78 38 0H4l68-98-65-92h35l48 74 47-74h35l-64 92 68 98h-35" id="ar"/><path d="M115-194c53 0 69 39 70 98 0 66-23 100-70 100C84 3 66-7 56-30L54 0H23l1-261h32v101c10-23 28-34 59-34zm-8 174c40 0 45-34 45-75 0-40-5-75-45-74-42 0-51 32-51 76 0 43 10 73 51 73" id="as"/><g id="h"><use transform="matrix(0.4444444444444444,0,0,0.4444444444444444,0,0)" xlink:href="#aq"/><use transform="matrix(0.4444444444444444,0,0,0.4444444444444444,106.66666666666666,0)" xlink:href="#ar"/><use transform="matrix(0.4444444444444444,0,0,0.4444444444444444,186.66666666666666,0)" xlink:href="#aa"/><use transform="matrix(0.4444444444444444,0,0,0.4444444444444444,221.77777777777777,0)" xlink:href="#as"/><use transform="matrix(0.4444444444444444,0,0,0.4444444444444444,310.66666666666663,0)" xlink:href="#ae"/></g><path d="M85-194c31 0 48 13 60 33l-1-100h32l1 261h-30c-2-10 0-23-3-31C134-8 116 4 85 4 32 4 16-35 15-94c0-66 23-100 70-100zm9 24c-40 0-46 34-46 75 0 40 6 74 45 74 42 0 51-32 51-76 0-42-9-74-50-73" id="at"/><g id="i"><use transform="matrix(0.4444444444444444,0,0,0.4444444444444444,0,0)" xlink:href="#at"/><use transform="matrix(0.4444444444444444,0,0,0.4444444444444444,88.88888888888889,0)" xlink:href="#ag"/><use transform="matrix(0.4444444444444444,0,0,0.4444444444444444,177.77777777777777,0)" xlink:href="#at"/><use transform="matrix(0.4444444444444444,0,0,0.4444444444444444,266.66666666666663,0)" xlink:href="#ab"/><use transform="matrix(0.4444444444444444,0,0,0.4444444444444444,355.55555555555554,0)" xlink:href="#W"/></g><g id="j"><use transform="matrix(0.4444444444444444,0,0,0.4444444444444444,0,0)" xlink:href="#at"/><use transform="matrix(0.4444444444444444,0,0,0.4444444444444444,88.88888888888889,0)" xlink:href="#ab"/></g><g id="k"><use transform="matrix(0.4444444444444444,0,0,0.4444444444444444,0,0)" xlink:href="#ap"/><use transform="matrix(0.4444444444444444,0,0,0.4444444444444444,80,0)" xlink:href="#ab"/><use transform="matrix(0.4444444444444444,0,0,0.4444444444444444,168.88888888888889,0)" xlink:href="#ab"/></g><g id="l"><use transform="matrix(0.4444444444444444,0,0,0.4444444444444444,0,0)" xlink:href="#ac"/><use transform="matrix(0.4444444444444444,0,0,0.4444444444444444,106.66666666666666,0)" xlink:href="#aa"/><use transform="matrix(0.4444444444444444,0,0,0.4444444444444444,141.77777777777777,0)" xlink:href="#af"/></g><path d="M26 75v-336h71v23H56V52h41v23H26" id="au"/><g id="m"><use transform="matrix(0.4444444444444444,0,0,0.4444444444444444,0,0)" xlink:href="#au"/><use transform="matrix(0.4444444444444444,0,0,0.4444444444444444,44.44444444444444,0)" xlink:href="#aj"/><use transform="matrix(0.4444444444444444,0,0,0.4444444444444444,159.55555555555554,0)" xlink:href="#ak"/><use transform="matrix(0.4444444444444444,0,0,0.4444444444444444,248.44444444444443,0)" xlink:href="#ae"/><use transform="matrix(0.4444444444444444,0,0,0.4444444444444444,337.3333333333333,0)" xlink:href="#ai"/><use transform="matrix(0.4444444444444444,0,0,0.4444444444444444,417.3333333333333,0)" xlink:href="#al"/><use transform="matrix(0.4444444444444444,0,0,0.4444444444444444,497.3333333333333,0)" xlink:href="#am"/><use transform="matrix(0.4444444444444444,0,0,0.4444444444444444,550.2222222222222,0)" xlink:href="#aa"/><use transform="matrix(0.4444444444444444,0,0,0.4444444444444444,585.3333333333333,0)" xlink:href="#an"/></g><path d="M30 0v-248h33v221h125V0H30" id="av"/><path d="M3 75V52h41v-290H3v-23h71V75H3" id="aw"/><g id="n"><use transform="matrix(0.4444444444444444,0,0,0.4444444444444444,0,0)" xlink:href="#av"/><use transform="matrix(0.4444444444444444,0,0,0.4444444444444444,88.88888888888889,0)" xlink:href="#aa"/><use transform="matrix(0.4444444444444444,0,0,0.4444444444444444,124,0)" xlink:href="#as"/><use transform="matrix(0.4444444444444444,0,0,0.4444444444444444,212.88888888888889,0)" xlink:href="#ae"/><use transform="matrix(0.4444444444444444,0,0,0.4444444444444444,301.77777777777777,0)" xlink:href="#Z"/><use transform="matrix(0.4444444444444444,0,0,0.4444444444444444,354.66666666666663,0)" xlink:href="#ag"/><use transform="matrix(0.4444444444444444,0,0,0.4444444444444444,443.55555555555554,0)" xlink:href="#at"/><use transform="matrix(0.4444444444444444,0,0,0.4444444444444444,532.4444444444445,0)" xlink:href="#ab"/><use transform="matrix(0.4444444444444444,0,0,0.4444444444444444,621.3333333333334,0)" xlink:href="#aw"/></g><path d="M33 0v-248h34V0H33" id="ax"/><g id="o"><use transform="matrix(0.4444444444444444,0,0,0.4444444444444444,0,0)" xlink:href="#ax"/><use transform="matrix(0.4444444444444444,0,0,0.4444444444444444,44.44444444444444,0)" xlink:href="#an"/><use transform="matrix(0.4444444444444444,0,0,0.4444444444444444,133.33333333333331,0)" xlink:href="#W"/><use transform="matrix(0.4444444444444444,0,0,0.4444444444444444,213.33333333333331,0)" xlink:href="#ae"/><use transform="matrix(0.4444444444444444,0,0,0.4444444444444444,302.2222222222222,0)" xlink:href="#Z"/><use transform="matrix(0.4444444444444444,0,0,0.4444444444444444,355.1111111111111,0)" xlink:href="#ae"/></g><path d="M100-194c62-1 85 37 85 99 1 63-27 99-86 99S16-35 15-95c0-66 28-99 85-99zM99-20c44 1 53-31 53-75 0-43-8-75-51-75s-53 32-53 75 10 74 51 75zM76-211c8-23 27-35 38-54h36v5l-58 49H76" id="ay"/><path d="M177-190C167-65 218 103 67 71c-23-6-38-20-44-43l32-5c15 47 100 32 89-28v-30C133-14 115 1 83 1 29 1 15-40 15-95c0-56 16-97 71-98 29-1 48 16 59 35 1-10 0-23 2-32h30zM94-22c36 0 50-32 50-73 0-42-14-75-50-75-39 0-46 34-46 75s6 73 46 73" id="az"/><g id="p"><use transform="matrix(0.4444444444444444,0,0,0.4444444444444444,0,0)" xlink:href="#ai"/><use transform="matrix(0.4444444444444444,0,0,0.4444444444444444,80,0)" xlink:href="#ay"/><use transform="matrix(0.4444444444444444,0,0,0.4444444444444444,168.88888888888889,0)" xlink:href="#at"/><use transform="matrix(0.4444444444444444,0,0,0.4444444444444444,257.77777777777777,0)" xlink:href="#aa"/><use transform="matrix(0.4444444444444444,0,0,0.4444444444444444,292.88888888888886,0)" xlink:href="#az"/><use transform="matrix(0.4444444444444444,0,0,0.4444444444444444,381.7777777777777,0)" xlink:href="#ab"/></g><g id="q"><use transform="matrix(0.4444444444444444,0,0,0.4444444444444444,0,0)" xlink:href="#at"/><use transform="matrix(0.4444444444444444,0,0,0.4444444444444444,88.88888888888889,0)" xlink:href="#ae"/></g><path d="M24 0v-261h32V0H24" id="aA"/><g id="r"><use transform="matrix(0.4444444444444444,0,0,0.4444444444444444,0,0)" xlink:href="#aA"/><use transform="matrix(0.4444444444444444,0,0,0.4444444444444444,35.11111111111111,0)" xlink:href="#ab"/><use transform="matrix(0.4444444444444444,0,0,0.4444444444444444,124,0)" xlink:href="#ai"/><use transform="matrix(0.4444444444444444,0,0,0.4444444444444444,204,0)" xlink:href="#ag"/><use transform="matrix(0.4444444444444444,0,0,0.4444444444444444,292.8888888888889,0)" xlink:href="#aA"/></g><g id="s"><use transform="matrix(0.4444444444444444,0,0,0.4444444444444444,0,0)" xlink:href="#at"/><use transform="matrix(0.4444444444444444,0,0,0.4444444444444444,88.88888888888889,0)" xlink:href="#ae"/></g><path d="M34 0v-190h32V0H34zM24-211c8-23 27-35 38-54h36v5l-58 49H24" id="aB"/><g id="t"><use transform="matrix(0.4444444444444444,0,0,0.4444444444444444,0,0)" xlink:href="#W"/><use transform="matrix(0.4444444444444444,0,0,0.4444444444444444,80,0)" xlink:href="#ag"/><use transform="matrix(0.4444444444444444,0,0,0.4444444444444444,168.88888888888889,0)" xlink:href="#aB"/><use transform="matrix(0.4444444444444444,0,0,0.4444444444444444,213.33333333333331,0)" xlink:href="#at"/><use transform="matrix(0.4444444444444444,0,0,0.4444444444444444,302.2222222222222,0)" xlink:href="#ag"/></g><path d="M190 0L58-211 59 0H30v-248h39L202-35l-2-213h31V0h-41" id="aC"/><path d="M141-36C126-15 110 5 73 4 37 3 15-17 15-53c-1-64 63-63 125-63 3-35-9-54-41-54-24 1-41 7-42 31l-33-3c5-37 33-52 76-52 45 0 72 20 72 64v82c-1 20 7 32 28 27v20c-31 9-61-2-59-35zM48-53c0 20 12 33 32 33 41-3 63-29 60-74-43 2-92-5-92 41zm117-205c-3 23-9 48-36 47-26-1-65-44-74 0H39c4-23 8-48 36-47s64 44 74 0h16" id="aD"/><g id="u"><use transform="matrix(0.4444444444444444,0,0,0.4444444444444444,0,0)" xlink:href="#aC"/><use transform="matrix(0.4444444444444444,0,0,0.4444444444444444,115.1111111111111,0)" xlink:href="#aD"/><use transform="matrix(0.4444444444444444,0,0,0.4444444444444444,204,0)" xlink:href="#ab"/></g><g id="v"><use transform="matrix(0.4444444444444444,0,0,0.4444444444444444,0,0)" xlink:href="#ao"/><use transform="matrix(0.4444444444444444,0,0,0.4444444444444444,106.66666666666666,0)" xlink:href="#Z"/><use transform="matrix(0.4444444444444444,0,0,0.4444444444444444,159.55555555555554,0)" xlink:href="#ae"/><use transform="matrix(0.4444444444444444,0,0,0.4444444444444444,248.44444444444443,0)" xlink:href="#ae"/><use transform="matrix(0.4444444444444444,0,0,0.4444444444444444,337.3333333333333,0)" xlink:href="#an"/><use transform="matrix(0.4444444444444444,0,0,0.4444444444444444,426.2222222222222,0)" xlink:href="#ai"/><use transform="matrix(0.4444444444444444,0,0,0.4444444444444444,506.2222222222222,0)" xlink:href="#ak"/><use transform="matrix(0.4444444444444444,0,0,0.4444444444444444,595.1111111111111,0)" xlink:href="#ae"/></g><g id="w"><use transform="matrix(0.4444444444444444,0,0,0.4444444444444444,0,0)" xlink:href="#at"/><use transform="matrix(0.4444444444444444,0,0,0.4444444444444444,88.88888888888889,0)" xlink:href="#ag"/><use transform="matrix(0.4444444444444444,0,0,0.4444444444444444,177.77777777777777,0)" xlink:href="#at"/><use transform="matrix(0.4444444444444444,0,0,0.4444444444444444,266.66666666666663,0)" xlink:href="#ab"/><use transform="matrix(0.4444444444444444,0,0,0.4444444444444444,355.55555555555554,0)" xlink:href="#W"/></g><path d="M115-194c55 1 70 41 70 98S169 2 115 4C84 4 66-9 55-30l1 105H24l-1-265h31l2 30c10-21 28-34 59-34zm-8 174c40 0 45-34 45-75s-6-73-45-74c-42 0-51 32-51 76 0 43 10 73 51 73" id="aE"/><g id="x"><use transform="matrix(0.4444444444444444,0,0,0.4444444444444444,0,0)" xlink:href="#aE"/><use transform="matrix(0.4444444444444444,0,0,0.4444444444444444,88.88888888888889,0)" xlink:href="#ae"/><use transform="matrix(0.4444444444444444,0,0,0.4444444444444444,177.77777777777777,0)" xlink:href="#an"/><use transform="matrix(0.4444444444444444,0,0,0.4444444444444444,266.66666666666663,0)" xlink:href="#at"/><use transform="matrix(0.4444444444444444,0,0,0.4444444444444444,355.55555555555554,0)" xlink:href="#ae"/><use transform="matrix(0.4444444444444444,0,0,0.4444444444444444,444.44444444444446,0)" xlink:href="#an"/><use transform="matrix(0.4444444444444444,0,0,0.4444444444444444,533.3333333333334,0)" xlink:href="#ad"/><use transform="matrix(0.4444444444444444,0,0,0.4444444444444444,577.7777777777778,0)" xlink:href="#ae"/><use transform="matrix(0.4444444444444444,0,0,0.4444444444444444,666.6666666666667,0)" xlink:href="#W"/></g><path d="M101-234c-31-9-42 10-38 44h38v23H63V0H32v-167H5v-23h27c-7-52 17-82 69-68v24" id="aF"/><path d="M0 4l72-265h28L28 4H0" id="aG"/><g id="y"><use transform="matrix(0.4444444444444444,0,0,0.4444444444444444,0,0)" xlink:href="#aj"/><use transform="matrix(0.4444444444444444,0,0,0.4444444444444444,115.1111111111111,0)" xlink:href="#ab"/><use transform="matrix(0.4444444444444444,0,0,0.4444444444444444,204,0)" xlink:href="#an"/><use transform="matrix(0.4444444444444444,0,0,0.4444444444444444,292.8888888888889,0)" xlink:href="#aF"/><use transform="matrix(0.4444444444444444,0,0,0.4444444444444444,337.33333333333337,0)" xlink:href="#aa"/><use transform="matrix(0.4444444444444444,0,0,0.4444444444444444,372.44444444444446,0)" xlink:href="#Z"/><use transform="matrix(0.4444444444444444,0,0,0.4444444444444444,425.33333333333337,0)" xlink:href="#af"/><use transform="matrix(0.4444444444444444,0,0,0.4444444444444444,558.2222222222223,0)" xlink:href="#ag"/><use transform="matrix(0.4444444444444444,0,0,0.4444444444444444,647.1111111111112,0)" xlink:href="#aG"/><use transform="matrix(0.4444444444444444,0,0,0.4444444444444444,691.5555555555557,0)" xlink:href="#aq"/><use transform="matrix(0.4444444444444444,0,0,0.4444444444444444,798.2222222222223,0)" xlink:href="#W"/><use transform="matrix(0.4444444444444444,0,0,0.4444444444444444,878.2222222222223,0)" xlink:href="#ai"/><use transform="matrix(0.4444444444444444,0,0,0.4444444444444444,958.2222222222224,0)" xlink:href="#ab"/><use transform="matrix(0.4444444444444444,0,0,0.4444444444444444,1047.111111111111,0)" xlink:href="#aA"/><use transform="matrix(0.4444444444444444,0,0,0.4444444444444444,1082.2222222222222,0)" xlink:href="#ak"/><use transform="matrix(0.4444444444444444,0,0,0.4444444444444444,1171.111111111111,0)" xlink:href="#ae"/></g><g id="z"><use transform="matrix(0.4444444444444444,0,0,0.4444444444444444,0,0)" xlink:href="#ag"/><use transform="matrix(0.4444444444444444,0,0,0.4444444444444444,88.88888888888889,0)" xlink:href="#W"/><use transform="matrix(0.4444444444444444,0,0,0.4444444444444444,168.88888888888889,0)" xlink:href="#W"/><use transform="matrix(0.4444444444444444,0,0,0.4444444444444444,248.88888888888889,0)" xlink:href="#ae"/><use transform="matrix(0.4444444444444444,0,0,0.4444444444444444,337.77777777777777,0)" xlink:href="#an"/><use transform="matrix(0.4444444444444444,0,0,0.4444444444444444,426.66666666666663,0)" xlink:href="#ad"/><use transform="matrix(0.4444444444444444,0,0,0.4444444444444444,471.1111111111111,0)" xlink:href="#ab"/><use transform="matrix(0.4444444444444444,0,0,0.4444444444444444,560,0)" xlink:href="#W"/></g><use transform="matrix(0.4444444444444444,0,0,0.4444444444444444,0,0)" xlink:href="#ab" id="A"/><g id="B"><use transform="matrix(0.4444444444444444,0,0,0.4444444444444444,0,0)" xlink:href="#ai"/><use transform="matrix(0.4444444444444444,0,0,0.4444444444444444,80,0)" xlink:href="#ak"/><use transform="matrix(0.4444444444444444,0,0,0.4444444444444444,168.88888888888889,0)" xlink:href="#ae"/><use transform="matrix(0.4444444444444444,0,0,0.4444444444444444,257.77777777777777,0)" xlink:href="#ai"/><use transform="matrix(0.4444444444444444,0,0,0.4444444444444444,337.77777777777777,0)" xlink:href="#al"/><use transform="matrix(0.4444444444444444,0,0,0.4444444444444444,417.77777777777777,0)" xlink:href="#am"/><use transform="matrix(0.4444444444444444,0,0,0.4444444444444444,470.66666666666663,0)" xlink:href="#aa"/><use transform="matrix(0.4444444444444444,0,0,0.4444444444444444,505.77777777777777,0)" xlink:href="#an"/></g><g id="C"><use transform="matrix(0.4444444444444444,0,0,0.4444444444444444,0,0)" xlink:href="#av"/><use transform="matrix(0.4444444444444444,0,0,0.4444444444444444,88.88888888888889,0)" xlink:href="#aa"/><use transform="matrix(0.4444444444444444,0,0,0.4444444444444444,124,0)" xlink:href="#as"/><use transform="matrix(0.4444444444444444,0,0,0.4444444444444444,212.88888888888889,0)" xlink:href="#ae"/><use transform="matrix(0.4444444444444444,0,0,0.4444444444444444,301.77777777777777,0)" xlink:href="#Z"/><use transform="matrix(0.4444444444444444,0,0,0.4444444444444444,354.66666666666663,0)" xlink:href="#ag"/></g><g id="D"><use transform="matrix(0.4444444444444444,0,0,0.4444444444444444,0,0)" xlink:href="#ai"/><use transform="matrix(0.4444444444444444,0,0,0.4444444444444444,80,0)" xlink:href="#ag"/><use transform="matrix(0.4444444444444444,0,0,0.4444444444444444,168.88888888888889,0)" xlink:href="#Z"/><use transform="matrix(0.4444444444444444,0,0,0.4444444444444444,221.77777777777777,0)" xlink:href="#ad"/><use transform="matrix(0.4444444444444444,0,0,0.4444444444444444,266.22222222222223,0)" xlink:href="#aD"/><use transform="matrix(0.4444444444444444,0,0,0.4444444444444444,355.1111111111111,0)" xlink:href="#ab"/></g><path d="M145-31C134-9 116 4 85 4 32 4 16-35 15-94c0-59 17-99 70-100 32-1 48 14 60 33 0-11-1-24 2-32h30l-1 268h-32zM93-21c41 0 51-33 51-76s-8-73-50-73c-40 0-46 35-46 75s5 74 45 74" id="aH"/><g id="E"><use transform="matrix(0.4444444444444444,0,0,0.4444444444444444,0,0)" xlink:href="#ae"/><use transform="matrix(0.4444444444444444,0,0,0.4444444444444444,88.88888888888889,0)" xlink:href="#af"/><use transform="matrix(0.4444444444444444,0,0,0.4444444444444444,221.77777777777777,0)" xlink:href="#as"/><use transform="matrix(0.4444444444444444,0,0,0.4444444444444444,310.66666666666663,0)" xlink:href="#ag"/><use transform="matrix(0.4444444444444444,0,0,0.4444444444444444,399.55555555555554,0)" xlink:href="#Z"/><use transform="matrix(0.4444444444444444,0,0,0.4444444444444444,452.44444444444446,0)" xlink:href="#aH"/><use transform="matrix(0.4444444444444444,0,0,0.4444444444444444,541.3333333333334,0)" xlink:href="#X"/><use transform="matrix(0.4444444444444444,0,0,0.4444444444444444,630.2222222222223,0)" xlink:href="#ae"/></g><path d="M160-131c35 5 61 23 61 61C221 17 115-2 30 0v-248c76 3 177-17 177 60 0 33-19 50-47 57zm-97-11c50-1 110 9 110-42 0-47-63-36-110-37v79zm0 115c55-2 124 14 124-45 0-56-70-42-124-44v89" id="aI"/><g id="F"><use transform="matrix(0.4444444444444444,0,0,0.4444444444444444,0,0)" xlink:href="#aI"/><use transform="matrix(0.4444444444444444,0,0,0.4444444444444444,106.66666666666666,0)" xlink:href="#ag"/><use transform="matrix(0.4444444444444444,0,0,0.4444444444444444,195.55555555555554,0)" xlink:href="#aa"/><use transform="matrix(0.4444444444444444,0,0,0.4444444444444444,230.66666666666666,0)" xlink:href="#ar"/><use transform="matrix(0.4444444444444444,0,0,0.4444444444444444,310.66666666666663,0)" xlink:href="#ag"/></g><g id="G"><use transform="matrix(0.4444444444444444,0,0,0.4444444444444444,0,0)" xlink:href="#ai"/><use transform="matrix(0.4444444444444444,0,0,0.4444444444444444,80,0)" xlink:href="#ag"/><use transform="matrix(0.4444444444444444,0,0,0.4444444444444444,168.88888888888889,0)" xlink:href="#Z"/><use transform="matrix(0.4444444444444444,0,0,0.4444444444444444,221.77777777777777,0)" xlink:href="#ad"/><use transform="matrix(0.4444444444444444,0,0,0.4444444444444444,266.22222222222223,0)" xlink:href="#aD"/><use transform="matrix(0.4444444444444444,0,0,0.4444444444444444,355.1111111111111,0)" xlink:href="#ab"/><use transform="matrix(0.4444444444444444,0,0,0.4444444444444444,444,0)" xlink:href="#aG"/><use transform="matrix(0.4444444444444444,0,0,0.4444444444444444,488.4444444444444,0)" xlink:href="#ae"/><use transform="matrix(0.4444444444444444,0,0,0.4444444444444444,577.3333333333334,0)" xlink:href="#an"/><use transform="matrix(0.4444444444444444,0,0,0.4444444444444444,666.2222222222223,0)" xlink:href="#ap"/><use transform="matrix(0.4444444444444444,0,0,0.4444444444444444,746.2222222222223,0)" xlink:href="#aa"/><use transform="matrix(0.4444444444444444,0,0,0.4444444444444444,781.3333333333334,0)" xlink:href="#ag"/></g><g id="H"><use transform="matrix(0.4444444444444444,0,0,0.4444444444444444,0,0)" xlink:href="#aE"/><use transform="matrix(0.4444444444444444,0,0,0.4444444444444444,88.88888888888889,0)" xlink:href="#ab"/><use transform="matrix(0.4444444444444444,0,0,0.4444444444444444,177.77777777777777,0)" xlink:href="#Z"/></g><g id="I"><use transform="matrix(0.4444444444444444,0,0,0.4444444444444444,0,0)" xlink:href="#ae"/><use transform="matrix(0.4444444444444444,0,0,0.4444444444444444,88.88888888888889,0)" xlink:href="#am"/><use transform="matrix(0.4444444444444444,0,0,0.4444444444444444,141.77777777777777,0)" xlink:href="#af"/><use transform="matrix(0.4444444444444444,0,0,0.4444444444444444,274.66666666666663,0)" xlink:href="#ag"/><use transform="matrix(0.4444444444444444,0,0,0.4444444444444444,363.55555555555554,0)" xlink:href="#aa"/><use transform="matrix(0.4444444444444444,0,0,0.4444444444444444,398.66666666666663,0)" xlink:href="#aA"/></g><g id="J"><use transform="matrix(0.4444444444444444,0,0,0.4444444444444444,0,0)" xlink:href="#ad"/><use transform="matrix(0.4444444444444444,0,0,0.4444444444444444,44.44444444444444,0)" xlink:href="#ae"/><use transform="matrix(0.4444444444444444,0,0,0.4444444444444444,133.33333333333331,0)" xlink:href="#aA"/><use transform="matrix(0.4444444444444444,0,0,0.4444444444444444,168.44444444444443,0)" xlink:href="#ag"/></g><g id="K"><use transform="matrix(0.4444444444444444,0,0,0.4444444444444444,0,0)" xlink:href="#aE"/><use transform="matrix(0.4444444444444444,0,0,0.4444444444444444,88.88888888888889,0)" xlink:href="#ag"/><use transform="matrix(0.4444444444444444,0,0,0.4444444444444444,177.77777777777777,0)" xlink:href="#az"/><use transform="matrix(0.4444444444444444,0,0,0.4444444444444444,266.66666666666663,0)" xlink:href="#ag"/><use transform="matrix(0.4444444444444444,0,0,0.4444444444444444,355.55555555555554,0)" xlink:href="#af"/><use transform="matrix(0.4444444444444444,0,0,0.4444444444444444,488.4444444444444,0)" xlink:href="#ae"/><use transform="matrix(0.4444444444444444,0,0,0.4444444444444444,577.3333333333334,0)" xlink:href="#an"/><use transform="matrix(0.4444444444444444,0,0,0.4444444444444444,666.2222222222223,0)" xlink:href="#ad"/><use transform="matrix(0.4444444444444444,0,0,0.4444444444444444,710.6666666666667,0)" xlink:href="#ab"/></g><g id="L"><use transform="matrix(0.4444444444444444,0,0,0.4444444444444444,0,0)" xlink:href="#aq"/><use transform="matrix(0.4444444444444444,0,0,0.4444444444444444,106.66666666666666,0)" xlink:href="#W"/><use transform="matrix(0.4444444444444444,0,0,0.4444444444444444,186.66666666666666,0)" xlink:href="#ai"/><use transform="matrix(0.4444444444444444,0,0,0.4444444444444444,266.66666666666663,0)" xlink:href="#ab"/><use transform="matrix(0.4444444444444444,0,0,0.4444444444444444,355.55555555555554,0)" xlink:href="#aA"/><use transform="matrix(0.4444444444444444,0,0,0.4444444444444444,390.66666666666663,0)" xlink:href="#ak"/><use transform="matrix(0.4444444444444444,0,0,0.4444444444444444,479.55555555555554,0)" xlink:href="#ae"/></g><g id="M"><use transform="matrix(0.4444444444444444,0,0,0.4444444444444444,0,0)" xlink:href="#af"/><use transform="matrix(0.4444444444444444,0,0,0.4444444444444444,132.88888888888889,0)" xlink:href="#ae"/><use transform="matrix(0.4444444444444444,0,0,0.4444444444444444,221.77777777777777,0)" xlink:href="#aa"/><use transform="matrix(0.4444444444444444,0,0,0.4444444444444444,256.88888888888886,0)" xlink:href="#ab"/></g><path d="M233-177c-1 41-23 64-60 70L243 0h-38l-65-103H63V0H30v-248c88 3 205-21 203 71zM63-129c60-2 137 13 137-47 0-61-80-42-137-45v92" id="aJ"/><path d="M9 0v-24l116-142H16v-24h144v24L44-24h123V0H9" id="aK"/><g id="N"><use transform="matrix(0.4444444444444444,0,0,0.4444444444444444,0,0)" xlink:href="#aJ"/><use transform="matrix(0.4444444444444444,0,0,0.4444444444444444,115.1111111111111,0)" xlink:href="#ae"/><use transform="matrix(0.4444444444444444,0,0,0.4444444444444444,204,0)" xlink:href="#ag"/><use transform="matrix(0.4444444444444444,0,0,0.4444444444444444,292.8888888888889,0)" xlink:href="#aA"/><use transform="matrix(0.4444444444444444,0,0,0.4444444444444444,328,0)" xlink:href="#aa"/><use transform="matrix(0.4444444444444444,0,0,0.4444444444444444,363.1111111111111,0)" xlink:href="#aK"/><use transform="matrix(0.4444444444444444,0,0,0.4444444444444444,443.1111111111111,0)" xlink:href="#ag"/></g><g id="O"><use transform="matrix(0.4444444444444444,0,0,0.4444444444444444,0,0)" xlink:href="#ao"/><use transform="matrix(0.4444444444444444,0,0,0.4444444444444444,106.66666666666666,0)" xlink:href="#ag"/><use transform="matrix(0.4444444444444444,0,0,0.4444444444444444,195.55555555555554,0)" xlink:href="#az"/><use transform="matrix(0.4444444444444444,0,0,0.4444444444444444,284.44444444444446,0)" xlink:href="#ag"/><use transform="matrix(0.4444444444444444,0,0,0.4444444444444444,373.33333333333337,0)" xlink:href="#af"/><use transform="matrix(0.4444444444444444,0,0,0.4444444444444444,506.2222222222223,0)" xlink:href="#ae"/><use transform="matrix(0.4444444444444444,0,0,0.4444444444444444,595.1111111111112,0)" xlink:href="#an"/><use transform="matrix(0.4444444444444444,0,0,0.4444444444444444,684.0000000000001,0)" xlink:href="#ad"/><use transform="matrix(0.4444444444444444,0,0,0.4444444444444444,728.4444444444446,0)" xlink:href="#ab"/></g><g id="P"><use transform="matrix(0.4444444444444444,0,0,0.4444444444444444,0,0)" xlink:href="#aj"/><use transform="matrix(0.4444444444444444,0,0,0.4444444444444444,115.1111111111111,0)" xlink:href="#ag"/><use transform="matrix(0.4444444444444444,0,0,0.4444444444444444,204,0)" xlink:href="#at"/><use transform="matrix(0.4444444444444444,0,0,0.4444444444444444,292.8888888888889,0)" xlink:href="#ag"/><use transform="matrix(0.4444444444444444,0,0,0.4444444444444444,381.7777777777778,0)" xlink:href="#W"/><use transform="matrix(0.4444444444444444,0,0,0.4444444444444444,461.7777777777778,0)" xlink:href="#ad"/><use transform="matrix(0.4444444444444444,0,0,0.4444444444444444,506.2222222222223,0)" xlink:href="#Z"/><use transform="matrix(0.4444444444444444,0,0,0.4444444444444444,559.1111111111112,0)" xlink:href="#ab"/></g><path d="M240 0l2-218c-23 76-54 145-80 218h-23L58-218 59 0H30v-248h44l77 211c21-75 51-140 76-211h43V0h-30" id="aL"/><g id="Q"><use transform="matrix(0.4444444444444444,0,0,0.4444444444444444,0,0)" xlink:href="#au"/><use transform="matrix(0.4444444444444444,0,0,0.4444444444444444,44.44444444444444,0)" xlink:href="#aL"/><use transform="matrix(0.4444444444444444,0,0,0.4444444444444444,177.33333333333331,0)" xlink:href="#ae"/><use transform="matrix(0.4444444444444444,0,0,0.4444444444444444,266.2222222222222,0)" xlink:href="#aa"/><use transform="matrix(0.4444444444444444,0,0,0.4444444444444444,301.33333333333326,0)" xlink:href="#ab"/></g><g id="R"><use transform="matrix(0.4444444444444444,0,0,0.4444444444444444,0,0)" xlink:href="#ai"/><use transform="matrix(0.4444444444444444,0,0,0.4444444444444444,80,0)" xlink:href="#ag"/><use transform="matrix(0.4444444444444444,0,0,0.4444444444444444,168.88888888888889,0)" xlink:href="#at"/><use transform="matrix(0.4444444444444444,0,0,0.4444444444444444,257.77777777777777,0)" xlink:href="#ag"/><use transform="matrix(0.4444444444444444,0,0,0.4444444444444444,346.66666666666663,0)" xlink:href="#W"/><use transform="matrix(0.4444444444444444,0,0,0.4444444444444444,426.66666666666663,0)" xlink:href="#ad"/><use transform="matrix(0.4444444444444444,0,0,0.4444444444444444,471.1111111111111,0)" xlink:href="#Z"/><use transform="matrix(0.4444444444444444,0,0,0.4444444444444444,524,0)" xlink:href="#ag"/><use transform="matrix(0.4444444444444444,0,0,0.4444444444444444,612.8888888888889,0)" xlink:href="#at"/><use transform="matrix(0.4444444444444444,0,0,0.4444444444444444,701.7777777777778,0)" xlink:href="#ab"/><use transform="matrix(0.4444444444444444,0,0,0.4444444444444444,790.6666666666667,0)" xlink:href="#aw"/></g><g id="S"><use transform="matrix(0.4444444444444444,0,0,0.4444444444444444,0,0)" xlink:href="#au"/><use transform="matrix(0.4444444444444444,0,0,0.4444444444444444,44.44444444444444,0)" xlink:href="#ao"/><use transform="matrix(0.4444444444444444,0,0,0.4444444444444444,151.1111111111111,0)" xlink:href="#ag"/><use transform="matrix(0.4444444444444444,0,0,0.4444444444444444,240,0)" xlink:href="#az"/><use transform="matrix(0.4444444444444444,0,0,0.4444444444444444,328.88888888888886,0)" xlink:href="#ag"/><use transform="matrix(0.4444444444444444,0,0,0.4444444444444444,417.7777777777777,0)" xlink:href="#af"/><use transform="matrix(0.4444444444444444,0,0,0.4444444444444444,550.6666666666666,0)" xlink:href="#ae"/><use transform="matrix(0.4444444444444444,0,0,0.4444444444444444,639.5555555555555,0)" xlink:href="#an"/><use transform="matrix(0.4444444444444444,0,0,0.4444444444444444,728.4444444444445,0)" xlink:href="#ad"/><use transform="matrix(0.4444444444444444,0,0,0.4444444444444444,772.8888888888889,0)" xlink:href="#ab"/></g><g id="T"><use transform="matrix(0.4444444444444444,0,0,0.4444444444444444,0,0)" xlink:href="#ah"/><use transform="matrix(0.4444444444444444,0,0,0.4444444444444444,106.66666666666666,0)" xlink:href="#aE"/><use transform="matrix(0.4444444444444444,0,0,0.4444444444444444,195.55555555555554,0)" xlink:href="#Z"/><use transform="matrix(0.4444444444444444,0,0,0.4444444444444444,248.44444444444443,0)" xlink:href="#ab"/><use transform="matrix(0.4444444444444444,0,0,0.4444444444444444,337.3333333333333,0)" xlink:href="#ap"/><use transform="matrix(0.4444444444444444,0,0,0.4444444444444444,417.3333333333333,0)" xlink:href="#ag"/><use transform="matrix(0.4444444444444444,0,0,0.4444444444444444,506.2222222222222,0)" xlink:href="#at"/><use transform="matrix(0.4444444444444444,0,0,0.4444444444444444,595.1111111111111,0)" xlink:href="#ab"/><use transform="matrix(0.4444444444444444,0,0,0.4444444444444444,684,0)" xlink:href="#aw"/></g><g id="U"><use transform="matrix(0.4444444444444444,0,0,0.4444444444444444,0,0)" xlink:href="#ai"/><use transform="matrix(0.4444444444444444,0,0,0.4444444444444444,80,0)" xlink:href="#ag"/><use transform="matrix(0.4444444444444444,0,0,0.4444444444444444,168.88888888888889,0)" xlink:href="#at"/><use transform="matrix(0.4444444444444444,0,0,0.4444444444444444,257.77777777777777,0)" xlink:href="#ag"/><use transform="matrix(0.4444444444444444,0,0,0.4444444444444444,346.66666666666663,0)" xlink:href="#W"/><use transform="matrix(0.4444444444444444,0,0,0.4444444444444444,426.66666666666663,0)" xlink:href="#ad"/><use transform="matrix(0.4444444444444444,0,0,0.4444444444444444,471.1111111111111,0)" xlink:href="#Z"/><use transform="matrix(0.4444444444444444,0,0,0.4444444444444444,524,0)" xlink:href="#ab"/></g></defs></g></svg>